<?xml version="1.0" encoding="UTF-8" standalone="no"?><svg xmlns="http://www.w3.org/2000/svg" xmlns:xlink="http://www.w3.org/1999/xlink" contentStyleType="text/css" height="681px" preserveAspectRatio="none" style="width:406px;height:681px;background:#FFFFFF;" version="1.1" viewBox="0 0 406 681" width="406px" zoomAndPan="magnify"><defs/><g><!--MD5=[3fd616f346a44cd59a91eb10b19e157c]
class User--><g id="elem_User"><rect codeLine="1" fill="#F1F1F1" height="130.4414" id="User" rx="2.5" ry="2.5" style="stroke:#181818;stroke-width:0.5;" width="151" x="153" y="7"/><ellipse cx="208.75" cy="23" fill="#ADD1B2" rx="11" ry="11" style="stroke:#181818;stroke-width:1.0;"/><path d="M211.2231,29.1431 Q210.6421,29.4419 210.0029,29.5913 Q209.3638,29.7407 208.6582,29.7407 Q206.1514,29.7407 204.8315,28.0889 Q203.5117,26.437 203.5117,23.3159 Q203.5117,20.1865 204.8315,18.5347 Q206.1514,16.8828 208.6582,16.8828 Q209.3638,16.8828 210.0112,17.0322 Q210.6587,17.1816 211.2231,17.4805 L211.2231,20.2031 Q210.5923,19.6221 209.9988,19.3523 Q209.4053,19.0825 208.7744,19.0825 Q207.4297,19.0825 206.7449,20.1492 Q206.0601,21.2158 206.0601,23.3159 Q206.0601,25.4077 206.7449,26.4744 Q207.4297,27.541 208.7744,27.541 Q209.4053,27.541 209.9988,27.2712 Q210.5923,27.0015 211.2231,26.4204 Z " fill="#000000"/><text fill="#000000" font-family="sans-serif" font-size="14" lengthAdjust="spacing" textLength="31" x="229.25" y="28.291">User</text><line style="stroke:#181818;stroke-width:0.5;" x1="154" x2="303" y1="39" y2="39"/><text fill="#000000" font-family="sans-serif" font-size="14" lengthAdjust="spacing" textLength="98" x="159" y="56.5352">user_id: string</text><text fill="#000000" font-family="sans-serif" font-size="14" lengthAdjust="spacing" textLength="110" x="159" y="73.0234">username: sting</text><text fill="#000000" font-family="sans-serif" font-size="14" lengthAdjust="spacing" textLength="85" x="159" y="89.5117">email: string</text><text fill="#000000" font-family="sans-serif" font-size="14" lengthAdjust="spacing" textLength="139" x="159" y="106">created_at: datatime</text><text fill="#000000" font-family="sans-serif" font-size="14" lengthAdjust="spacing" textLength="89" x="159" y="122.4883">origin: string</text><line style="stroke:#181818;stroke-width:0.5;" x1="154" x2="303" y1="129.4414" y2="129.4414"/></g><!--MD5=[2ca1536628238a7dc78c5d90808014f9]
class Session--><g id="elem_Session"><rect codeLine="9" fill="#F1F1F1" height="97.4648" id="Session" rx="2.5" ry="2.5" style="stroke:#181818;stroke-width:0.5;" width="151" x="153" y="197"/><ellipse cx="198.25" cy="213" fill="#ADD1B2" rx="11" ry="11" style="stroke:#181818;stroke-width:1.0;"/><path d="M200.7231,219.1431 Q200.1421,219.4419 199.5029,219.5913 Q198.8638,219.7407 198.1582,219.7407 Q195.6514,219.7407 194.3315,218.0889 Q193.0117,216.437 193.0117,213.3159 Q193.0117,210.1865 194.3315,208.5347 Q195.6514,206.8828 198.1582,206.8828 Q198.8638,206.8828 199.5112,207.0322 Q200.1587,207.1816 200.7231,207.4805 L200.7231,210.2031 Q200.0923,209.6221 199.4988,209.3523 Q198.9053,209.0825 198.2744,209.0825 Q196.9297,209.0825 196.2449,210.1492 Q195.5601,211.2158 195.5601,213.3159 Q195.5601,215.4077 196.2449,216.4744 Q196.9297,217.541 198.2744,217.541 Q198.9053,217.541 199.4988,217.2712 Q200.0923,217.0015 200.7231,216.4204 Z " fill="#000000"/><text fill="#000000" font-family="sans-serif" font-size="14" lengthAdjust="spacing" textLength="52" x="218.75" y="218.291">Session</text><line style="stroke:#181818;stroke-width:0.5;" x1="154" x2="303" y1="229" y2="229"/><text fill="#000000" font-family="sans-serif" font-size="14" lengthAdjust="spacing" textLength="119" x="159" y="246.5352">session_id: string</text><text fill="#000000" font-family="sans-serif" font-size="14" lengthAdjust="spacing" textLength="98" x="159" y="263.0234">host_id: string</text><text fill="#000000" font-family="sans-serif" font-size="14" lengthAdjust="spacing" textLength="139" x="159" y="279.5117">created_at: datetime</text><line style="stroke:#181818;stroke-width:0.5;" x1="154" x2="303" y1="286.4648" y2="286.4648"/></g><!--MD5=[c5b08e60048ef1bcd788d24cf324082e]
class UserSession--><g id="elem_UserSession"><rect codeLine="15" fill="#F1F1F1" height="80.9766" id="UserSession" rx="2.5" ry="2.5" style="stroke:#181818;stroke-width:0.5;" width="131" x="7" y="378.5"/><ellipse cx="29.2" cy="394.5" fill="#ADD1B2" rx="11" ry="11" style="stroke:#181818;stroke-width:1.0;"/><path d="M31.6731,400.6431 Q31.0921,400.9419 30.4529,401.0913 Q29.8138,401.2407 29.1082,401.2407 Q26.6014,401.2407 25.2815,399.5889 Q23.9617,397.937 23.9617,394.8159 Q23.9617,391.6865 25.2815,390.0347 Q26.6014,388.3828 29.1082,388.3828 Q29.8138,388.3828 30.4612,388.5322 Q31.1087,388.6816 31.6731,388.9805 L31.6731,391.7031 Q31.0423,391.1221 30.4488,390.8523 Q29.8553,390.5825 29.2244,390.5825 Q27.8797,390.5825 27.1949,391.6492 Q26.5101,392.7158 26.5101,394.8159 Q26.5101,396.9077 27.1949,397.9744 Q27.8797,399.041 29.2244,399.041 Q29.8553,399.041 30.4488,398.7712 Q31.0423,398.5015 31.6731,397.9204 Z " fill="#000000"/><text fill="#000000" font-family="sans-serif" font-size="14" lengthAdjust="spacing" textLength="83" x="44.8" y="399.791">UserSession</text><line style="stroke:#181818;stroke-width:0.5;" x1="8" x2="137" y1="410.5" y2="410.5"/><text fill="#000000" font-family="sans-serif" font-size="14" lengthAdjust="spacing" textLength="98" x="13" y="428.0352">user_id: string</text><text fill="#000000" font-family="sans-serif" font-size="14" lengthAdjust="spacing" textLength="119" x="13" y="444.5234">session_id: string</text><line style="stroke:#181818;stroke-width:0.5;" x1="8" x2="137" y1="451.4766" y2="451.4766"/></g><!--MD5=[4f6f0724d4d64e3e528d49a4ed1939d0]
class Poll--><g id="elem_Poll"><rect codeLine="20" fill="#F1F1F1" height="130.4414" id="Poll" rx="2.5" ry="2.5" style="stroke:#181818;stroke-width:0.5;" width="162" x="173.5" y="354"/><ellipse cx="237.75" cy="370" fill="#ADD1B2" rx="11" ry="11" style="stroke:#181818;stroke-width:1.0;"/><path d="M240.2231,376.1431 Q239.6421,376.4419 239.0029,376.5913 Q238.3638,376.7407 237.6582,376.7407 Q235.1514,376.7407 233.8315,375.0889 Q232.5117,373.437 232.5117,370.3159 Q232.5117,367.1865 233.8315,365.5347 Q235.1514,363.8828 237.6582,363.8828 Q238.3638,363.8828 239.0112,364.0322 Q239.6587,364.1816 240.2231,364.4805 L240.2231,367.2031 Q239.5923,366.6221 238.9988,366.3523 Q238.4053,366.0825 237.7744,366.0825 Q236.4297,366.0825 235.7449,367.1492 Q235.0601,368.2158 235.0601,370.3159 Q235.0601,372.4077 235.7449,373.4744 Q236.4297,374.541 237.7744,374.541 Q238.4053,374.541 238.9988,374.2712 Q239.5923,374.0015 240.2231,373.4204 Z " fill="#000000"/><text fill="#000000" font-family="sans-serif" font-size="14" lengthAdjust="spacing" textLength="25" x="258.25" y="375.291">Poll</text><line style="stroke:#181818;stroke-width:0.5;" x1="174.5" x2="334.5" y1="386" y2="386"/><text fill="#000000" font-family="sans-serif" font-size="14" lengthAdjust="spacing" textLength="94" x="179.5" y="403.5352">poll_id: string</text><text fill="#000000" font-family="sans-serif" font-size="14" lengthAdjust="spacing" textLength="119" x="179.5" y="420.0234">session_id: string</text><text fill="#000000" font-family="sans-serif" font-size="14" lengthAdjust="spacing" textLength="150" x="179.5" y="436.5117">votes_visible: boolean</text><text fill="#000000" font-family="sans-serif" font-size="14" lengthAdjust="spacing" textLength="125" x="179.5" y="453">description: string</text><text fill="#000000" font-family="sans-serif" font-size="14" lengthAdjust="spacing" textLength="139" x="179.5" y="469.4883">created_at: datetime</text><line style="stroke:#181818;stroke-width:0.5;" x1="174.5" x2="334.5" y1="476.4414" y2="476.4414"/></g><!--MD5=[6987bc66bd8845192e2addfb47d98466]
class Vote--><g id="elem_Vote"><rect codeLine="28" fill="#F1F1F1" height="130.4414" id="Vote" rx="2.5" ry="2.5" style="stroke:#181818;stroke-width:0.5;" width="156" x="243.5" y="544"/><ellipse cx="301.75" cy="560" fill="#ADD1B2" rx="11" ry="11" style="stroke:#181818;stroke-width:1.0;"/><path d="M304.2231,566.1431 Q303.6421,566.4419 303.0029,566.5913 Q302.3638,566.7407 301.6582,566.7407 Q299.1514,566.7407 297.8315,565.0889 Q296.5117,563.437 296.5117,560.3159 Q296.5117,557.1865 297.8315,555.5347 Q299.1514,553.8828 301.6582,553.8828 Q302.3638,553.8828 303.0112,554.0322 Q303.6587,554.1816 304.2231,554.4805 L304.2231,557.2031 Q303.5923,556.6221 302.9988,556.3523 Q302.4053,556.0825 301.7744,556.0825 Q300.4297,556.0825 299.7449,557.1492 Q299.0601,558.2158 299.0601,560.3159 Q299.0601,562.4077 299.7449,563.4744 Q300.4297,564.541 301.7744,564.541 Q302.4053,564.541 302.9988,564.2712 Q303.5923,564.0015 304.2231,563.4204 Z " fill="#000000"/><text fill="#000000" font-family="sans-serif" font-size="14" lengthAdjust="spacing" textLength="31" x="322.25" y="565.291">Vote</text><line style="stroke:#181818;stroke-width:0.5;" x1="244.5" x2="398.5" y1="576" y2="576"/><text fill="#000000" font-family="sans-serif" font-size="14" lengthAdjust="spacing" textLength="97" x="249.5" y="593.5352">vote_id: string</text><text fill="#000000" font-family="sans-serif" font-size="14" lengthAdjust="spacing" textLength="98" x="249.5" y="610.0234">user_id: string</text><text fill="#000000" font-family="sans-serif" font-size="14" lengthAdjust="spacing" textLength="94" x="249.5" y="626.5117">poll_id: string</text><text fill="#000000" font-family="sans-serif" font-size="14" lengthAdjust="spacing" textLength="98" x="249.5" y="643">value: number</text><text fill="#000000" font-family="sans-serif" font-size="14" lengthAdjust="spacing" textLength="144" x="249.5" y="659.4883">created_at: DateTime</text><line style="stroke:#181818;stroke-width:0.5;" x1="244.5" x2="398.5" y1="666.4414" y2="666.4414"/></g><!--MD5=[d65b66ea87f203c128fcedd26c80eea7]
reverse link User to UserSession--><g id="link_User_UserSession"><path codeLine="36" d="M169.42,142.55 C156.95,159.59 144.77,178.32 135.5,197 C105.89,256.68 88.1,332.55 79.31,378.08 " fill="none" id="User-backto-UserSession" style="stroke:#181818;stroke-width:1.0;"/><polygon fill="#181818" points="172.4,138.53,163.8304,143.384,169.4252,142.5488,170.2605,148.1437,172.4,138.53" style="stroke:#181818;stroke-width:1.0;"/><text fill="#000000" font-family="sans-serif" font-size="13" lengthAdjust="spacing" textLength="8" x="158.825" y="157.8459">1</text><text fill="#000000" font-family="sans-serif" font-size="13" lengthAdjust="spacing" textLength="20" x="58.7817" y="367.6565">0:n</text></g><!--MD5=[0874d01398849047611c46996dde94da]
reverse link Session to UserSession--><g id="link_Session_UserSession"><path codeLine="37" d="M180.78,298.97 C157.64,324.4 130.29,354.47 108.87,378.02 " fill="none" id="Session-backto-UserSession" style="stroke:#181818;stroke-width:1.0;"/><polygon fill="#181818" points="184.03,295.39,175.0116,299.3484,180.6624,299.0858,180.9249,304.7366,184.03,295.39" style="stroke:#181818;stroke-width:1.0;"/><text fill="#000000" font-family="sans-serif" font-size="13" lengthAdjust="spacing" textLength="8" x="170.0808" y="315.0917">1</text><text fill="#000000" font-family="sans-serif" font-size="13" lengthAdjust="spacing" textLength="20" x="93.0727" y="367.8885">0:n</text></g><!--MD5=[4a7b43bfd2ba73c074c79b7f2a65b65c]
reverse link User to Session--><g id="link_User_Session"><path codeLine="38" d="M228.5,143.86 C228.5,161.64 228.5,180.31 228.5,196.68 " fill="none" id="User-backto-Session" style="stroke:#181818;stroke-width:1.0;"/><polygon fill="#181818" points="228.5,138.86,224.5,147.86,228.5,143.86,232.5,147.86,228.5,138.86" style="stroke:#181818;stroke-width:1.0;"/><text fill="#000000" font-family="sans-serif" font-size="13" lengthAdjust="spacing" textLength="8" x="220.0625" y="157.8792">1</text><text fill="#000000" font-family="sans-serif" font-size="13" lengthAdjust="spacing" textLength="20" x="207.0938" y="186.3175">0:n</text></g><!--MD5=[c363418444fdae979780fa6e403f7711]
reverse link Session to Poll--><g id="link_Session_Poll"><path codeLine="39" d="M236.67,300.42 C239.24,317.36 242.1,336.24 244.77,353.82 " fill="none" id="Session-backto-Poll" style="stroke:#181818;stroke-width:1.0;"/><polygon fill="#181818" points="235.97,295.77,233.352,305.2645,236.7131,300.7145,241.2632,304.0756,235.97,295.77" style="stroke:#181818;stroke-width:1.0;"/><text fill="#000000" font-family="sans-serif" font-size="13" lengthAdjust="spacing" textLength="8" x="228.2159" y="315.0917">1</text><text fill="#000000" font-family="sans-serif" font-size="13" lengthAdjust="spacing" textLength="20" x="222.612" y="343.4318">0:n</text></g><!--MD5=[a21f2bfb66842abc54ee83b4f494a8f5]
reverse link Poll to Vote--><g id="link_Poll_Vote"><path codeLine="40" d="M279.56,490.32 C285.79,507.81 292.44,526.46 298.57,543.65 " fill="none" id="Poll-backto-Vote" style="stroke:#181818;stroke-width:1.0;"/><polygon fill="#181818" points="277.97,485.86,277.2338,495.6813,279.6535,490.5681,284.7667,492.9877,277.97,485.86" style="stroke:#181818;stroke-width:1.0;"/><text fill="#000000" font-family="sans-serif" font-size="13" lengthAdjust="spacing" textLength="8" x="271.5338" y="504.979">1</text><text fill="#000000" font-family="sans-serif" font-size="13" lengthAdjust="spacing" textLength="20" x="274.9683" y="533.2432">0:n</text></g><!--MD5=[b1087ae8c6d69f7da64aef1cdb124f64]
link Vote to User--><g id="link_Vote_User"><path codeLine="41" d="M341.4,543.6 C346.38,524.6 351.01,503.63 353.5,484 C369.66,356.68 374.1,314.07 321.5,197 C313.05,178.2 301.34,159.56 289.07,142.65 " fill="none" id="Vote-to-User" style="stroke:#181818;stroke-width:1.0;"/><polygon fill="#181818" points="286.14,138.68,288.2411,148.3021,289.0987,142.7107,294.6901,143.5682,286.14,138.68" style="stroke:#181818;stroke-width:1.0;"/><text fill="#000000" font-family="sans-serif" font-size="13" lengthAdjust="spacing" textLength="20" x="322.4828" y="533.1878">0.n</text><text fill="#000000" font-family="sans-serif" font-size="13" lengthAdjust="spacing" textLength="8" x="283.0084" y="158.0012">1</text></g><!--MD5=[3ecd7ae037c07a471172817146980581]
@startuml "planning model"
class User {
    user_id: string
    username: sting
    email: string
    created_at: datatime
    origin: string
}

class Session {
    session_id: string
    host_id: string
    created_at: datetime
}

class UserSession {
    user_id: string
    session_id: string
}

class Poll {
    poll_id: string
    session_id: string
    votes_visible: boolean
    description: string
    created_at: datetime
}

class Vote {
    vote_id: string
    user_id: string
    poll_id: string
    value: number
    created_at: DateTime
}

User "1" <- - "0:n" UserSession
Session "1" <- - "0:n" UserSession
User "1" <- - "0:n" Session
Session "1" <- - "0:n" Poll
Poll "1" <- - "0:n" Vote 
Vote "0.n" - -> "1" User

@enduml

PlantUML version 1.2022.7(Mon Aug 22 19:01:30 CEST 2022)
(GPL source distribution)
Java Runtime: OpenJDK Runtime Environment
JVM: OpenJDK 64-Bit Server VM
Default Encoding: UTF-8
Language: en
Country: GB
--></g></svg>