<svg version="1.1" xmlns="http://www.w3.org/2000/svg" viewBox="0 0 379.340087890625 409.0243835449219" width="758.68017578125" height="818.0487670898438">
    <!-- svg-source:excalidraw -->
    
    <defs>
      <style>
        @font-face {
          font-family: "Virgil";
          src: url("https://excalidraw.com/Virgil.woff2");
        }
        @font-face {
          font-family: "Cascadia";
          src: url("https://excalidraw.com/Cascadia.woff2");
        }
      </style>
    </defs>
    <rect x="0" y="0" width="379.340087890625" height="409.0243835449219" fill="#ffffff"></rect><g stroke-linecap="round" transform="translate(10 63.61473083496094) rotate(0 179.6700439453125 167.70482635498047)"><path d="M0.03 -1.21 C92.12 1.89, 181.16 0.77, 359.15 -0.14 M-0.63 -0.38 C95.3 0.12, 191.64 -0.23, 359.22 0.09 M360.22 -0.32 C361.99 115.87, 360.75 231.63, 360.47 334.07 M359.79 -0.05 C357.21 122.25, 358.15 244.72, 359.45 334.97 M360.01 336.66 C280.04 336.22, 202.72 334.69, 1.13 334.59 M358.88 334.83 C251.77 333.62, 145.14 333.36, -0.4 335.03 M-0.19 336.43 C-0.06 248.89, -0.15 164.07, 0.67 1.2 M0.23 335.09 C0.18 235.45, 0.53 135.47, -0.21 0.66" stroke="#000000" stroke-width="1" fill="none"></path></g><g transform="translate(155.21157836914062 10) rotate(0 24.5 12.5)"><text x="0" y="18" font-family="Virgil, Segoe UI Emoji" font-size="20px" fill="#000000" text-anchor="start" style="white-space: pre;" direction="ltr">Login</text></g><g stroke-linecap="round" transform="translate(71.29180908203125 105.72238159179688) rotate(0 41.44087219238281 18.671966552734375)"><path d="M9.34 0 M9.34 0 C26.87 0.8, 46.71 -0.43, 73.55 0 M9.34 0 C28.1 -0.4, 45.88 -0.04, 73.55 0 M73.55 0 C81.01 1.95, 82.31 4.39, 82.88 9.34 M73.55 0 C81.13 -1.16, 83.72 4.25, 82.88 9.34 M82.88 9.34 C83.44 15.36, 82.24 21.82, 82.88 28.01 M82.88 9.34 C82.69 13.52, 82.52 17.31, 82.88 28.01 M82.88 28.01 C84.82 32.57, 80.04 37.05, 73.55 37.34 M82.88 28.01 C82.44 35.63, 78.27 38.97, 73.55 37.34 M73.55 37.34 C52.97 38.4, 30.39 37.9, 9.34 37.34 M73.55 37.34 C53.45 36.42, 32.26 37.06, 9.34 37.34 M9.34 37.34 C3.72 36.46, 1.58 35.48, 0 28.01 M9.34 37.34 C4.07 39.47, -1.32 32.88, 0 28.01 M0 28.01 C-1.02 20.58, 1.61 17.78, 0 9.34 M0 28.01 C0.37 20.94, -0.38 14.25, 0 9.34 M0 9.34 C1.85 5.02, 2 0.74, 9.34 0 M0 9.34 C1.24 2.13, 2.99 1.33, 9.34 0" stroke="#000000" stroke-width="1" fill="none"></path></g><g transform="translate(80.23268127441406 111.89434814453125) rotate(0 32.5 12.5)"><text x="32.5" y="18" font-family="Virgil, Segoe UI Emoji" font-size="20px" fill="#000000" text-anchor="middle" style="white-space: pre;" direction="ltr">Github</text></g><g stroke-linecap="round" transform="translate(218.59532165527344 107.4749755859375) rotate(0 41.44087219238281 18.671966552734375)"><path d="M9.34 0 M9.34 0 C21.95 1.38, 37.59 0.63, 73.55 0 M9.34 0 C34.61 1.09, 60 -0.1, 73.55 0 M73.55 0 C77.96 1.87, 84.21 4.85, 82.88 9.34 M73.55 0 C78.62 0.91, 83.55 3.49, 82.88 9.34 M82.88 9.34 C84.8 12.94, 83.71 19.63, 82.88 28.01 M82.88 9.34 C82.22 13.39, 82.64 18.4, 82.88 28.01 M82.88 28.01 C82.04 33.79, 79.41 36.85, 73.55 37.34 M82.88 28.01 C82.67 34.49, 78.12 35.72, 73.55 37.34 M73.55 37.34 C61.65 36.67, 46.08 36.75, 9.34 37.34 M73.55 37.34 C49.44 37.31, 24.07 36.2, 9.34 37.34 M9.34 37.34 C3.89 36.69, 1 34.97, 0 28.01 M9.34 37.34 C4.16 39.63, -2.14 32.33, 0 28.01 M0 28.01 C-0.19 20.23, 0.28 13.49, 0 9.34 M0 28.01 C-0.11 21.85, -0.17 16.78, 0 9.34 M0 9.34 C-0.36 1.52, 5.06 -1.24, 9.34 0 M0 9.34 C0.59 5.25, 4.25 0.08, 9.34 0" stroke="#000000" stroke-width="1" fill="none"></path></g><g transform="translate(227.03619384765625 113.64694213867188) rotate(0 33 12.5)"><text x="33" y="18" font-family="Virgil, Segoe UI Emoji" font-size="20px" fill="#000000" text-anchor="middle" style="white-space: pre;" direction="ltr">Google</text></g><g stroke-linecap="round" transform="translate(42.5047607421875 247.90542602539062) rotate(0 152.970947265625 19.02935791015625)"><path d="M9.51 0 M9.51 0 C107.5 -2.22, 208.56 -1.17, 296.43 0 M9.51 0 C107.7 0.78, 207.15 1.86, 296.43 0 M296.43 0 C302.76 1.72, 304.2 1.99, 305.94 9.51 M296.43 0 C303.03 -1.53, 305.54 1.26, 305.94 9.51 M305.94 9.51 C304.75 15.66, 306.52 18.35, 305.94 28.54 M305.94 9.51 C305.31 14.1, 305.07 18.54, 305.94 28.54 M305.94 28.54 C307.75 34.53, 302.41 37.11, 296.43 38.06 M305.94 28.54 C307.35 35.21, 302.97 39.63, 296.43 38.06 M296.43 38.06 C224.88 38.82, 152.98 39.45, 9.51 38.06 M296.43 38.06 C213.38 37.14, 130.69 37.19, 9.51 38.06 M9.51 38.06 C1.39 36.47, -1.88 34.71, 0 28.54 M9.51 38.06 C1 37.41, -1.81 36.68, 0 28.54 M0 28.54 C1.35 23.09, 0.39 18.15, 0 9.51 M0 28.54 C0.66 24.75, 0.71 19.08, 0 9.51 M0 9.51 C-1.57 1.52, 4.51 0.91, 9.51 0 M0 9.51 C-0.9 4.48, 5.09 -1.32, 9.51 0" stroke="#000000" stroke-width="1" fill="none"></path></g><g transform="translate(44.700714111328125 216.32095336914062) rotate(0 25.5 12.5)"><text x="0" y="18" font-family="Virgil, Segoe UI Emoji" font-size="20px" fill="#000000" text-anchor="start" style="white-space: pre;" direction="ltr">Email</text></g><g stroke-linecap="round" transform="translate(44.068328857421875 315.3090515136719) rotate(0 153.64004516601562 23.508209228515625)"><path d="M11.79 0.94 L296.8 0.25 L302.83 3.06 L307.35 7.63 L306.04 38.72 L304.08 42.48 L295.63 48.86 L8.82 45.39 L2.87 44.44 L-0.06 40.61 L-0.57 12.04 L4.57 1.36 L10.86 1.75" stroke="none" stroke-width="0" fill="#40c057"></path><path d="M11.75 0 M11.75 0 C103.84 0.67, 194.81 1.96, 295.53 0 M11.75 0 C103.72 -1.08, 195.31 -1.14, 295.53 0 M295.53 0 C302.74 0.85, 307.92 4.38, 307.28 11.75 M295.53 0 C301.2 1, 306.38 3.88, 307.28 11.75 M307.28 11.75 C307.3 18.3, 308.29 24.97, 307.28 35.26 M307.28 11.75 C307.59 17.49, 306.96 24.7, 307.28 35.26 M307.28 35.26 C308.83 42.76, 301.45 46.41, 295.53 47.02 M307.28 35.26 C305.1 42.24, 305.53 48.32, 295.53 47.02 M295.53 47.02 C188.41 49.48, 81.03 47.78, 11.75 47.02 M295.53 47.02 C206.74 46.58, 120 46.45, 11.75 47.02 M11.75 47.02 C5.08 48.64, 1.89 44.35, 0 35.26 M11.75 47.02 C4.67 45.5, 1.56 44.32, 0 35.26 M0 35.26 C1.37 28.17, -0.99 21.72, 0 11.75 M0 35.26 C-0.35 28.23, 0.7 20.91, 0 11.75 M0 11.75 C-1.08 3.01, 4.09 0.87, 11.75 0 M0 11.75 C-0.49 1.83, 3.19 0.82, 11.75 0" stroke="#000000" stroke-width="1" fill="none"></path></g><g transform="translate(166.7083740234375 326.3172607421875) rotate(0 31 12.5)"><text x="31" y="18" font-family="Virgil, Segoe UI Emoji" font-size="20px" fill="#000000" text-anchor="middle" style="white-space: pre;" direction="ltr">Sign in</text></g></svg>