<?xml version="1.0" encoding="UTF-8" standalone="no"?><svg xmlns="http://www.w3.org/2000/svg" xmlns:xlink="http://www.w3.org/1999/xlink" contentStyleType="text/css" height="631px" preserveAspectRatio="none" style="width:240px;height:631px;background:#FFFFFF;" version="1.1" viewBox="0 0 240 631" width="240px" zoomAndPan="magnify"><defs/><g><!--MD5=[3fd616f346a44cd59a91eb10b19e157c]
class User--><g id="elem_User"><rect codeLine="1" fill="#F1F1F1" height="97.4648" id="User" rx="2.5" ry="2.5" style="stroke:#181818;stroke-width:0.5;" width="122" x="94" y="7"/><ellipse cx="135.55" cy="23" fill="#ADD1B2" rx="11" ry="11" style="stroke:#181818;stroke-width:1.0;"/><path d="M138.0231,29.1431 Q137.4421,29.4419 136.8029,29.5913 Q136.1638,29.7407 135.4582,29.7407 Q132.9514,29.7407 131.6315,28.0889 Q130.3117,26.437 130.3117,23.3159 Q130.3117,20.1865 131.6315,18.5347 Q132.9514,16.8828 135.4582,16.8828 Q136.1638,16.8828 136.8112,17.0322 Q137.4587,17.1816 138.0231,17.4805 L138.0231,20.2031 Q137.3923,19.6221 136.7988,19.3523 Q136.2053,19.0825 135.5744,19.0825 Q134.2297,19.0825 133.5449,20.1492 Q132.8601,21.2158 132.8601,23.3159 Q132.8601,25.4077 133.5449,26.4744 Q134.2297,27.541 135.5744,27.541 Q136.2053,27.541 136.7988,27.2712 Q137.3923,27.0015 138.0231,26.4204 Z " fill="#000000"/><text fill="#000000" font-family="sans-serif" font-size="14" lengthAdjust="spacing" textLength="31" x="155.45" y="28.291">User</text><line style="stroke:#181818;stroke-width:0.5;" x1="95" x2="215" y1="39" y2="39"/><text fill="#000000" font-family="sans-serif" font-size="14" lengthAdjust="spacing" textLength="98" x="100" y="56.5352">user_id: string</text><text fill="#000000" font-family="sans-serif" font-size="14" lengthAdjust="spacing" textLength="110" x="100" y="73.0234">username: sting</text><text fill="#000000" font-family="sans-serif" font-size="14" lengthAdjust="spacing" textLength="85" x="100" y="89.5117">email: string</text><line style="stroke:#181818;stroke-width:0.5;" x1="95" x2="215" y1="96.4648" y2="96.4648"/></g><!--MD5=[2ca1536628238a7dc78c5d90808014f9]
class Session--><g id="elem_Session"><rect codeLine="7" fill="#F1F1F1" height="97.4648" id="Session" rx="2.5" ry="2.5" style="stroke:#181818;stroke-width:0.5;" width="155" x="12.5" y="164"/><ellipse cx="59.75" cy="180" fill="#ADD1B2" rx="11" ry="11" style="stroke:#181818;stroke-width:1.0;"/><path d="M62.2231,186.1431 Q61.6421,186.4419 61.0029,186.5913 Q60.3638,186.7407 59.6582,186.7407 Q57.1514,186.7407 55.8315,185.0889 Q54.5117,183.437 54.5117,180.3159 Q54.5117,177.1865 55.8315,175.5347 Q57.1514,173.8828 59.6582,173.8828 Q60.3638,173.8828 61.0112,174.0322 Q61.6587,174.1816 62.2231,174.4805 L62.2231,177.2031 Q61.5923,176.6221 60.9988,176.3523 Q60.4053,176.0825 59.7744,176.0825 Q58.4297,176.0825 57.7449,177.1492 Q57.0601,178.2158 57.0601,180.3159 Q57.0601,182.4077 57.7449,183.4744 Q58.4297,184.541 59.7744,184.541 Q60.4053,184.541 60.9988,184.2712 Q61.5923,184.0015 62.2231,183.4204 Z " fill="#000000"/><text fill="#000000" font-family="sans-serif" font-size="14" lengthAdjust="spacing" textLength="52" x="80.25" y="185.291">Session</text><line style="stroke:#181818;stroke-width:0.5;" x1="13.5" x2="166.5" y1="196" y2="196"/><text fill="#000000" font-family="sans-serif" font-size="14" lengthAdjust="spacing" textLength="119" x="18.5" y="213.5352">session_id: string</text><text fill="#000000" font-family="sans-serif" font-size="14" lengthAdjust="spacing" textLength="98" x="18.5" y="230.0234">host_id: string</text><text fill="#000000" font-family="sans-serif" font-size="14" lengthAdjust="spacing" textLength="143" x="18.5" y="246.5117">created_at : datetime</text><line style="stroke:#181818;stroke-width:0.5;" x1="13.5" x2="166.5" y1="253.4648" y2="253.4648"/></g><!--MD5=[4f6f0724d4d64e3e528d49a4ed1939d0]
class Poll--><g id="elem_Poll"><rect codeLine="13" fill="#F1F1F1" height="130.4414" id="Poll" rx="2.5" ry="2.5" style="stroke:#181818;stroke-width:0.5;" width="162" x="7" y="321"/><ellipse cx="71.25" cy="337" fill="#ADD1B2" rx="11" ry="11" style="stroke:#181818;stroke-width:1.0;"/><path d="M73.7231,343.1431 Q73.1421,343.4419 72.5029,343.5913 Q71.8638,343.7407 71.1582,343.7407 Q68.6514,343.7407 67.3315,342.0889 Q66.0117,340.437 66.0117,337.3159 Q66.0117,334.1865 67.3315,332.5347 Q68.6514,330.8828 71.1582,330.8828 Q71.8638,330.8828 72.5112,331.0322 Q73.1587,331.1816 73.7231,331.4805 L73.7231,334.2031 Q73.0923,333.6221 72.4988,333.3523 Q71.9053,333.0825 71.2744,333.0825 Q69.9297,333.0825 69.2449,334.1492 Q68.5601,335.2158 68.5601,337.3159 Q68.5601,339.4077 69.2449,340.4744 Q69.9297,341.541 71.2744,341.541 Q71.9053,341.541 72.4988,341.2712 Q73.0923,341.0015 73.7231,340.4204 Z " fill="#000000"/><text fill="#000000" font-family="sans-serif" font-size="14" lengthAdjust="spacing" textLength="25" x="91.75" y="342.291">Poll</text><line style="stroke:#181818;stroke-width:0.5;" x1="8" x2="168" y1="353" y2="353"/><text fill="#000000" font-family="sans-serif" font-size="14" lengthAdjust="spacing" textLength="94" x="13" y="370.5352">poll_id: string</text><text fill="#000000" font-family="sans-serif" font-size="14" lengthAdjust="spacing" textLength="119" x="13" y="387.0234">session_id: string</text><text fill="#000000" font-family="sans-serif" font-size="14" lengthAdjust="spacing" textLength="150" x="13" y="403.5117">votes_visible: boolean</text><text fill="#000000" font-family="sans-serif" font-size="14" lengthAdjust="spacing" textLength="125" x="13" y="420">description: string</text><text fill="#000000" font-family="sans-serif" font-size="14" lengthAdjust="spacing" textLength="139" x="13" y="436.4883">created_at: datetime</text><line style="stroke:#181818;stroke-width:0.5;" x1="8" x2="168" y1="443.4414" y2="443.4414"/></g><!--MD5=[6987bc66bd8845192e2addfb47d98466]
class Vote--><g id="elem_Vote"><rect codeLine="21" fill="#F1F1F1" height="113.9531" id="Vote" rx="2.5" ry="2.5" style="stroke:#181818;stroke-width:0.5;" width="156" x="77" y="511"/><ellipse cx="135.25" cy="527" fill="#ADD1B2" rx="11" ry="11" style="stroke:#181818;stroke-width:1.0;"/><path d="M137.7231,533.1431 Q137.1421,533.4419 136.5029,533.5913 Q135.8638,533.7407 135.1582,533.7407 Q132.6514,533.7407 131.3315,532.0889 Q130.0117,530.437 130.0117,527.3159 Q130.0117,524.1865 131.3315,522.5347 Q132.6514,520.8828 135.1582,520.8828 Q135.8638,520.8828 136.5112,521.0322 Q137.1587,521.1816 137.7231,521.4805 L137.7231,524.2031 Q137.0923,523.6221 136.4988,523.3523 Q135.9053,523.0825 135.2744,523.0825 Q133.9297,523.0825 133.2449,524.1492 Q132.5601,525.2158 132.5601,527.3159 Q132.5601,529.4077 133.2449,530.4744 Q133.9297,531.541 135.2744,531.541 Q135.9053,531.541 136.4988,531.2712 Q137.0923,531.0015 137.7231,530.4204 Z " fill="#000000"/><text fill="#000000" font-family="sans-serif" font-size="14" lengthAdjust="spacing" textLength="31" x="155.75" y="532.291">Vote</text><line style="stroke:#181818;stroke-width:0.5;" x1="78" x2="232" y1="543" y2="543"/><text fill="#000000" font-family="sans-serif" font-size="14" lengthAdjust="spacing" textLength="97" x="83" y="560.5352">vote_id: string</text><text fill="#000000" font-family="sans-serif" font-size="14" lengthAdjust="spacing" textLength="98" x="83" y="577.0234">user_id: string</text><text fill="#000000" font-family="sans-serif" font-size="14" lengthAdjust="spacing" textLength="94" x="83" y="593.5117">poll_id: string</text><text fill="#000000" font-family="sans-serif" font-size="14" lengthAdjust="spacing" textLength="144" x="83" y="610">created_at: DateTime</text><line style="stroke:#181818;stroke-width:0.5;" x1="78" x2="232" y1="616.9531" y2="616.9531"/></g><!--MD5=[4a7b43bfd2ba73c074c79b7f2a65b65c]
reverse link User to Session--><g id="link_User_Session"><path codeLine="28" d="M132.52,110.1 C125.23,127.49 117.19,146.67 110.08,163.62 " fill="none" id="User-backto-Session" style="stroke:#181818;stroke-width:1.0;"/><polygon fill="#181818" points="134.38,105.67,127.2187,112.4314,132.4519,110.2833,134.6,115.5164,134.38,105.67" style="stroke:#181818;stroke-width:1.0;"/><text fill="#000000" font-family="sans-serif" font-size="13" lengthAdjust="spacing" textLength="8" x="123.4406" y="125.0917">1</text><text fill="#000000" font-family="sans-serif" font-size="13" lengthAdjust="spacing" textLength="20" x="91.4975" y="153.2491">0:n</text></g><!--MD5=[c363418444fdae979780fa6e403f7711]
reverse link Session to Poll--><g id="link_Session_Poll"><path codeLine="29" d="M89.37,267.42 C89.17,284.36 88.95,303.24 88.75,320.82 " fill="none" id="Session-backto-Poll" style="stroke:#181818;stroke-width:1.0;"/><polygon fill="#181818" points="89.43,262.79,85.3018,271.7319,89.3586,267.7895,93.301,271.8462,89.43,262.79" style="stroke:#181818;stroke-width:1.0;"/><text fill="#000000" font-family="sans-serif" font-size="13" lengthAdjust="spacing" textLength="8" x="80.7703" y="282.0917">1</text><text fill="#000000" font-family="sans-serif" font-size="13" lengthAdjust="spacing" textLength="20" x="67.7383" y="310.4318">0:n</text></g><!--MD5=[a21f2bfb66842abc54ee83b4f494a8f5]
reverse link Poll to Vote--><g id="link_Poll_Vote"><path codeLine="30" d="M114.21,457.43 C120.79,475.1 127.77,493.84 134.05,510.73 " fill="none" id="Poll-backto-Vote" style="stroke:#181818;stroke-width:1.0;"/><polygon fill="#181818" points="112.53,452.89,111.9185,462.7199,114.2731,457.5763,119.4166,459.9309,112.53,452.89" style="stroke:#181818;stroke-width:1.0;"/><text fill="#000000" font-family="sans-serif" font-size="13" lengthAdjust="spacing" textLength="8" x="106.1875" y="472.0234">1</text><text fill="#000000" font-family="sans-serif" font-size="13" lengthAdjust="spacing" textLength="20" x="110.278" y="500.4263">0:n</text></g><!--MD5=[b1087ae8c6d69f7da64aef1cdb124f64]
link Vote to User--><g id="link_Vote_User"><path codeLine="31" d="M173.81,510.7 C179.19,491.93 184.32,470.77 187,451 C204.12,324.59 203.11,290.27 185,164 C182.46,146.32 177.87,127.43 173.02,110.5 " fill="none" id="Vote-to-User" style="stroke:#181818;stroke-width:1.0;"/><polygon fill="#181818" points="171.65,105.81,170.33,115.57,173.05,110.61,178.01,113.33,171.65,105.81" style="stroke:#181818;stroke-width:1.0;"/><text fill="#000000" font-family="sans-serif" font-size="13" lengthAdjust="spacing" textLength="20" x="154.8837" y="500.3926">0.n</text><text fill="#000000" font-family="sans-serif" font-size="13" lengthAdjust="spacing" textLength="8" x="165.0148" y="125.1949">1</text></g><!--MD5=[c6f6a0e5252ec13bb974b1b1029e774b]
@startuml "planning model"
class User {
    user_id: string
    username: sting
    email: string
}

class Session {
    session_id: string
    host_id: string
    created_at : datetime
}

class Poll {
    poll_id: string
    session_id: string
    votes_visible: boolean
    description: string
    created_at: datetime
}

class Vote {
    vote_id: string
    user_id: string
    poll_id: string
    created_at: DateTime
}

User "1" <- - "0:n" Session
Session "1" <- - "0:n" Poll
Poll "1" <- - "0:n" Vote 
Vote "0.n" - -> "1" User

@enduml

PlantUML version 1.2022.7(Mon Aug 22 19:01:30 CEST 2022)
(GPL source distribution)
Java Runtime: OpenJDK Runtime Environment
JVM: OpenJDK 64-Bit Server VM
Default Encoding: UTF-8
Language: en
Country: GB
--></g></svg>