<svg version="1.1" xmlns="http://www.w3.org/2000/svg" viewBox="0 0 838.9023913136575 670.5047515593894" width="1677.804782627315" height="1341.0095031187789">
    <!-- svg-source:excalidraw -->
    
    <defs>
      <style>
        @font-face {
          font-family: "Virgil";
          src: url("https://excalidraw.com/Virgil.woff2");
        }
        @font-face {
          font-family: "Cascadia";
          src: url("https://excalidraw.com/Cascadia.woff2");
        }
      </style>
    </defs>
    <rect x="0" y="0" width="838.9023913136575" height="670.5047515593894" fill="#ffffff"></rect><g stroke-linecap="round" transform="translate(10 81.37892039299652) rotate(0 409.45119565682876 289.10659289946943)"><path d="M0.13 0.58 C231.67 0.42, 464.33 -0.13, 818.62 -0.57 M0 -0.05 C174.98 -1.7, 349.51 -1.84, 818.89 -0.21 M819.45 -0.74 C818.49 124.72, 818.52 251.06, 819.18 578.13 M819.24 0.24 C816.98 120.59, 816.84 240.77, 818.98 578.17 M819.6 577.63 C585.71 577.6, 351.36 576.99, -0.43 578.89 M819.25 577.86 C509.47 581.11, 199.94 581.5, -0.35 577.82 M0.7 578.69 C-1.03 399.55, -1.09 220.03, -0.54 -0.48 M-0.14 578.14 C0.76 460.11, 0.22 341.13, -0.31 -0.34" stroke="#000000" stroke-width="1" fill="none"></path></g><g stroke-linecap="round"><g transform="translate(173.02008056640625 131.49403269768396) rotate(0 -0.64519899262541 264.6499662823551)"><path d="M0.2 0.88 C0.04 89.03, -1.55 441.12, -1.78 529.01 M-1.15 0.29 C-0.86 88.12, 0.63 439.22, 0.48 527.44" stroke="#000000" stroke-width="1" fill="none"></path></g></g><g stroke-linecap="round" transform="translate(10.86578369140625 79.87446482659027) rotate(0 408.7773645404234 32.63043212890625)"><path d="M-0.87 -1.33 L818.66 -0.85 L818.86 67.14 L-1.95 64.47" stroke="none" stroke-width="0" fill="#ced4da"></path><path d="M-0.58 0.7 C252.25 -2.23, 504.54 -2.96, 816.86 0.02 M0.33 0.13 C291.27 0.36, 582.11 0.16, 817.22 -0.19 M819.21 -1.87 C819.73 17.99, 818.7 35.11, 815.71 63.68 M817.32 0.92 C817.52 25.39, 818.32 48.95, 817.41 64.77 M817.85 65.53 C593.86 62.54, 370.84 63.55, 0.63 64.86 M817.78 64.98 C493.3 62.46, 168 61.95, 0.04 65.43 M-0.16 65.6 C-0.89 42.02, -1.93 20.54, -1.9 -0.43 M0.66 66.19 C-0.47 49.58, -0.56 33.73, -0.41 0.29" stroke="#000000" stroke-width="1" fill="none"></path></g><g stroke-linecap="round" transform="translate(24.8016357421875 94.26969798088709) rotate(0 64.515625 17.5)"><path d="M9.08 1.46 L122.67 2.3 L128.09 5.32 L127.79 28.65 L122.37 34.51 L121.4 35 L4.7 36.08 L1.2 31.12 L-0.03 8.68 L1.13 0.53 L7.82 -0.59" stroke="none" stroke-width="0" fill="#40c057"></path><path d="M8.75 0 M8.75 0 C48.01 0.81, 91.33 -0.23, 120.28 0 M8.75 0 C41.82 1.74, 73.96 0.64, 120.28 0 M120.28 0 C127.96 -1.18, 130.74 3.33, 129.03 8.75 M120.28 0 C125.84 -0.34, 127.9 2.29, 129.03 8.75 M129.03 8.75 C129.49 14.29, 128.17 21.34, 129.03 26.25 M129.03 8.75 C130.02 16.24, 128.39 22.69, 129.03 26.25 M129.03 26.25 C127.62 33.83, 126.65 33.25, 120.28 35 M129.03 26.25 C126.76 32.3, 127.07 35.77, 120.28 35 M120.28 35 C77.38 34.6, 32.33 33.56, 8.75 35 M120.28 35 C92.8 34.41, 66.43 35.43, 8.75 35 M8.75 35 C4.77 33.61, -0.67 30.51, 0 26.25 M8.75 35 C0.98 34.06, 0.66 31.08, 0 26.25 M0 26.25 C1.05 23.81, -1.8 17.39, 0 8.75 M0 26.25 C0.62 21.35, -0.55 14.89, 0 8.75 M0 8.75 C-1.77 2.84, 2.82 0.38, 8.75 0 M0 8.75 C-0.72 2.15, 2.54 -1.28, 8.75 0" stroke="#000000" stroke-width="1" fill="none"></path></g><g transform="translate(47.8172607421875 99.26969798088709) rotate(0 41.5 12.5)"><text x="41.5" y="18" font-family="Virgil, Segoe UI Emoji" font-size="20px" fill="#000000" text-anchor="middle" style="white-space: pre;" direction="ltr">New Poll</text></g><g transform="translate(363.96582031249955 96.20674021721521) rotate(0 62 12.5)"><text x="0" y="18" font-family="Virgil, Segoe UI Emoji" font-size="20px" fill="#000000" text-anchor="start" style="white-space: pre;" direction="ltr">Frans (host)</text></g><g stroke-linecap="round" transform="translate(18.098191302164196 161.69406250569142) rotate(0 73.09800488673898 37.820580622592956)"><path d="M18.91 0 M18.91 0 C50.12 0.31, 84.57 -0.96, 127.29 0 M18.91 0 C60.56 -0.59, 101.77 -1.86, 127.29 0 M127.29 0 C138.31 1.52, 147.9 7.49, 146.2 18.91 M127.29 0 C139.35 2.12, 144.84 8.27, 146.2 18.91 M146.2 18.91 C145.16 30.49, 147.89 41.7, 146.2 56.73 M146.2 18.91 C145.9 31.11, 147.17 45.18, 146.2 56.73 M146.2 56.73 C145.2 71.28, 141.64 73.86, 127.29 75.64 M146.2 56.73 C147.5 67.72, 141.9 76.25, 127.29 75.64 M127.29 75.64 C105.07 76.41, 82.95 76.93, 18.91 75.64 M127.29 75.64 C94.89 74.79, 63.37 74.52, 18.91 75.64 M18.91 75.64 C5.88 74.34, -0.7 68.97, 0 56.73 M18.91 75.64 C7.83 77.77, -1.6 68.57, 0 56.73 M0 56.73 C0.89 47.49, -1.02 41.09, 0 18.91 M0 56.73 C-1.22 46.59, -0.01 36.89, 0 18.91 M0 18.91 C1.35 7.57, 8.07 -1.4, 18.91 0 M0 18.91 C-0.07 4.27, 6.21 -0.11, 18.91 0" stroke="#000000" stroke-width="1" fill="none"></path></g><g transform="translate(42.19619618890465 174.51464312828426) rotate(0 49 25)"><text x="49" y="18" font-family="Virgil, Segoe UI Emoji" font-size="20px" fill="#000000" text-anchor="middle" style="white-space: pre;" direction="ltr">Story-XXX</text><text x="49" y="43" font-family="Virgil, Segoe UI Emoji" font-size="20px" fill="#000000" text-anchor="middle" style="white-space: pre;" direction="ltr">Vote: 5</text></g><g stroke-linecap="round" transform="translate(17.04207752862567 253.59271245897486) rotate(0 73.09800488673898 37.820580622592956)"><path d="M18.91 0 M18.91 0 C43.8 -1.54, 67.6 -1.55, 127.29 0 M18.91 0 C60.69 -1.3, 101.89 0.38, 127.29 0 M127.29 0 C141.6 1.19, 145.72 8.15, 146.2 18.91 M127.29 0 C138.54 1.97, 146.67 6.03, 146.2 18.91 M146.2 18.91 C147.74 28.24, 146.75 41.15, 146.2 56.73 M146.2 18.91 C146.88 28.39, 145.54 37.27, 146.2 56.73 M146.2 56.73 C147.94 67.56, 141.03 74.23, 127.29 75.64 M146.2 56.73 C148.2 69.95, 137.88 73.37, 127.29 75.64 M127.29 75.64 C95.53 77.2, 60.1 76.34, 18.91 75.64 M127.29 75.64 C95.87 73.96, 65.44 74.26, 18.91 75.64 M18.91 75.64 C5.6 75.28, 1.33 71.19, 0 56.73 M18.91 75.64 C4.7 74.87, -1.81 67.4, 0 56.73 M0 56.73 C-1.44 48.03, -0.96 38.43, 0 18.91 M0 56.73 C0.61 41.48, 1.04 27.58, 0 18.91 M0 18.91 C1.76 4.9, 6.24 -1.77, 18.91 0 M0 18.91 C-0.09 6.19, 6.75 -0.72, 18.91 0" stroke="#000000" stroke-width="1" fill="none"></path></g><g transform="translate(41.140082415364304 266.4132930815677) rotate(0 49 25)"><text x="49" y="18" font-family="Virgil, Segoe UI Emoji" font-size="20px" fill="#000000" text-anchor="middle" style="white-space: pre;" direction="ltr">Story-XXX</text><text x="49" y="43" font-family="Virgil, Segoe UI Emoji" font-size="20px" fill="#000000" text-anchor="middle" style="white-space: pre;" direction="ltr">Vote: 1</text></g><g stroke-linecap="round" transform="translate(17.5452003860064 434.4401447300169) rotate(0 73.09800488673898 37.820580622592956)"><path d="M18.91 0 M18.91 0 C49.89 -0.86, 79.28 1.34, 127.29 0 M18.91 0 C54.38 1.76, 92.29 1.59, 127.29 0 M127.29 0 C139.42 1.85, 145.02 8.02, 146.2 18.91 M127.29 0 C140.37 -0.27, 145.85 5.17, 146.2 18.91 M146.2 18.91 C147.26 29.91, 145.12 38.72, 146.2 56.73 M146.2 18.91 C146.02 29.17, 147.39 36.61, 146.2 56.73 M146.2 56.73 C147.33 67.93, 141.64 76.17, 127.29 75.64 M146.2 56.73 C144.19 67.06, 140.1 76.6, 127.29 75.64 M127.29 75.64 C90.98 76.62, 54.68 74.82, 18.91 75.64 M127.29 75.64 C101.9 73.96, 76.6 74.43, 18.91 75.64 M18.91 75.64 C7.63 77.5, -1.39 68.67, 0 56.73 M18.91 75.64 C4.5 73.7, -0.94 70, 0 56.73 M0 56.73 C-0.6 48.34, 2.13 35.38, 0 18.91 M0 56.73 C0.58 47.52, 0.79 36.34, 0 18.91 M0 18.91 C-0.06 4.53, 6.23 -0.09, 18.91 0 M0 18.91 C0.44 5.59, 5.54 -0.37, 18.91 0" stroke="#000000" stroke-width="1" fill="none"></path></g><g transform="translate(41.643205272745035 447.26072535260977) rotate(0 49 25)"><text x="49" y="18" font-family="Virgil, Segoe UI Emoji" font-size="20px" fill="#000000" text-anchor="middle" style="white-space: pre;" direction="ltr">Story-XXX</text><text x="49" y="43" font-family="Virgil, Segoe UI Emoji" font-size="20px" fill="#000000" text-anchor="middle" style="white-space: pre;" direction="ltr">Vote: 8</text></g><g stroke-linecap="round" transform="translate(18.211311548138838 341.8663414464722) rotate(0 73.09800488673898 37.820580622592956)"><path d="M18.91 0 M18.91 0 C43.09 1.34, 64.5 0.8, 127.29 0 M18.91 0 C42.3 -0.23, 63.74 0.1, 127.29 0 M127.29 0 C138.71 1.71, 146.61 6.07, 146.2 18.91 M127.29 0 C139.55 -1.14, 145.57 8.3, 146.2 18.91 M146.2 18.91 C144.93 26.67, 145.25 37.78, 146.2 56.73 M146.2 18.91 C146.88 32.32, 146.58 46.81, 146.2 56.73 M146.2 56.73 C147.94 69.87, 138.15 73.66, 127.29 75.64 M146.2 56.73 C146.41 70.3, 140.66 77.66, 127.29 75.64 M127.29 75.64 C87.99 74.35, 47.97 74.63, 18.91 75.64 M127.29 75.64 C104.73 74.76, 83.54 75.86, 18.91 75.64 M18.91 75.64 C4.91 74.97, -1.57 67.65, 0 56.73 M18.91 75.64 C5.37 76.3, -1 67.8, 0 56.73 M0 56.73 C2.04 41.35, -0.63 30.34, 0 18.91 M0 56.73 C0.63 46.04, -0.29 35.87, 0 18.91 M0 18.91 C-0.08 6.21, 6.69 -0.62, 18.91 0 M0 18.91 C-0.76 5.93, 5.02 -1.89, 18.91 0" stroke="#000000" stroke-width="1" fill="none"></path></g><g transform="translate(42.30931643487747 354.686922069065) rotate(0 49 25)"><text x="49" y="18" font-family="Virgil, Segoe UI Emoji" font-size="20px" fill="#000000" text-anchor="middle" style="white-space: pre;" direction="ltr">Story-XXX</text><text x="49" y="43" font-family="Virgil, Segoe UI Emoji" font-size="20px" fill="#000000" text-anchor="middle" style="white-space: pre;" direction="ltr">Vote: 3</text></g><g stroke-linecap="round" transform="translate(17.003157514935083 525.8461183244387) rotate(0 73.09800488673898 37.820580622592956)"><path d="M18.91 0 M18.91 0 C42 -0.39, 61.87 -1.76, 127.29 0 M18.91 0 C59.41 0.28, 99.8 0.21, 127.29 0 M127.29 0 C140.3 -0.24, 145.9 5.32, 146.2 18.91 M127.29 0 C139.27 2, 144.52 7.15, 146.2 18.91 M146.2 18.91 C144.84 33.21, 147.49 43.15, 146.2 56.73 M146.2 18.91 C147.1 33.22, 147.4 49.21, 146.2 56.73 M146.2 56.73 C144.45 67.36, 140.08 76.48, 127.29 75.64 M146.2 56.73 C146.97 71.35, 141.27 75.46, 127.29 75.64 M127.29 75.64 C91.6 73.66, 56.73 74.42, 18.91 75.64 M127.29 75.64 C102.47 76.37, 75.63 75.11, 18.91 75.64 M18.91 75.64 C4.73 73.95, -0.81 69.91, 0 56.73 M18.91 75.64 C5.3 74.11, 1.27 68.36, 0 56.73 M0 56.73 C-1.15 43.39, -1.07 30.43, 0 18.91 M0 56.73 C-0.37 42.11, -0.37 29.2, 0 18.91 M0 18.91 C0.38 5.68, 5.64 -0.33, 18.91 0 M0 18.91 C-1.28 4.41, 4.01 -1.45, 18.91 0" stroke="#000000" stroke-width="1" fill="none"></path></g><g transform="translate(41.10116240167554 538.6666989470316) rotate(0 49 25)"><text x="49" y="18" font-family="Virgil, Segoe UI Emoji" font-size="20px" fill="#000000" text-anchor="middle" style="white-space: pre;" direction="ltr">Story-XXX</text><text x="49" y="43" font-family="Virgil, Segoe UI Emoji" font-size="20px" fill="#000000" text-anchor="middle" style="white-space: pre;" direction="ltr">Vote: 5</text></g><g transform="translate(396.31734109462445 10) rotate(0 41.5 12.5)"><text x="0" y="18" font-family="Virgil, Segoe UI Emoji" font-size="20px" fill="#000000" text-anchor="start" style="white-space: pre;" direction="ltr">New Poll</text></g><g stroke-linecap="round" transform="translate(286.0376819450373 288.43905805366734) rotate(0 208.0000000000001 33)"><path d="M14.85 -1.57 L401.4 -0.31 L412.07 2.94 L414.72 8.89 L415.64 52.49 L412.87 62.08 L407.93 63.41 L400.83 67.49 L14.14 65.98 L8.41 63.81 L0.83 57.07 L1.7 17.64 L1.74 8.27 L5.11 6.04 L7.79 1.76 L18.39 0.25" stroke="none" stroke-width="0" fill="#40c057"></path><path d="M16.5 0 M16.5 0 C150.82 1.01, 288.25 0.45, 399.5 0 M16.5 0 C103.02 -0.21, 190.07 -0.26, 399.5 0 M399.5 0 C410.43 1.68, 417.42 4.5, 416 16.5 M399.5 0 C411.45 -0.57, 414.71 6.39, 416 16.5 M416 16.5 C416.51 30.03, 416.01 42.07, 416 49.5 M416 16.5 C415.44 27.8, 416.23 40.63, 416 49.5 M416 49.5 C415.12 59.41, 411.36 65.39, 399.5 66 M416 49.5 C416.28 61.6, 411.46 65.05, 399.5 66 M399.5 66 C282.64 69.45, 167.34 68, 16.5 66 M399.5 66 C251.53 67.52, 105.09 68.03, 16.5 66 M16.5 66 C6.16 65.71, -1.6 61.84, 0 49.5 M16.5 66 C4.08 64, -1.21 62.03, 0 49.5 M0 49.5 C-1.16 40.96, -1.11 34.69, 0 16.5 M0 49.5 C-0.6 41.81, -0.8 33.96, 0 16.5 M0 16.5 C-1.8 4.03, 6.58 -0.29, 16.5 0 M0 16.5 C-1.01 6.09, 7.67 0.31, 16.5 0" stroke="#000000" stroke-width="1" fill="none"></path></g><g transform="translate(442.0376819450378 308.93905805366734) rotate(0 52 12.5)"><text x="52" y="18" font-family="Virgil, Segoe UI Emoji" font-size="20px" fill="#000000" text-anchor="middle" style="white-space: pre;" direction="ltr">Start Poll</text></g><g stroke-linecap="round" transform="translate(284.5577014762873 207.14346479194873) rotate(0 208.87832641601574 29.88546752929686)"><path d="M14.94 0 M14.94 0 C120.16 1.12, 225.62 0.84, 402.81 0 M14.94 0 C150.08 -0.98, 286.57 -0.93, 402.81 0 M402.81 0 C413.02 1.96, 417.88 4.78, 417.76 14.94 M402.81 0 C413.18 1.95, 419.06 5.8, 417.76 14.94 M417.76 14.94 C416.41 23.12, 419.79 30.09, 417.76 44.83 M417.76 14.94 C416.68 26.45, 418.44 36.54, 417.76 44.83 M417.76 44.83 C416.28 54.91, 412.94 59.14, 402.81 59.77 M417.76 44.83 C417.65 55.37, 412.48 59.69, 402.81 59.77 M402.81 59.77 C254.37 58.34, 104.29 59.09, 14.94 59.77 M402.81 59.77 C250.06 58.23, 97.09 57.95, 14.94 59.77 M14.94 59.77 C6.08 59.61, -0.59 53.72, 0 44.83 M14.94 59.77 C4.05 60.36, 1.65 53.77, 0 44.83 M0 44.83 C0.11 38.45, 0.71 29.34, 0 14.94 M0 44.83 C-0.23 36.75, 0.62 26.45, 0 14.94 M0 14.94 C1.7 3.97, 6.81 -1.72, 14.94 0 M0 14.94 C-2.17 6.94, 4.78 0.76, 14.94 0" stroke="#000000" stroke-width="1" fill="none"></path></g><g transform="translate(296.0360339958188 182.95248578804248) rotate(0 74.5 12.5)"><text x="0" y="18" font-family="Virgil, Segoe UI Emoji" font-size="20px" fill="#000000" text-anchor="start" style="white-space: pre;" direction="ltr">Poll description</text></g></svg>