<svg version="1.1" xmlns="http://www.w3.org/2000/svg" viewBox="0 0 505.01153564453125 575.3478393554688" width="1010.0230712890625" height="1150.6956787109375">
    <!-- svg-source:excalidraw -->
    
    <defs>
      <style>
        @font-face {
          font-family: "Virgil";
          src: url("https://excalidraw.com/Virgil.woff2");
        }
        @font-face {
          font-family: "Cascadia";
          src: url("https://excalidraw.com/Cascadia.woff2");
        }
      </style>
    </defs>
    <rect x="0" y="0" width="505.01153564453125" height="575.3478393554688" fill="#ffffff"></rect><g stroke-linecap="round" transform="translate(10 76.83013916015625) rotate(0 242.50576782226562 244.25885009765625)"><path d="M0.22 0.52 C110.55 -1.25, 220.57 -1.32, 485.08 -0.58 M0.38 -0.23 C98.59 -1.83, 197.36 -1.29, 485.26 0.3 M484.37 0.78 C484.68 167.61, 485.07 336.26, 484.68 488.27 M484.89 -0.08 C484.11 177.98, 484.61 356.8, 485.06 488.15 M484.97 489.15 C339.05 488.64, 191.26 488.15, 0.02 488.93 M484.63 488.92 C329.86 489.05, 173.7 489.1, -0.31 488.46 M0.16 488.55 C0.86 356.59, 1.23 226.14, 0.34 0.44 M-0.23 488.16 C0.48 360.44, 0.13 231.36, 0.08 0.11" stroke="#000000" stroke-width="1" fill="none"></path></g><g transform="translate(194.4749755859375 10) rotate(0 58.5 12.5)"><text x="0" y="18" font-family="Virgil, Segoe UI Emoji" font-size="20px" fill="#000000" text-anchor="start" style="white-space: pre;" direction="ltr">Create/Join</text></g><g stroke-linecap="round" transform="translate(40.4010009765625 436.01287841796875) rotate(0 208 33)"><path d="M17.2 -1.21 L404.83 -0.08 L410.57 4.47 L415.59 10.44 L416.33 53.31 L413.64 61.18 L408.67 66.83 L397.78 67.54 L12.62 64.5 L7.6 63.4 L2.53 56.37 L-0.96 14.55 L-0.04 11.22 L2.3 5.24 L7.64 0.43 L14.94 1.88" stroke="none" stroke-width="0" fill="#40c057"></path><path d="M16.5 0 M16.5 0 C122.39 -1.79, 226.75 -2.71, 399.5 0 M16.5 0 C98.19 2.55, 178.61 2.53, 399.5 0 M399.5 0 C411.9 -1.65, 415.55 4.18, 416 16.5 M399.5 0 C408.71 -0.93, 417.59 7.18, 416 16.5 M416 16.5 C414.24 22.59, 414.42 27.84, 416 49.5 M416 16.5 C416.22 24.22, 416.31 30.97, 416 49.5 M416 49.5 C415.22 59.73, 409.87 65.09, 399.5 66 M416 49.5 C418.11 60.52, 411.7 67.57, 399.5 66 M399.5 66 C321.37 66.71, 246.28 67.78, 16.5 66 M399.5 66 C297.75 65.38, 196.94 65.93, 16.5 66 M16.5 66 C3.97 65.81, -1.36 61.01, 0 49.5 M16.5 66 C4.04 66.86, -1.1 59.25, 0 49.5 M0 49.5 C0.39 41.29, 0.49 33.98, 0 16.5 M0 49.5 C0.11 43.06, 0.28 35.96, 0 16.5 M0 16.5 C1.21 5.49, 4.59 1.02, 16.5 0 M0 16.5 C0.91 4.84, 4.62 2.1, 16.5 0" stroke="#000000" stroke-width="1" fill="none"></path></g><g transform="translate(189.4010009765625 456.51287841796875) rotate(0 59 12.5)"><text x="59" y="18" font-family="Virgil, Segoe UI Emoji" font-size="20px" fill="#000000" text-anchor="middle" style="white-space: pre;" direction="ltr">Join session</text></g><g stroke-linecap="round"><g transform="translate(14.35272216796875 248.00823974609375) rotate(0 239.66702667078465 0.9595637664198762)"><path d="M-0.38 -0.91 C79.32 -0.51, 397.77 2.27, 477.58 2.83 M1.62 1.23 C81.73 1.28, 400.38 1.4, 479.71 1.28" stroke="#000000" stroke-width="1" fill="none"></path></g></g><g transform="translate(47.71881103515625 288.6859130859375) rotate(0 100 12.5)"><text x="0" y="18" font-family="Virgil, Segoe UI Emoji" font-size="20px" fill="#000000" text-anchor="start" style="white-space: pre;" direction="ltr">Join existing session</text></g><g stroke-linecap="round" transform="translate(38.9210205078125 354.71728515625) rotate(0 208.87832641601562 29.885467529296875)"><path d="M14.94 0 M14.94 0 C121.1 0.86, 227.77 0.5, 402.81 0 M14.94 0 C141.7 -1.69, 268.21 -0.97, 402.81 0 M402.81 0 C412.03 0.82, 416.53 3.75, 417.76 14.94 M402.81 0 C414.93 -1.94, 416.82 6.41, 417.76 14.94 M417.76 14.94 C419.73 24.12, 416.77 36.47, 417.76 44.83 M417.76 14.94 C417.88 22.4, 418.48 30.89, 417.76 44.83 M417.76 44.83 C416.84 55.84, 414.72 59.02, 402.81 59.77 M417.76 44.83 C416.18 53.38, 411.34 59.22, 402.81 59.77 M402.81 59.77 C291.55 61.97, 180.61 60.95, 14.94 59.77 M402.81 59.77 C312.84 60.35, 223.07 60.25, 14.94 59.77 M14.94 59.77 C5.33 60.78, -0.7 52.97, 0 44.83 M14.94 59.77 C6.88 61.44, 1.46 54.31, 0 44.83 M0 44.83 C-0.66 35.36, 0.95 29.71, 0 14.94 M0 44.83 C-0.07 37.52, -0.84 31.38, 0 14.94 M0 14.94 C1.07 6.63, 3.3 -0.79, 14.94 0 M0 14.94 C1.87 3.75, 3.1 1.37, 14.94 0" stroke="#000000" stroke-width="1" fill="none"></path></g><g transform="translate(50.39935302734375 330.52630615234375) rotate(0 52 12.5)"><text x="0" y="18" font-family="Virgil, Segoe UI Emoji" font-size="20px" fill="#000000" text-anchor="start" style="white-space: pre;" direction="ltr">Session Id</text></g><g stroke-linecap="round" transform="translate(59.35357666015625 122.76837158203125) rotate(0 196.13458251953125 32.86260986328125)"><path d="M18.12 1.1 L380.79 -0.91 L384.94 0.57 L392.28 8.77 L392.08 51.53 L388.52 60.57 L383.36 63.13 L375.79 65.61 L12.54 66.44 L7.53 62.11 L0.46 54.66 L1.47 17.82 L0.6 9.13 L3.18 3.71 L10.84 2.57 L16.72 -1.42" stroke="none" stroke-width="0" fill="#40c057"></path><path d="M16.43 0 M16.43 0 C108.66 -1.17, 198.44 0.79, 375.84 0 M16.43 0 C124.29 -0.73, 233.15 -0.67, 375.84 0 M375.84 0 C385.44 0.23, 392.95 4.65, 392.27 16.43 M375.84 0 C385.83 -1.4, 392.83 5.23, 392.27 16.43 M392.27 16.43 C394.16 27.85, 392.05 40.3, 392.27 49.29 M392.27 16.43 C391.56 22.25, 392.6 29.68, 392.27 49.29 M392.27 49.29 C392.72 58.46, 387.31 66.75, 375.84 65.73 M392.27 49.29 C390.56 59.35, 386.06 65.88, 375.84 65.73 M375.84 65.73 C300.44 66.75, 223.88 66.51, 16.43 65.73 M375.84 65.73 C258.58 63.75, 141.12 64.07, 16.43 65.73 M16.43 65.73 C3.75 64.16, 1.53 60.44, 0 49.29 M16.43 65.73 C3.25 64.07, 0.62 58.28, 0 49.29 M0 49.29 C-0.05 40.22, 1.33 29.11, 0 16.43 M0 49.29 C-1.03 38.24, 0.15 28.77, 0 16.43 M0 16.43 C0.27 5.45, 6.32 -1.1, 16.43 0 M0 16.43 C1.86 6.05, 5.79 1.84, 16.43 0" stroke="#000000" stroke-width="1" fill="none"></path></g><g transform="translate(196.4881591796875 143.1309814453125) rotate(0 59 12.5)"><text x="59" y="18" font-family="Virgil, Segoe UI Emoji" font-size="20px" fill="#000000" text-anchor="middle" style="white-space: pre;" direction="ltr">New Session</text></g></svg>