<svg version="1.1" xmlns="http://www.w3.org/2000/svg" viewBox="0 0 839.1899778524025 771.3595236812179" width="1678.379955704805" height="1542.7190473624357">
    <!-- svg-source:excalidraw -->
    
    <defs>
      <style>
        @font-face {
          font-family: "Virgil";
          src: url("https://excalidraw.com/Virgil.woff2");
        }
        @font-face {
          font-family: "Cascadia";
          src: url("https://excalidraw.com/Cascadia.woff2");
        }
      </style>
    </defs>
    <rect x="0" y="0" width="839.1899778524025" height="771.3595236812179" fill="#ffffff"></rect><g transform="translate(352.56885039793997 10) rotate(0 82.5 12.5)"><text x="0" y="18" font-family="Virgil, Segoe UI Emoji" font-size="20px" fill="#000000" text-anchor="start" style="white-space: pre;" direction="ltr">Poll / Vote page</text></g><g stroke-linecap="round" transform="translate(10 91.31164943402297) rotate(0 409.45119565682876 334.20298767089844)"><path d="M-0.21 -0.5 C285.51 0.16, 569.96 1.45, 818.9 0.01 M-0.15 0.3 C267.36 -3.11, 534.91 -3.35, 819.28 0.19 M819.59 -0.71 C817.19 252.51, 817.34 503.98, 818.59 667.98 M818.59 -0.23 C819.94 257.72, 820.25 514.73, 818.56 668.18 M818.28 667.94 C505.93 669.41, 194.21 669.09, 0.23 669.02 M819.02 668.56 C598.81 669.37, 378.87 669.55, -0.03 668.45 M-0.09 668.05 C-0.13 511.88, -0.07 357.42, -0.01 0.38 M-0.33 668.54 C2.17 504.09, 2.2 339.84, -0.09 -0.03" stroke="#000000" stroke-width="1" fill="none"></path></g><g stroke-linecap="round"><g transform="translate(173.02008056640625 141.42676173871047) rotate(0 3.034380706316824 309.5932953107663)"><path d="M-0.31 -0.75 C0.66 102.45, 5.4 515.31, 6.38 618.91 M1.72 1.48 C2.56 104.82, 5.33 517.01, 5.84 619.93" stroke="#000000" stroke-width="1" fill="none"></path></g></g><g stroke-linecap="round" transform="translate(11.63524877155578 89.5507283349396) rotate(0 408.7773645404234 32.63043212890625)"><path d="M1.3 -1.88 L818.13 -0.18 L818.53 66.46 L-1.25 66.71" stroke="none" stroke-width="0" fill="#ced4da"></path><path d="M0.51 -0.65 C225.01 2.67, 450.11 2.05, 817.77 -0.64 M-0.05 0.08 C324.87 -2.58, 649.94 -2.22, 817.86 -0.3 M818.23 1.19 C819.15 14.53, 817.35 28.46, 819.26 66.27 M816.79 0.9 C817.05 20.13, 816.19 39.66, 818.37 65.83 M816.93 65.91 C563.5 63.69, 309.67 63.97, -0.25 64.63 M817.57 65.24 C547.82 66.67, 277.67 66.56, -0.27 65.33 M0.85 63.42 C1.1 42.42, 0.05 17.63, -1.09 -1.55 M0.24 64.68 C0.85 45.3, 0.31 27.25, -0.22 -0.53" stroke="#000000" stroke-width="1" fill="none"></path></g><g stroke-linecap="round" transform="translate(24.8016357421875 104.20242702191359) rotate(0 64.515625 17.5)"><path d="M8.23 -1.24 L125.38 -1.09 L128.38 6.51 L128.48 30.11 L124.64 32.85 L122.23 34.26 L6.4 34.21 L0.93 30.5 L-0.81 10.61 L3.15 3.73 L7.27 -1.47" stroke="none" stroke-width="0" fill="#40c057"></path><path d="M8.75 0 M8.75 0 C52.97 0.66, 94.57 -1.14, 120.28 0 M8.75 0 C36.32 -1.35, 63.15 -1.33, 120.28 0 M120.28 0 C127.92 0.02, 129.07 1.21, 129.03 8.75 M120.28 0 C124.82 1.87, 130.35 3.16, 129.03 8.75 M129.03 8.75 C130.35 12.66, 129.66 17.06, 129.03 26.25 M129.03 8.75 C129.24 15.59, 129.31 21.98, 129.03 26.25 M129.03 26.25 C128.92 33.07, 126.89 34.86, 120.28 35 M129.03 26.25 C129.3 30.54, 126.52 36.66, 120.28 35 M120.28 35 C86.28 36.5, 57.42 35.45, 8.75 35 M120.28 35 C81.47 33.32, 43.18 34.38, 8.75 35 M8.75 35 C1.75 35.64, -1.97 31.64, 0 26.25 M8.75 35 C2.76 34.49, -1.23 33.58, 0 26.25 M0 26.25 C0.81 23.69, -1.14 20.31, 0 8.75 M0 26.25 C0.34 21.15, -0.96 16.25, 0 8.75 M0 8.75 C-0.05 3.43, 3.75 -0.65, 8.75 0 M0 8.75 C0.28 4.02, 1.25 1.58, 8.75 0" stroke="#000000" stroke-width="1" fill="none"></path></g><g transform="translate(47.8172607421875 109.20242702191359) rotate(0 41.5 12.5)"><text x="41.5" y="18" font-family="Virgil, Segoe UI Emoji" font-size="20px" fill="#000000" text-anchor="middle" style="white-space: pre;" direction="ltr">New Poll</text></g><g transform="translate(363.9658203125 106.13946925824172) rotate(0 62 12.5)"><text x="0" y="18" font-family="Virgil, Segoe UI Emoji" font-size="20px" fill="#000000" text-anchor="start" style="white-space: pre;" direction="ltr">Frans (host)</text></g><g stroke-linecap="round" transform="translate(201.75234970136262 274.1326118294279) rotate(0 269.9580552842881 232.9220920138889)"><path d="M114.83 -0.11 L439.15 0.46 L450.78 2.35 L472.81 9.22 L493.68 17.85 L510.56 29.5 L523.96 44.69 L534.5 66.47 L539.64 87.69 L538.44 118.18 L537.7 364.16 L539.29 377.71 L532.4 399.57 L522.47 422.05 L511.81 436.89 L492.85 448.33 L472.88 460.37 L450.77 464.07 L421.75 464.72 L103.99 466.53 L89.38 462.48 L64.35 457.01 L47.12 449.48 L29.95 437.32 L17.91 419.73 L5.71 400.94 L2.39 377.45 L0.54 363.38 L0.98 117.23 L3.95 77.11 L5.94 65.87 L17.82 45.26 L21.4 37.7 L35.01 23.32 L56.5 11.35 L77.83 3 L114.91 -0.19" stroke="none" stroke-width="0" fill="#ced4da"></path><path d="M116.46 0 M116.46 0 C182.74 -0.07, 249.29 -0.85, 423.46 0 M116.46 0 C206.89 0.5, 296.59 1.11, 423.46 0 M423.46 0 C502.08 1.2, 538.67 40.27, 539.92 116.46 M423.46 0 C500.48 1.21, 538.53 39.96, 539.92 116.46 M539.92 116.46 C537.94 178.2, 538.68 238.53, 539.92 349.38 M539.92 116.46 C541.44 189.24, 540.85 262.19, 539.92 349.38 M539.92 349.38 C540.2 425.31, 499.7 466.82, 423.46 465.84 M539.92 349.38 C540.94 428.99, 500.45 467.83, 423.46 465.84 M423.46 465.84 C307.21 463.46, 187.61 463.32, 116.46 465.84 M423.46 465.84 C343.45 464.73, 262.6 465.98, 116.46 465.84 M116.46 465.84 C37.29 464.29, -0.16 425.17, 0 349.38 M116.46 465.84 C37.37 465.47, -1.34 429.07, 0 349.38 M0 349.38 C0.1 290.94, 1.26 230.89, 0 116.46 M0 349.38 C-2.66 256.59, -1.4 164.2, 0 116.46 M0 116.46 C-1.57 38.8, 37.34 -0.03, 116.46 0 M0 116.46 C0.58 39.27, 36.7 -1.41, 116.46 0" stroke="#000000" stroke-width="1" fill="none"></path></g><g stroke-linecap="round" transform="translate(264.2789550639618 669.6621796433976) rotate(0 94.27927652994777 24.879930284288207)"><path d="M12.33 1.59 L181.56 0.81 L185.98 1.51 L190.31 8.78 L189.26 42.52 L184.08 48.44 L175.31 51.62 L7.96 50.52 L1.63 45.18 L1.91 38.47 L0.87 10.72 L2.79 4.62 L4.09 0.68 L14.14 1.01" stroke="none" stroke-width="0" fill="#40c057"></path><path d="M12.44 0 M12.44 0 C61.36 2.74, 113.34 0.97, 176.12 0 M12.44 0 C48.12 -1.23, 81.89 -1.91, 176.12 0 M176.12 0 C182.85 1.63, 188.57 4.98, 188.56 12.44 M176.12 0 C185.09 1.77, 187.84 2.35, 188.56 12.44 M188.56 12.44 C188.72 20.55, 189.61 29.64, 188.56 37.32 M188.56 12.44 C188.77 20.45, 188.47 26.57, 188.56 37.32 M188.56 37.32 C189.41 43.77, 185.44 51.21, 176.12 49.76 M188.56 37.32 C188.53 46.7, 183.16 47.98, 176.12 49.76 M176.12 49.76 C129.03 49.16, 81.61 48.35, 12.44 49.76 M176.12 49.76 C130.11 50.05, 84.22 49.68, 12.44 49.76 M12.44 49.76 C3.97 50.74, 1.2 44.37, 0 37.32 M12.44 49.76 C5.82 49.14, 1.21 44.22, 0 37.32 M0 37.32 C-0.9 28.58, 0.6 20.76, 0 12.44 M0 37.32 C-0.75 31.35, 0.04 24.01, 0 12.44 M0 12.44 C0.66 4.43, 2.43 -1.4, 12.44 0 M0 12.44 C1.12 5.17, 6.11 -0.64, 12.44 0" stroke="#000000" stroke-width="1" fill="none"></path></g><g stroke-linecap="round" transform="translate(259.96083031121 308.3099972604807) rotate(0 60.884658116591254 49.91368518549811)"><path d="M26.55 0 L102.69 0.92 L110.42 5.45 L114.79 7.72 L119.97 14.42 L122.19 24.15 L123.24 81.68 L121.75 84.31 L114.06 95.3 L105.97 98.94 L98 100.86 L18.87 98.67 L12.97 99.97 L7.25 93.75 L-0.01 84.65 L-1.14 82.53 L0.41 19.15 L1.8 8.62 L7.87 7.38 L14.25 0.01 L23.79 -1.56" stroke="none" stroke-width="0" fill="#4c6ef5"></path><path d="M24.96 0 M24.96 0 C52.95 1.24, 79.15 -1.86, 96.81 0 M24.96 0 C48.73 -0.33, 72.9 0.11, 96.81 0 M96.81 0 C113.31 0.23, 120.43 8.67, 121.77 24.96 M96.81 0 C115.11 -0.27, 120.74 9.3, 121.77 24.96 M121.77 24.96 C122 36.27, 120.94 44.15, 121.77 74.87 M121.77 24.96 C121.6 38.88, 121.68 52.99, 121.77 74.87 M121.77 74.87 C121.33 91.37, 113.01 98.76, 96.81 99.83 M121.77 74.87 C123.27 89.35, 114.11 99.62, 96.81 99.83 M96.81 99.83 C73.19 98.84, 47.71 98.17, 24.96 99.83 M96.81 99.83 C71.2 99.1, 46.84 99.53, 24.96 99.83 M24.96 99.83 C7.67 100.07, 0.96 90.06, 0 74.87 M24.96 99.83 C9.9 99.99, -0.02 92.26, 0 74.87 M0 74.87 C1.4 60.08, 2.14 42.96, 0 24.96 M0 74.87 C-1.03 56.33, -1.11 35.47, 0 24.96 M0 24.96 C-1.58 7.58, 9.8 -0.47, 24.96 0 M0 24.96 C2.24 6.4, 10.13 2.1, 24.96 0" stroke="#000000" stroke-width="1" fill="none"></path></g><g stroke-linecap="round" transform="translate(407.12794887987366 309.67623877197013) rotate(0 60.884658116591254 49.91368518549811)"><path d="M24.96 0.03 L103.19 -1.21 L113.97 2.77 L117.01 6 L120.59 14.46 L120.96 26.82 L122.34 82.26 L118.73 84.32 L117.25 91.82 L108.4 99.46 L97.85 99.59 L18.34 98.37 L15.74 99.28 L6.4 92.02 L0.42 84.26 L2.2 80.74 L0.43 17.4 L2.38 11.38 L7.38 6.45 L12.49 0.4 L23.4 1.63" stroke="none" stroke-width="0" fill="#4c6ef5"></path><path d="M24.96 0 M24.96 0 C48.08 -0.83, 66.57 0.39, 96.81 0 M24.96 0 C48.51 0.46, 72.55 -0.1, 96.81 0 M96.81 0 C113.68 -1.34, 122.13 9.76, 121.77 24.96 M96.81 0 C113.18 -1.03, 122.75 6.2, 121.77 24.96 M121.77 24.96 C123.07 41.4, 120.58 59.84, 121.77 74.87 M121.77 24.96 C121.36 36.19, 120.96 46.56, 121.77 74.87 M121.77 74.87 C121.63 91.06, 112.38 101.13, 96.81 99.83 M121.77 74.87 C119.61 92.17, 113.24 100.95, 96.81 99.83 M96.81 99.83 C70.42 101.4, 43.88 101.34, 24.96 99.83 M96.81 99.83 C77.88 99.73, 59.4 99.15, 24.96 99.83 M24.96 99.83 C8.56 100.78, -1.45 92.88, 0 74.87 M24.96 99.83 C8.48 99.81, 0.75 91.83, 0 74.87 M0 74.87 C1.24 65.89, -0.21 55.22, 0 24.96 M0 74.87 C0.3 55.1, -1.27 35.93, 0 24.96 M0 24.96 C-0.74 9.8, 7.85 1.95, 24.96 0 M0 24.96 C-1.92 10.13, 10.42 -1.76, 24.96 0" stroke="#000000" stroke-width="1" fill="none"></path></g><g stroke-linecap="round" transform="translate(554.5869962110146 309.81979572968135) rotate(0 60.884658116591254 49.91368518549811)"><path d="M24.99 0.53 L101.06 2.34 L111.28 4.99 L115.29 6.62 L120.64 13.23 L123.63 25.92 L122.92 79.24 L118.74 87.5 L113.77 94.26 L108.92 99.3 L96.58 99.06 L18.04 101.14 L15.05 98.43 L4.67 92.45 L0.03 87.6 L0.41 80.76 L-1.32 17.98 L5.14 10.89 L6.45 4.69 L12.87 0 L26.59 0.01" stroke="none" stroke-width="0" fill="#4c6ef5"></path><path d="M24.96 0 M24.96 0 C48.88 -2.12, 74.65 0.02, 96.81 0 M24.96 0 C49.77 0.43, 73.52 0.15, 96.81 0 M96.81 0 C112.11 0.36, 123.21 8.09, 121.77 24.96 M96.81 0 C112.42 0.98, 119.65 9.5, 121.77 24.96 M121.77 24.96 C120.67 42, 121.58 60.51, 121.77 74.87 M121.77 24.96 C122.21 40.67, 121.67 58.29, 121.77 74.87 M121.77 74.87 C121.33 90.44, 114.75 97.95, 96.81 99.83 M121.77 74.87 C122.43 91.3, 114.58 101.2, 96.81 99.83 M96.81 99.83 C80.79 98.43, 63.65 98.9, 24.96 99.83 M96.81 99.83 C82.6 100.23, 67.55 99.93, 24.96 99.83 M24.96 99.83 C9.28 98.38, 1.37 91.65, 0 74.87 M24.96 99.83 C8.3 100.58, 0.32 89.54, 0 74.87 M0 74.87 C1.47 62.82, 1.49 53.54, 0 24.96 M0 74.87 C-0.38 54.56, -0.48 35.5, 0 24.96 M0 24.96 C1.48 7.85, 10.27 -1.67, 24.96 0 M0 24.96 C1.81 10.42, 6.56 -1.79, 24.96 0" stroke="#000000" stroke-width="1" fill="none"></path></g><g stroke-linecap="round" transform="translate(260.7300307879541 428.7404994145015) rotate(0 60.884658116591254 49.91368518549808)"><path d="M25.49 -1.6 L104.61 -0.35 L113.5 3.27 L115.91 6.66 L119.4 15.9 L122.73 26.5 L119.9 79.25 L121.93 84.02 L116.2 94.78 L108.77 98.03 L96.04 98.76 L20.81 100.45 L14.2 96.7 L5.1 92.06 L3.37 85.81 L0.43 79.01 L-0.73 20.74 L4.65 9.96 L4.69 5.08 L12.48 3.19 L24.97 0.83" stroke="none" stroke-width="0" fill="#4c6ef5"></path><path d="M24.96 0 M24.96 0 C47.05 0.83, 72.85 0.99, 96.81 0 M24.96 0 C47.22 -0.42, 68.82 -1.02, 96.81 0 M96.81 0 C113.81 1.44, 121.54 7.43, 121.77 24.96 M96.81 0 C114.43 -2.12, 122.95 9.99, 121.77 24.96 M121.77 24.96 C120.45 39.68, 120.38 55.47, 121.77 74.87 M121.77 24.96 C120.49 40.91, 121.41 57.09, 121.77 74.87 M121.77 74.87 C120.7 92.81, 111.57 100.4, 96.81 99.83 M121.77 74.87 C121.56 92.64, 114.83 98.39, 96.81 99.83 M96.81 99.83 C68.83 101.2, 42.52 98.23, 24.96 99.83 M96.81 99.83 C79.23 99.68, 60.94 100.49, 24.96 99.83 M24.96 99.83 C6.87 101.2, 0.14 91.49, 0 74.87 M24.96 99.83 C9.07 100.15, -1.97 89.9, 0 74.87 M0 74.87 C-0.78 59.19, 1.42 41.86, 0 24.96 M0 74.87 C-1.19 62.22, -0.75 51.9, 0 24.96 M0 24.96 C-0.47 10.27, 6.65 1.58, 24.96 0 M0 24.96 C2.1 6.56, 6.53 -0.19, 24.96 0" stroke="#000000" stroke-width="1" fill="none"></path></g><g stroke-linecap="round" transform="translate(407.8971493566178 430.10674092599106) rotate(0 60.884658116591254 49.91368518549808)"><path d="M23.36 1.95 L101.92 1.87 L111.78 3.89 L115.96 5.43 L122.07 15 L123.31 23.48 L119.91 82.44 L118.45 86.46 L116.72 94.62 L107.5 97.5 L95.74 101.53 L20.12 99.6 L12.47 97.13 L4.71 95.4 L1.58 85.83 L-1.32 79.59 L2.02 20.25 L3.72 8.2 L5.08 4.68 L15.67 1.57 L25.79 0.59" stroke="none" stroke-width="0" fill="#4c6ef5"></path><path d="M24.96 0 M24.96 0 C52.64 1.13, 79.88 0.65, 96.81 0 M24.96 0 C46.06 -0.16, 66.63 -0.1, 96.81 0 M96.81 0 C114.89 -0.23, 120.88 9.17, 121.77 24.96 M96.81 0 C111.33 1.18, 123.44 8.29, 121.77 24.96 M121.77 24.96 C121.31 40.66, 122.19 60.1, 121.77 74.87 M121.77 24.96 C121.71 36.94, 121.71 48.53, 121.77 74.87 M121.77 74.87 C123.07 89.63, 114.02 99.65, 96.81 99.83 M121.77 74.87 C122.9 92.89, 112.02 101.5, 96.81 99.83 M96.81 99.83 C78.17 98.66, 55.57 98.4, 24.96 99.83 M96.81 99.83 C75.1 100.25, 54.51 99.4, 24.96 99.83 M24.96 99.83 C9.69 99.97, -0.01 92.16, 0 74.87 M24.96 99.83 C8.64 97.85, -1.61 92.63, 0 74.87 M0 74.87 C1.3 59.32, 1.39 39.23, 0 24.96 M0 74.87 C-0.44 55.78, 1.09 37.19, 0 24.96 M0 24.96 C1.95 6.65, 9.89 1.82, 24.96 0 M0 24.96 C-1.76 6.53, 8.13 -2.13, 24.96 0" stroke="#000000" stroke-width="1" fill="none"></path></g><g stroke-linecap="round" transform="translate(555.3561966877587 430.25029788370216) rotate(0 60.884658116591254 49.91368518549808)"><path d="M26.9 -0.74 L104.14 0.15 L112.4 3.94 L114.72 8.1 L121.17 15.58 L120.29 23.48 L123.09 78.96 L120.88 86.98 L116.57 93.35 L106.96 97.2 L98.51 100.84 L19.27 97.87 L12.9 96.74 L8.05 93.6 L1.6 84.08 L-0.73 82.35 L1.53 19.32 L1.96 8.58 L4.68 7.87 L14.05 2.39 L25.54 1.54" stroke="none" stroke-width="0" fill="#4c6ef5"></path><path d="M24.96 0 M24.96 0 C44.84 0.55, 63.67 -0.32, 96.81 0 M24.96 0 C50.17 -0.62, 75.32 0.77, 96.81 0 M96.81 0 C113.22 -0.89, 122.62 6.48, 121.77 24.96 M96.81 0 C114.63 1.67, 121.74 9.4, 121.77 24.96 M121.77 24.96 C119.76 37.9, 121.86 48.29, 121.77 74.87 M121.77 24.96 C121.21 41.3, 120.74 58.74, 121.77 74.87 M121.77 74.87 C119.89 92.08, 113.27 100.81, 96.81 99.83 M121.77 74.87 C123.15 90.07, 115.12 99.21, 96.81 99.83 M96.81 99.83 C70.73 98.21, 45.13 100.14, 24.96 99.83 M96.81 99.83 C73.55 100.07, 49.31 100.28, 24.96 99.83 M24.96 99.83 C8.46 99.81, 0.66 91.79, 0 74.87 M24.96 99.83 C6.35 98.22, 1.12 92.53, 0 74.87 M0 74.87 C1.78 57.44, -1.11 37.9, 0 24.96 M0 74.87 C0.04 64.11, 0.17 52.84, 0 24.96 M0 24.96 C-1.67 9.89, 10.14 -1.53, 24.96 0 M0 24.96 C-1.79 8.13, 6.19 -1.45, 24.96 0" stroke="#000000" stroke-width="1" fill="none"></path></g><g stroke-linecap="round" transform="translate(258.4262411116397 548.5352697985181) rotate(0 60.884658116591254 49.91368518549808)"><path d="M24.21 1.48 L102.42 0.77 L112.45 2.7 L117.39 7.2 L121.75 12.56 L120.3 26.67 L119.62 81.39 L121.4 86.82 L115.29 92.82 L106.66 99.97 L97.82 99.99 L17.54 98.3 L12.51 100.07 L6.26 93.63 L-0.15 84.66 L2.02 81.86 L0.61 17.56 L2.35 8.19 L7.87 6.25 L14.87 2.15 L26.49 -0.62" stroke="none" stroke-width="0" fill="#4c6ef5"></path><path d="M24.96 0 M24.96 0 C41.66 -0.12, 56.72 0.78, 96.81 0 M24.96 0 C48.62 0.1, 74.35 -0.2, 96.81 0 M96.81 0 C112.56 0.85, 119.93 9.34, 121.77 24.96 M96.81 0 C115.12 -0.03, 122.85 7.07, 121.77 24.96 M121.77 24.96 C122.42 36.54, 120.55 47.8, 121.77 74.87 M121.77 24.96 C121.44 34.47, 122.31 44.11, 121.77 74.87 M121.77 74.87 C122.34 91.33, 114.43 101.03, 96.81 99.83 M121.77 74.87 C120.34 93.18, 112.83 101.04, 96.81 99.83 M96.81 99.83 C77.62 98.57, 62.33 100.07, 24.96 99.83 M96.81 99.83 C72.75 99.19, 48.41 99.98, 24.96 99.83 M24.96 99.83 C8.3 100.48, 0.28 89.79, 0 74.87 M24.96 99.83 C6.71 100.95, 1.02 93.47, 0 74.87 M0 74.87 C1.38 60.05, 1.07 46.33, 0 24.96 M0 74.87 C1.13 63.73, 1.37 52.22, 0 24.96 M0 24.96 C1.58 10.14, 6.79 -1.56, 24.96 0 M0 24.96 C-0.19 6.19, 6.87 -0.38, 24.96 0" stroke="#000000" stroke-width="1" fill="none"></path></g><g stroke-linecap="round" transform="translate(405.59335968030337 549.9015113100077) rotate(0 60.884658116591254 49.91368518549808)"><path d="M26.43 -0.24 L103.04 0.82 L111.22 5.37 L116.5 7.78 L118.73 12.56 L123.48 23.19 L122.05 81.91 L121.25 85.55 L114.76 92.52 L109.43 99.28 L96.98 98.26 L17.97 97.91 L15.85 98.28 L6.28 91.88 L0.43 87.42 L1.53 80.93 L-1.16 17.94 L1.95 11.38 L6.25 7.07 L14.62 3.1 L24.33 -1.57" stroke="none" stroke-width="0" fill="#4c6ef5"></path><path d="M24.96 0 M24.96 0 C48.77 -0.38, 73.39 0.5, 96.81 0 M24.96 0 C46.19 1.2, 66.94 0.03, 96.81 0 M96.81 0 C114.3 -1.84, 122.8 9.77, 121.77 24.96 M96.81 0 C113.42 1.09, 120.52 6.53, 121.77 24.96 M121.77 24.96 C121.85 38.29, 122 52, 121.77 74.87 M121.77 24.96 C121.2 39.48, 120.8 52.98, 121.77 74.87 M121.77 74.87 C121.59 92.49, 114.65 98.58, 96.81 99.83 M121.77 74.87 C123.44 90.89, 114.66 98.44, 96.81 99.83 M96.81 99.83 C70.71 99.07, 47.09 99.95, 24.96 99.83 M96.81 99.83 C76.88 100.86, 58.46 100.16, 24.96 99.83 M24.96 99.83 C8.97 100.11, -1.72 90.11, 0 74.87 M24.96 99.83 C9.44 100.85, 1.97 90.86, 0 74.87 M0 74.87 C-1.66 57.08, -1.8 34.66, 0 24.96 M0 74.87 C-0.05 64.82, -0.65 53.6, 0 24.96 M0 24.96 C1.82 6.79, 6.76 -0.16, 24.96 0 M0 24.96 C-2.13 6.87, 7.94 -1.34, 24.96 0" stroke="#000000" stroke-width="1" fill="none"></path></g><g stroke-linecap="round" transform="translate(553.0524070114443 550.0450682677188) rotate(0 60.884658116591254 49.91368518549808)"><path d="M24.72 0.38 L103.09 -0.42 L113.88 4.47 L117.07 4.76 L118.74 15.75 L120.01 25.63 L122.57 81.76 L119.97 85.02 L114.46 95.29 L108.74 98.43 L95.24 98.69 L17.58 101.24 L14.05 98.31 L4.53 92.46 L3.19 86.93 L0.61 79.17 L-0.77 17.55 L5.14 9.76 L7.07 6.83 L15.57 0.94 L23.39 0.6" stroke="none" stroke-width="0" fill="#4c6ef5"></path><path d="M24.96 0 M24.96 0 C48.45 0.95, 72.94 -0.17, 96.81 0 M24.96 0 C48.06 -0.24, 69.28 0.3, 96.81 0 M96.81 0 C111.61 1.03, 123.22 8.29, 121.77 24.96 M96.81 0 C114.54 -1.25, 119.98 8.1, 121.77 24.96 M121.77 24.96 C120.77 36.51, 119.97 46.34, 121.77 74.87 M121.77 24.96 C122.31 38.64, 121.94 54.12, 121.77 74.87 M121.77 74.87 C122.75 92.71, 112.2 101.28, 96.81 99.83 M121.77 74.87 C121.15 92.72, 112.06 100.97, 96.81 99.83 M96.81 99.83 C77.85 99.98, 59.82 98.82, 24.96 99.83 M96.81 99.83 C75.06 99.38, 51.94 99.64, 24.96 99.83 M24.96 99.83 C8.6 98.11, -1.4 92.49, 0 74.87 M24.96 99.83 C9.34 101.79, -0.64 93.5, 0 74.87 M0 74.87 C1.05 54.4, -2.08 35.13, 0 24.96 M0 74.87 C0.6 60.91, 0.42 49.54, 0 24.96 M0 24.96 C-1.53 6.76, 8.16 -1.85, 24.96 0 M0 24.96 C-1.45 7.94, 6.98 2.04, 24.96 0" stroke="#000000" stroke-width="1" fill="none"></path></g><g stroke-linecap="round" transform="translate(489.3359740151718 668.8729035827246) rotate(0 94.27927652994777 24.879930284288207)"><path d="M12.82 0.43 L180.76 2.64 L186.41 4.65 L186.89 8.05 L189.5 41 L184.37 49.2 L177.15 49.52 L6.23 47.91 L4.81 47.66 L0.36 38.67 L-0.94 8 L3.56 4.88 L4.9 0.04 L11.32 1.63" stroke="none" stroke-width="0" fill="#40c057"></path><path d="M12.44 0 M12.44 0 C69.74 -0.29, 130.99 1.27, 176.12 0 M12.44 0 C68.04 -2.04, 124.57 -0.97, 176.12 0 M176.12 0 C185.18 0.09, 188.45 5.13, 188.56 12.44 M176.12 0 C185.3 -0.16, 188.82 2.61, 188.56 12.44 M188.56 12.44 C187.84 21.2, 186.89 29.28, 188.56 37.32 M188.56 12.44 C188.01 20.93, 188.46 30.16, 188.56 37.32 M188.56 37.32 C189.25 46.1, 183.24 50.4, 176.12 49.76 M188.56 37.32 C186.29 45.1, 184.25 49.25, 176.12 49.76 M176.12 49.76 C136.31 48.04, 96.33 49.42, 12.44 49.76 M176.12 49.76 C137.75 48.72, 98.82 48.95, 12.44 49.76 M12.44 49.76 C2.17 48.77, -0.05 46.12, 0 37.32 M12.44 49.76 C5.1 49.01, 0.28 46.71, 0 37.32 M0 37.32 C-0.19 32.31, 0.11 24.28, 0 12.44 M0 37.32 C0.73 31.31, 0.74 26.69, 0 12.44 M0 12.44 C1.81 2.9, 5.65 -1.39, 12.44 0 M0 12.44 C-1.87 2.33, 3.29 1.7, 12.44 0" stroke="#000000" stroke-width="1" fill="none"></path></g><g transform="translate(560.61525054512 681.2528338670127) rotate(0 23 12.5)"><text x="23" y="18" font-family="Virgil, Segoe UI Emoji" font-size="20px" fill="#000000" text-anchor="middle" style="white-space: pre;" direction="ltr">Vote</text></g><g transform="translate(302.55823159391 682.0421099276859) rotate(0 56 12.5)"><text x="56" y="18" font-family="Virgil, Segoe UI Emoji" font-size="20px" fill="#000000" text-anchor="middle" style="white-space: pre;" direction="ltr">Show Votes</text></g><g stroke-linecap="round" transform="translate(18.09819130216465 171.62679154671804) rotate(0 73.09800488673886 37.82058062259293)"><path d="M18.91 0 M18.91 0 C60.04 -2.31, 105.85 -2.6, 127.29 0 M18.91 0 C54.94 -0.95, 90.67 0.29, 127.29 0 M127.29 0 C140.9 0.16, 144.63 5.16, 146.2 18.91 M127.29 0 C138.14 2.08, 146.21 6.35, 146.2 18.91 M146.2 18.91 C147.13 27.24, 144.44 33.97, 146.2 56.73 M146.2 18.91 C146.92 27.6, 147.27 35.4, 146.2 56.73 M146.2 56.73 C144.63 69.94, 140.46 76.41, 127.29 75.64 M146.2 56.73 C146.3 69.21, 141.02 76.53, 127.29 75.64 M127.29 75.64 C95.89 76.36, 63.55 74.02, 18.91 75.64 M127.29 75.64 C90.88 76.18, 53.5 75.65, 18.91 75.64 M18.91 75.64 C4.75 75.45, -1.63 70.03, 0 56.73 M18.91 75.64 C6.86 74.29, 0.73 67.07, 0 56.73 M0 56.73 C-1.04 47.53, -1.85 36.29, 0 18.91 M0 56.73 C-0.81 46.45, -0.45 35.25, 0 18.91 M0 18.91 C-1.21 7.29, 5.57 -1.97, 18.91 0 M0 18.91 C-1.14 6.25, 6.89 0.96, 18.91 0" stroke="#000000" stroke-width="1" fill="none"></path></g><g transform="translate(42.19619618890374 184.447372169311) rotate(0 49 25)"><text x="49" y="18" font-family="Virgil, Segoe UI Emoji" font-size="20px" fill="#000000" text-anchor="middle" style="white-space: pre;" direction="ltr">Story-XXX</text><text x="49" y="43" font-family="Virgil, Segoe UI Emoji" font-size="20px" fill="#000000" text-anchor="middle" style="white-space: pre;" direction="ltr">Vote: 5</text></g><g stroke-linecap="round" transform="translate(17.04207752862567 263.5254415000012) rotate(0 73.09800488673909 37.820580622592956)"><path d="M18.91 0 M18.91 0 C61.49 -0.97, 101.31 1.99, 127.29 0 M18.91 0 C56.5 1.27, 95.66 0.5, 127.29 0 M127.29 0 C138.32 -1.14, 144.67 8.11, 146.2 18.91 M127.29 0 C139.91 0.05, 144.23 5.01, 146.2 18.91 M146.2 18.91 C144.87 32.17, 144.85 49.39, 146.2 56.73 M146.2 18.91 C147.12 29.96, 145.57 41.94, 146.2 56.73 M146.2 56.73 C146.77 70.11, 139.98 75.53, 127.29 75.64 M146.2 56.73 C147.33 70.23, 139.73 75.91, 127.29 75.64 M127.29 75.64 C101.79 75.53, 77.62 74.58, 18.91 75.64 M127.29 75.64 C89.69 75.08, 50.37 75.53, 18.91 75.64 M18.91 75.64 C4.68 76.33, 0.48 68.17, 0 56.73 M18.91 75.64 C7.04 73.37, -0.51 69.18, 0 56.73 M0 56.73 C-1.68 46.8, 0.02 36.7, 0 18.91 M0 56.73 C-0.03 43.65, -0.37 30, 0 18.91 M0 18.91 C-0.74 4.33, 5.31 -0.05, 18.91 0 M0 18.91 C0.59 7.26, 5.55 0.28, 18.91 0" stroke="#000000" stroke-width="1" fill="none"></path></g><g transform="translate(41.140082415364304 276.34602212259404) rotate(0 49 25)"><text x="49" y="18" font-family="Virgil, Segoe UI Emoji" font-size="20px" fill="#000000" text-anchor="middle" style="white-space: pre;" direction="ltr">Story-XXX</text><text x="49" y="43" font-family="Virgil, Segoe UI Emoji" font-size="20px" fill="#000000" text-anchor="middle" style="white-space: pre;" direction="ltr">Vote: 1</text></g><g stroke-linecap="round" transform="translate(17.545200386005945 444.3728737710435) rotate(0 73.09800488673886 37.820580622592956)"><path d="M18.91 0 M18.91 0 C44.11 2.15, 69 0.72, 127.29 0 M18.91 0 C47.76 -0.84, 74.81 -1.49, 127.29 0 M127.29 0 C138.37 1.81, 146.21 6.34, 146.2 18.91 M127.29 0 C137.93 -1.29, 148.07 7.62, 146.2 18.91 M146.2 18.91 C144.35 32.29, 145.91 43.25, 146.2 56.73 M146.2 18.91 C145.7 31.67, 146.77 44.2, 146.2 56.73 M146.2 56.73 C146.28 69.23, 140.88 76.42, 127.29 75.64 M146.2 56.73 C146.03 69.6, 138.35 76.05, 127.29 75.64 M127.29 75.64 C87.81 73.31, 47.65 76.61, 18.91 75.64 M127.29 75.64 C94.13 74.96, 61.72 75.4, 18.91 75.64 M18.91 75.64 C6.79 74.47, 0.64 67.36, 0 56.73 M18.91 75.64 C5.79 75.48, -0.51 68.11, 0 56.73 M0 56.73 C0.17 43.9, 1.55 27.86, 0 18.91 M0 56.73 C-0.5 43.13, -0.27 27.55, 0 18.91 M0 18.91 C-0.99 6.26, 6.81 0.83, 18.91 0 M0 18.91 C-0.75 6.58, 7.4 -1.66, 18.91 0" stroke="#000000" stroke-width="1" fill="none"></path></g><g transform="translate(41.643205272745035 457.19345439363656) rotate(0 49 25)"><text x="49" y="18" font-family="Virgil, Segoe UI Emoji" font-size="20px" fill="#000000" text-anchor="middle" style="white-space: pre;" direction="ltr">Story-XXX</text><text x="49" y="43" font-family="Virgil, Segoe UI Emoji" font-size="20px" fill="#000000" text-anchor="middle" style="white-space: pre;" direction="ltr">Vote: 8</text></g><g stroke-linecap="round" transform="translate(18.211311548138838 351.7990704874984) rotate(0 73.09800488673909 37.820580622592956)"><path d="M18.91 0 M18.91 0 C42.9 -0.88, 64.05 -1.72, 127.29 0 M18.91 0 C59.85 -0.66, 101.6 0.82, 127.29 0 M127.29 0 C139.91 0.04, 144.49 5.18, 146.2 18.91 M127.29 0 C141.77 1.31, 146.44 4.53, 146.2 18.91 M146.2 18.91 C145.91 28.89, 146.49 38.74, 146.2 56.73 M146.2 18.91 C146.18 29.46, 145.94 39.19, 146.2 56.73 M146.2 56.73 C147.18 70.11, 139.75 75.87, 127.29 75.64 M146.2 56.73 C144.66 69.75, 141.55 75.37, 127.29 75.64 M127.29 75.64 C100.64 76.09, 71.92 75.59, 18.91 75.64 M127.29 75.64 C99.87 75.89, 74.32 74.95, 18.91 75.64 M18.91 75.64 C6.94 73.67, -0.44 69.2, 0 56.73 M18.91 75.64 C5.79 74.42, 1.5 67.18, 0 56.73 M0 56.73 C1.23 43.06, 1.49 31.34, 0 18.91 M0 56.73 C-0.14 42.41, -0.27 30.03, 0 18.91 M0 18.91 C0.51 7.13, 5.65 0.24, 18.91 0 M0 18.91 C1.1 4.64, 7.88 0.16, 18.91 0" stroke="#000000" stroke-width="1" fill="none"></path></g><g transform="translate(42.30931643487793 364.61965111009147) rotate(0 49 25)"><text x="49" y="18" font-family="Virgil, Segoe UI Emoji" font-size="20px" fill="#000000" text-anchor="middle" style="white-space: pre;" direction="ltr">Story-XXX</text><text x="49" y="43" font-family="Virgil, Segoe UI Emoji" font-size="20px" fill="#000000" text-anchor="middle" style="white-space: pre;" direction="ltr">Vote: 3</text></g><g stroke-linecap="round" transform="translate(17.003157514935538 535.778847365465) rotate(0 73.09800488673886 37.820580622592956)"><path d="M18.91 0 M18.91 0 C57.11 -0.94, 98.55 1.14, 127.29 0 M18.91 0 C51.55 1.52, 85.72 0.64, 127.29 0 M127.29 0 C138.18 -1.12, 147.82 7.45, 146.2 18.91 M127.29 0 C140.14 -1.78, 144.86 4.51, 146.2 18.91 M146.2 18.91 C146.78 34.87, 145.57 46.2, 146.2 56.73 M146.2 18.91 C146.35 31.34, 146.8 44.27, 146.2 56.73 M146.2 56.73 C146.06 69.57, 138.55 76, 127.29 75.64 M146.2 56.73 C147.86 69.07, 138.86 76.62, 127.29 75.64 M127.29 75.64 C104.74 77.37, 81.15 74.87, 18.91 75.64 M127.29 75.64 C96.03 75.43, 64.6 75.03, 18.91 75.64 M18.91 75.64 C5.86 75.5, -0.44 68.27, 0 56.73 M18.91 75.64 C7.8 73.48, 0.66 69.13, 0 56.73 M0 56.73 C1.23 43, 0.83 29.12, 0 18.91 M0 56.73 C-0.36 43.49, 0.39 30.71, 0 18.91 M0 18.91 C-0.65 6.55, 7.26 -1.45, 18.91 0 M0 18.91 C1.58 6.46, 6.29 0.75, 18.91 0" stroke="#000000" stroke-width="1" fill="none"></path></g><g transform="translate(41.10116240167463 548.5994279880579) rotate(0 49 25)"><text x="49" y="18" font-family="Virgil, Segoe UI Emoji" font-size="20px" fill="#000000" text-anchor="middle" style="white-space: pre;" direction="ltr">Story-XXX</text><text x="49" y="43" font-family="Virgil, Segoe UI Emoji" font-size="20px" fill="#000000" text-anchor="middle" style="white-space: pre;" direction="ltr">Vote: 5</text></g><g stroke-linecap="round" transform="translate(215.91711974668124 193.4253417002843) rotate(0 22.03090333292812 19.93014452672196)"><path d="M2.14 11.14 C2.14 11.14, 2.14 11.14, 2.14 11.14 M2.14 11.14 C2.14 11.14, 2.14 11.14, 2.14 11.14 M3.02 18.61 C3.31 15.35, 7.1 11.11, 15.64 3.63 M1.81 18.48 C3.06 15.96, 5.93 13.13, 15.28 2.56 M0.4 23.96 C3.66 20.39, 9.55 17.14, 18.56 1.37 M0.73 25.03 C5.2 19.35, 9.57 14, 19.79 2.88 M2.39 28.39 C10.08 20.83, 12.24 18.41, 24.6 1.93 M4.24 28.17 C8.76 22.62, 13.82 16, 26.21 1.45 M6.93 32.73 C15.17 22.27, 20.82 11.22, 31.69 2.44 M6.45 32.41 C11.03 25.26, 18.28 16.97, 30.69 1.44 M6.46 36.27 C11.33 29.48, 17.19 24.2, 32.72 6.21 M8.69 34.95 C13.21 27.83, 19.35 21.46, 34.43 5.09 M9.75 39.28 C19.8 24.81, 28.62 15.83, 36.59 5.55 M11.71 37.79 C20.48 28.11, 28.13 17.55, 37.14 8.06 M16.95 39.99 C22.49 27.04, 32.34 19.61, 39.39 11.25 M15.12 38.38 C25.76 27.57, 35.26 16.82, 40.53 10.61 M20.75 41.9 C25.34 32.22, 30.27 27.07, 40.79 12.06 M18.87 40.53 C28.01 31.27, 35.92 21.01, 41.12 14.7 M24.66 42.42 C29.94 32.69, 38.98 23.06, 43.75 18.48 M23.98 40.7 C29.35 36.21, 32.74 29.51, 44.28 17.36 M30.93 37.71 C35.02 33.07, 39.26 27.46, 45.59 24.15 M32.7 36.5 C34.67 33.68, 36.7 31.93, 43.85 23.76 M8 35 C8 35, 8 35, 8 35 M8 35 C8 35, 8 35, 8 35 M18.07 36.84 C14.1 33.72, 6.55 29.25, 2.69 24.21 M18.59 37.84 C11.71 32.72, 5.99 28.03, 0.06 23.35 M23.3 37.05 C16.77 32.86, 9.85 28.43, 3.82 19.7 M24.44 39.03 C17.48 33.49, 11.56 27.94, 2.76 18.17 M27.54 35.82 C19.64 31.06, 14.95 23.33, 2.9 15.71 M28.39 37.08 C18.08 28.7, 9.25 19.81, 1.56 14.27 M34.74 34.91 C22.71 25.53, 11.55 17.16, 1.71 11.15 M33.06 35.26 C24.19 26.78, 15.33 20.45, 4.11 9.32 M35.74 34.35 C30.08 25.49, 22.34 21.77, 4.93 7.4 M36.79 33.2 C27.16 24.54, 17.2 16.39, 7.14 8.18 M40 28.7 C27.95 18.71, 16.84 8.74, 11.37 4.65 M39.77 30.76 C29.52 23.38, 21.26 14.82, 10.11 4.83 M42.95 25.81 C29.78 16.49, 19.79 7.4, 14.75 1.97 M41.72 26.47 C30.5 16.05, 18.64 6.66, 12.37 2.17 M43.83 22.59 C37.13 16.1, 28.97 12.83, 18.96 1.69 M44.16 22.88 C35.25 17.4, 27.55 9.14, 18.75 1.91 M44.35 19.12 C37.52 14.94, 31.64 6.82, 26 2.31 M45.42 20.3 C37.47 12.18, 30.47 7.08, 23.93 1.16 M41.65 13.03 C39.62 9.36, 33.71 2.78, 29.02 -0.58 M43.83 12.84 C39.96 9.88, 37.25 7.44, 29.78 0.91" stroke="#868e96" stroke-width="0.5" fill="none"></path><path d="M28.8 0.46 C32.96 1.48, 37.22 5.36, 39.71 8.87 C42.2 12.37, 44.28 17.23, 43.76 21.49 C43.25 25.76, 40.11 31.38, 36.64 34.46 C33.16 37.54, 27.65 39.83, 22.93 39.97 C18.22 40.11, 12.13 37.89, 8.34 35.29 C4.54 32.7, 1.25 28.38, 0.18 24.39 C-0.89 20.41, -0.2 15.04, 1.93 11.38 C4.07 7.72, 8.2 4.02, 13 2.43 C17.8 0.83, 27.54 1.77, 30.73 1.81 C33.91 1.85, 32.21 2.56, 32.11 2.69 M12.81 0.93 C16.94 -0.93, 23.68 -1.13, 28.31 0.05 C32.93 1.24, 38.04 4.23, 40.57 8.02 C43.09 11.81, 43.81 18.27, 43.46 22.79 C43.1 27.31, 41.69 32.26, 38.44 35.14 C35.2 38.02, 28.78 39.94, 24 40.05 C19.22 40.16, 13.41 38.36, 9.76 35.78 C6.1 33.21, 3.46 28.67, 2.06 24.61 C0.66 20.56, -0.45 15.41, 1.36 11.44 C3.16 7.47, 11.16 2.58, 12.88 0.8 C14.6 -0.98, 11.44 0.07, 11.67 0.78" stroke="#000000" stroke-width="1" fill="none"></path></g><g transform="translate(275.53215424026985 202.19085942725167) rotate(0 18.5 12.5)"><text x="0" y="18" font-family="Virgil, Segoe UI Emoji" font-size="20px" fill="#000000" text-anchor="start" style="white-space: pre;" direction="ltr">Jan</text></g><g stroke-linecap="round" transform="translate(330.99067538683994 190.61775284277616) rotate(0 25.12710163367592 23.37523783517284)"><path d="M2.97 11.86 C2.97 11.86, 2.97 11.86, 2.97 11.86 M2.97 11.86 C2.97 11.86, 2.97 11.86, 2.97 11.86 M5.72 32.12 C9.38 28.05, 15.27 18.34, 27.28 9.24 M6.64 32.92 C10.9 26.89, 13.84 23.42, 27.01 10.46 M13.25 47.55 C21.46 38.49, 28.11 31.67, 44.95 9.57 M15.07 47.86 C20.24 39.17, 28.18 31.53, 46.23 10.8 M29.44 53.28 C36.41 44.66, 44.44 39.62, 49.97 30.47 M30.42 52.44 C34.84 48.07, 39.97 42.17, 50.7 28.51 M7.68 41.47 C7.68 41.47, 7.68 41.47, 7.68 41.47 M7.68 41.47 C7.68 41.47, 7.68 41.47, 7.68 41.47 M31.26 39.64 C23.7 34.96, 21.91 31.55, 8.18 19.34 M30.13 39.64 C24.24 34.69, 16.52 28.41, 6.89 19.62 M47.39 34.34 C35.47 25.08, 26.26 13.65, 11.1 3.67 M47.9 34.65 C35.93 23.9, 23.89 11.53, 11 2.85 M53.95 19.63 C49.09 11.54, 41.78 8.33, 36.83 1.86 M54.96 19.56 C47.93 12.19, 38.99 5.8, 35.88 2.94" stroke="#868e96" stroke-width="2" fill="none"></path><path d="M35.34 2.15 C39.97 3.66, 44.49 7.55, 46.8 11.71 C49.1 15.87, 50.11 22.01, 49.16 27.13 C48.21 32.25, 45.36 39.04, 41.1 42.43 C36.84 45.82, 29.19 47.66, 23.58 47.46 C17.97 47.27, 11.46 44.59, 7.47 41.28 C3.47 37.97, 0.36 32.5, -0.39 27.6 C-1.14 22.7, 0.16 16.37, 2.96 11.88 C5.76 7.38, 10.32 1.86, 16.41 0.61 C22.49 -0.64, 35.17 3.44, 39.49 4.37 C43.82 5.3, 42.74 6.01, 42.34 6.19 M25.01 0.56 C30.16 -0.25, 36.59 0.95, 40.92 3.77 C45.26 6.59, 50.07 12.68, 51.01 17.49 C51.94 22.29, 49.09 28.13, 46.52 32.62 C43.96 37.1, 40.64 42.11, 35.62 44.38 C30.6 46.65, 21.55 47.86, 16.41 46.24 C11.27 44.63, 7.31 38.93, 4.77 34.71 C2.23 30.49, 0.43 25.55, 1.16 20.94 C1.9 16.34, 5.49 10.53, 9.18 7.08 C12.86 3.64, 20.86 1.17, 23.28 0.27 C25.69 -0.63, 23.43 1.54, 23.68 1.69" stroke="#2b8a3e" stroke-width="4" fill="none"></path></g><g transform="translate(394.4211088079164 204.70547275607112) rotate(0 27 12.5)"><text x="0" y="18" font-family="Virgil, Segoe UI Emoji" font-size="20px" fill="#000000" text-anchor="start" style="white-space: pre;" direction="ltr">Freek</text></g><g stroke-linecap="round" transform="translate(461.55294714345564 198.3638881216843) rotate(0 22.03090333292812 19.930144526721975)"><path d="M0.88 12.69 C0.88 12.69, 0.88 12.69, 0.88 12.69 M0.88 12.69 C0.88 12.69, 0.88 12.69, 0.88 12.69 M-0.69 19.56 C2.88 15.62, 6.46 12.64, 13.96 3.65 M1.37 18.19 C5.55 13.01, 8.68 9.43, 14.15 4.98 M-0.17 24.34 C5.4 20.37, 10.84 15.99, 19.95 4.81 M0.49 25.22 C6.08 17.89, 12.58 10.57, 20.15 2.37 M2.65 28.01 C6.35 20.35, 13.54 17.12, 27.02 1.24 M2.93 27.81 C10.5 20.36, 15.47 13.47, 27.23 1.1 M5.22 30.46 C13.61 23.21, 18.38 17.22, 31.71 3.67 M6.4 31.09 C13.71 21.28, 23.6 11.28, 30.55 3.35 M9.12 35.71 C20.01 23.79, 27.53 11.86, 32.85 4.2 M8.92 34.19 C16.86 26.17, 24.92 17.58, 34.41 5.87 M11.68 36.94 C17.14 30.55, 26.22 18.55, 35.93 9.07 M10.13 37.61 C20.33 28.55, 29.11 17.8, 38.22 7.16 M16.8 36.7 C23.39 29.2, 32.58 19.99, 40.72 7.21 M15.72 37.78 C22.79 30.55, 28.99 22.77, 41.79 8.34 M20.05 39.48 C26.65 30.43, 33.48 26.59, 42.12 13.17 M20.12 38.08 C29.05 28.32, 38.15 18.79, 41.77 12.52 M23.4 39.4 C28.4 34.81, 35.67 26.96, 43.72 16.91 M24.91 40.83 C30.78 32.01, 37.25 24.45, 44.86 16.92 M30.26 41.99 C33.18 35.03, 43.89 27.17, 48.76 21.52 M27.44 41.46 C34.87 35.19, 39.96 27.65, 46.38 20.99 M9.8 35.98 C9.8 35.98, 9.8 35.98, 9.8 35.98 M9.8 35.98 C9.8 35.98, 9.8 35.98, 9.8 35.98 M17.66 35.8 C12.92 36.14, 8.59 30.78, 2.99 24.62 M18.2 37.55 C14.72 34.86, 11.31 32.88, 3.45 24.54 M24.52 39.65 C17.68 30.84, 11.02 25.03, 2.66 16.93 M24.99 39.42 C15.89 30.47, 8.23 23.3, 3.13 19.36 M26.71 37.86 C23.09 29.89, 15.59 23, 1.49 13.11 M29.11 35.22 C17.45 26.37, 6.73 17, 1.47 12.67 M32.46 34.85 C23.61 27.61, 13.34 18.87, 3.96 12.09 M32.86 33.48 C25.27 27.98, 16.44 20.57, 4.31 10.82 M37.92 32.22 C28.36 25.87, 20.04 16.6, 6.5 5.78 M36.54 31.88 C25.7 24.05, 17.5 15.74, 6.07 6.5 M41.22 29.02 C32.3 25.44, 26.65 16.42, 11.03 5.87 M40.17 31.9 C29.45 22.56, 19.73 13.76, 11.1 3.88 M42.95 26.24 C34.69 23, 28.17 16.36, 11.46 3.11 M41.58 27.68 C32.78 19.42, 22.86 9.57, 13.64 2.27 M45.23 24.45 C38.05 16.97, 30.3 10.23, 18.18 2.2 M45.06 24 C36.44 17.67, 30.68 11.61, 18.03 1.44 M44.36 21 C39.65 12.44, 33.96 9.03, 25.52 -1.55 M45.73 19.92 C41.17 15.92, 34.73 10.63, 23.8 0.55 M42.25 9.23 C36.45 6.53, 32.74 3.26, 27.35 -0.72 M40.7 10.21 C36.62 6.54, 30.14 0.7, 26.89 -1.76" stroke="#868e96" stroke-width="0.5" fill="none"></path><path d="M26.21 0.71 C30.71 1.34, 36.5 4.93, 39.61 8.08 C42.73 11.24, 45.13 15.36, 44.88 19.66 C44.63 23.96, 41.29 30.64, 38.1 33.88 C34.9 37.12, 30.45 38.74, 25.72 39.08 C20.99 39.42, 13.84 38.04, 9.73 35.92 C5.62 33.81, 2.55 30.24, 1.06 26.38 C-0.43 22.53, -1.1 16.67, 0.8 12.78 C2.7 8.89, 7.45 4.74, 12.46 3.05 C17.47 1.36, 27.22 2.48, 30.85 2.64 C34.48 2.8, 34.53 3.88, 34.26 4.01 M24.01 0.79 C28.87 0.9, 35.42 2.05, 38.98 4.87 C42.55 7.69, 45.15 13.4, 45.39 17.7 C45.64 22, 43.43 27.12, 40.45 30.67 C37.46 34.22, 32.3 37.58, 27.49 38.98 C22.68 40.38, 15.78 40.91, 11.58 39.06 C7.39 37.21, 4.09 31.84, 2.3 27.87 C0.5 23.9, -0.31 19.17, 0.82 15.24 C1.95 11.32, 5.41 6.66, 9.07 4.31 C12.74 1.97, 20.12 1.61, 22.81 1.14 C25.5 0.68, 25.21 1.52, 25.23 1.52" stroke="#000000" stroke-width="1" fill="none"></path></g><g transform="translate(520.47665678663 206.54975202990215) rotate(0 29 12.5)"><text x="0" y="18" font-family="Virgil, Segoe UI Emoji" font-size="20px" fill="#000000" text-anchor="start" style="white-space: pre;" direction="ltr">Liesje</text></g><g transform="translate(666.0932191575712 209.83170487630423) rotate(0 28 12.5)"><text x="0" y="18" font-family="Virgil, Segoe UI Emoji" font-size="20px" fill="#000000" text-anchor="start" style="white-space: pre;" direction="ltr">Frans</text></g><g stroke-linecap="round" transform="translate(595.829078353152 196.69248903897946) rotate(0 25.12710163367592 23.375237835172825)"><path d="M10.21 4.9 C10.21 4.9, 10.21 4.9, 10.21 4.9 M10.21 4.9 C10.21 4.9, 10.21 4.9, 10.21 4.9 M3.55 35.58 C13.74 23.1, 24.87 14.22, 29.73 3.41 M6 34.03 C15.48 24.05, 26.51 12.68, 31.36 5.69 M16.49 46.21 C24.49 34.85, 34.8 26.11, 47.8 11.24 M17.9 45.13 C23.36 39.1, 29.42 32.2, 46.28 12.31 M15.53 44.63 C15.53 44.63, 15.53 44.63, 15.53 44.63 M15.53 44.63 C15.53 44.63, 15.53 44.63, 15.53 44.63 M34.22 39.72 C28.27 33.7, 22.15 29.94, 2.19 12.8 M35.03 41.23 C27.84 33.19, 17.58 25.69, 3.14 13.94 M48.55 33.45 C40.35 22.39, 32.36 18.62, 14.72 2.75 M50.29 30.64 C36.93 22.51, 25.58 11.53, 13 0.37" stroke="#868e96" stroke-width="2" fill="none"></path><path d="M26.23 0.54 C31.24 0.52, 37.63 3.22, 41.55 6.53 C45.46 9.84, 48.94 15.51, 49.71 20.4 C50.47 25.29, 49.21 31.55, 46.15 35.87 C43.08 40.19, 36.44 44.87, 31.29 46.3 C26.15 47.72, 20.07 46.67, 15.28 44.42 C10.49 42.17, 5.14 37.2, 2.55 32.8 C-0.04 28.4, -1.59 22.72, -0.27 18.01 C1.06 13.3, 5.01 7.42, 10.52 4.55 C16.02 1.68, 28.15 0.78, 32.76 0.78 C37.37 0.78, 38.41 4.2, 38.18 4.57 M35.45 2.23 C40.37 3.93, 45.25 8.24, 47.77 12.54 C50.28 16.84, 51.89 23.22, 50.57 28.01 C49.25 32.8, 44.18 38.2, 39.84 41.28 C35.5 44.37, 30 46.44, 24.52 46.54 C19.04 46.65, 10.89 45.18, 6.97 41.9 C3.04 38.62, 1.33 32.28, 0.96 26.85 C0.6 21.42, 1.94 13.46, 4.8 9.32 C7.66 5.18, 13.2 3.5, 18.12 2.01 C23.05 0.52, 31.63 0.3, 34.37 0.4 C37.11 0.51, 34.65 2.05, 34.55 2.63" stroke="#2b8a3e" stroke-width="4" fill="none"></path></g><g transform="translate(317.3454884278008 345.72368244597885) rotate(0 3.5 12.5)"><text x="3.5" y="18" font-family="Virgil, Segoe UI Emoji" font-size="20px" fill="#000000" text-anchor="middle" style="white-space: pre;" direction="ltr">1</text></g><g transform="translate(460.01260699646446 347.0899239574683) rotate(0 8 12.5)"><text x="8" y="18" font-family="Virgil, Segoe UI Emoji" font-size="20px" fill="#000000" text-anchor="middle" style="white-space: pre;" direction="ltr">2</text></g><g transform="translate(607.4716543276063 347.2334809151795) rotate(0 8 12.5)"><text x="8" y="18" font-family="Virgil, Segoe UI Emoji" font-size="20px" fill="#000000" text-anchor="middle" style="white-space: pre;" direction="ltr">3</text></g><g transform="translate(314.6146889045449 466.15418459999967) rotate(0 7 12.5)"><text x="7" y="18" font-family="Virgil, Segoe UI Emoji" font-size="20px" fill="#000000" text-anchor="middle" style="white-space: pre;" direction="ltr">5</text></g><g transform="translate(460.2818074732086 467.5204261114892) rotate(0 8.5 12.5)"><text x="8.5" y="18" font-family="Virgil, Segoe UI Emoji" font-size="20px" fill="#000000" text-anchor="middle" style="white-space: pre;" direction="ltr">8</text></g><g transform="translate(605.7408548043495 467.6639830692003) rotate(0 10.5 12.5)"><text x="10.5" y="18" font-family="Virgil, Segoe UI Emoji" font-size="20px" fill="#000000" text-anchor="middle" style="white-space: pre;" direction="ltr">13</text></g><g transform="translate(304.3108992282305 585.9489549840164) rotate(0 15 12.5)"><text x="15" y="18" font-family="Virgil, Segoe UI Emoji" font-size="20px" fill="#000000" text-anchor="middle" style="white-space: pre;" direction="ltr">20</text></g><g transform="translate(438.97801779689416 587.3151964955059) rotate(0 27.5 12.5)"><text x="27.5" y="18" font-family="Virgil, Segoe UI Emoji" font-size="20px" fill="#000000" text-anchor="middle" style="white-space: pre;" direction="ltr">Kofiie</text></g><g transform="translate(608.437065128036 587.458753453217) rotate(0 5.5 12.5)"><text x="5.5" y="18" font-family="Virgil, Segoe UI Emoji" font-size="20px" fill="#000000" text-anchor="middle" style="white-space: pre;" direction="ltr">?</text></g><g stroke-linecap="round" transform="translate(619.7766603547716 92.2964369300463) rotate(0 104 30)"><path d="M-1.3 0.96 L207.96 -0.4 L208.25 59.73 L0.9 60.73" stroke="none" stroke-width="0" fill="#fab005"></path><path d="M-1.22 1.4 C81.85 2.43, 165.51 1.18, 206.68 -0.77 M0.52 0.73 C68.82 -1.76, 138.8 -2.42, 208.35 0.2 M206.49 0.32 C208.36 13.15, 206.34 26.15, 206.36 58.96 M207.54 -0.91 C208.39 16.77, 207.34 31.13, 208.19 59.76 M207.78 60.02 C156.02 59.91, 101.24 58.23, 0.66 59.52 M208.67 59.83 C138.21 61.03, 66.86 62.18, -0.42 59.94 M0.43 59.32 C0.7 46.5, 2.18 37.18, 1.89 -1.76 M0.65 60.82 C0.3 44.5, 0.66 31.72, 0.2 -0.13" stroke="#000000" stroke-width="4" fill="none"></path></g><g transform="translate(652.2766603547716 97.2964369300463) rotate(0 71.5 25)"><text x="71.5" y="18" font-family="Virgil, Segoe UI Emoji" font-size="20px" fill="#000000" text-anchor="middle" style="white-space: pre;" direction="ltr">Session: Blaat</text><text x="71.5" y="43" font-family="Virgil, Segoe UI Emoji" font-size="20px" fill="#000000" text-anchor="middle" style="white-space: pre;" direction="ltr">Share</text></g></svg>