<svg version="1.1" xmlns="http://www.w3.org/2000/svg" viewBox="0 0 838.9023913136571 808.2670086419622" width="1677.8047826273141" height="1616.5340172839244">
    <!-- svg-source:excalidraw -->
    
    <defs>
      <style>
        @font-face {
          font-family: "Virgil";
          src: url("https://excalidraw.com/Virgil.woff2");
        }
        @font-face {
          font-family: "Cascadia";
          src: url("https://excalidraw.com/Cascadia.woff2");
        }
      </style>
    </defs>
    <rect x="0" y="0" width="838.9023913136571" height="808.2670086419622" fill="#ffffff"></rect><g stroke-linecap="round" transform="translate(10 11.50445556640625) rotate(0 409.45119565682853 393.381276537778)"><path d="M-0.7 -0.67 C259.16 -2.73, 518 -2.58, 818.35 0.57 M0.28 0.12 C183.58 2.64, 366.34 2.78, 818.96 0.22 M819.34 -0.34 C815.67 231.69, 816.6 464.2, 818.95 786.42 M819.07 -0.07 C816.16 195.82, 816.27 392.36, 818.67 786.97 M818.98 786.77 C495.4 784.12, 171.97 785.21, 0.27 786.35 M818.54 786.45 C509.14 790.09, 198.89 790.14, 0.27 787.05 M0.21 786.73 C0.96 621.4, 1.49 456.77, -0.38 -0.11 M0.16 787.1 C0.33 574.95, -0.24 362.59, 0.27 0.27" stroke="#000000" stroke-width="1" fill="none"></path></g><g stroke-linecap="round"><g transform="translate(173.02008056640625 61.61956787109375) rotate(0 0.03216963555564689 367.3985742217726)"><path d="M-1.04 -1 C-1.06 121.32, 0.77 612.06, 1.11 734.72 M0.61 1.08 C0.37 123.46, 0.4 613.33, 0.36 735.8" stroke="#000000" stroke-width="1" fill="none"></path></g></g><g stroke-linecap="round" transform="translate(10.86578369140625 10) rotate(0 408.77736454042315 32.63043212890625)"><path d="M-1.87 -0.75 L815.84 1.2 L816.28 64.87 L-0.06 65.65" stroke="none" stroke-width="0" fill="#ced4da"></path><path d="M0.26 -0.58 C299.07 2.31, 597.23 3.31, 816.95 0.13 M0.22 0 C179.03 -0.85, 358.85 -0.77, 817.53 -0.34 M816.09 -0.61 C818.77 24.08, 818.03 45.69, 816.54 63.41 M817.97 -0.72 C818.52 18.19, 817.26 36.18, 818.5 66.06 M817.3 64.84 C627.41 65.96, 438.44 64.87, 0.63 65.77 M817.85 65.46 C494.16 62.95, 170.85 63, -0.36 65.12 M-0.29 63.71 C0.86 43.09, -1.13 23.2, -0.61 -0.03 M0.73 65.85 C-0.95 46.88, 0.42 29.59, -0.73 -0.77" stroke="#000000" stroke-width="1" fill="none"></path></g><g stroke-linecap="round" transform="translate(24.8016357421875 24.395233154296875) rotate(0 64.515625 17.5)"><path d="M7.01 -1.67 L124.75 -0.91 L128.93 3.85 L127.11 31.51 L122.59 34.78 L118.67 36.38 L5.53 35.58 L0.53 28.22 L0.72 9.03 L3.3 2.08 L7.07 1.13" stroke="none" stroke-width="0" fill="#40c057"></path><path d="M8.75 0 M8.75 0 C47.67 1.67, 88.61 0.94, 120.28 0 M8.75 0 C37.18 1.46, 65.99 1.44, 120.28 0 M120.28 0 C124.68 1.37, 129.76 1.77, 129.03 8.75 M120.28 0 C127.33 2.18, 130.87 1.35, 129.03 8.75 M129.03 8.75 C128.12 13.19, 130.51 20.2, 129.03 26.25 M129.03 8.75 C130.01 12.29, 128.49 18.07, 129.03 26.25 M129.03 26.25 C130.01 32.57, 127.34 36.35, 120.28 35 M129.03 26.25 C130.71 30, 125.33 35.46, 120.28 35 M120.28 35 C82.29 35.87, 46.11 33.88, 8.75 35 M120.28 35 C88.18 35.38, 57.35 35.72, 8.75 35 M8.75 35 C4.09 33.61, -0.41 33.43, 0 26.25 M8.75 35 C4.47 33.32, -1.78 29.93, 0 26.25 M0 26.25 C-0.96 21.32, 0.09 17.41, 0 8.75 M0 26.25 C-0.84 22.75, -0.56 18.16, 0 8.75 M0 8.75 C-1.45 0.94, 2.34 -1.2, 8.75 0 M0 8.75 C-1.41 1.05, 4.89 0.5, 8.75 0" stroke="#000000" stroke-width="1" fill="none"></path></g><g transform="translate(47.8172607421875 29.395233154296875) rotate(0 41.5 12.5)"><text x="41.5" y="18" font-family="Virgil, Segoe UI Emoji" font-size="20px" fill="#000000" text-anchor="middle" style="white-space: pre;" direction="ltr">New Poll</text></g><g transform="translate(363.9658203125 26.332275390625) rotate(0 62 12.5)"><text x="0" y="18" font-family="Virgil, Segoe UI Emoji" font-size="20px" fill="#000000" text-anchor="start" style="white-space: pre;" direction="ltr">Frans (host)</text></g><g stroke-linecap="round" transform="translate(201.75234970136353 194.32541796181158) rotate(0 269.9580552842881 267.0573231434777)"><path d="M132.07 0.45 L405.31 -1.37 L439.12 0.56 L465.13 6.73 L489.13 19.39 L498.79 25.54 L512.5 42.97 L521.42 53.27 L531.47 73.43 L538.96 103.32 L538.55 115.89 L538.79 417.61 L536.03 446.09 L526.02 469.99 L512.51 491.33 L498.53 508.22 L488.58 513.9 L466.18 526.49 L450.62 530.48 L424.45 535.19 L116 533.79 L88.16 528.77 L62.07 519.94 L43.94 509.24 L24.52 493.44 L20.05 483.87 L6.51 457.44 L6.16 446.95 L1.01 417.98 L1.35 134.99 L0.27 101.55 L5.1 88.68 L8.27 74.82 L17.23 53.19 L32.1 32.43 L51.88 18.17 L75.08 7.92 L88.93 6.37 L103.7 3.26 L132.14 -0.41" stroke="none" stroke-width="0" fill="#ced4da"></path><path d="M133.53 0 M133.53 0 C232.49 0.09, 333.27 0.21, 406.39 0 M133.53 0 C231.67 0.57, 329.25 0.73, 406.39 0 M406.39 0 C497.36 -1.76, 540.76 43.39, 539.92 133.53 M406.39 0 C494.45 -1.67, 537.65 43.85, 539.92 133.53 M539.92 133.53 C539.98 197.93, 540.18 260.6, 539.92 400.59 M539.92 133.53 C539.97 195.53, 540.72 257.67, 539.92 400.59 M539.92 400.59 C539.95 489.56, 494.28 534.61, 406.39 534.11 M539.92 400.59 C540.54 487.61, 495.29 532.73, 406.39 534.11 M406.39 534.11 C326.58 532.97, 246.39 532.92, 133.53 534.11 M406.39 534.11 C320.7 534.91, 234.46 536.04, 133.53 534.11 M133.53 534.11 C44.47 533.34, -0.44 487.83, 0 400.59 M133.53 534.11 C43.32 533.46, 0.07 487.87, 0 400.59 M0 400.59 C1.06 314.25, 2.89 226.73, 0 133.53 M0 400.59 C1.63 318.15, 1.47 235.17, 0 133.53 M0 133.53 C0.13 43.8, 43.99 1.23, 133.53 0 M0 133.53 C-1.18 43.81, 45.34 -1.95, 133.53 0" stroke="#000000" stroke-width="1" fill="none"></path></g><g stroke-linecap="round" transform="translate(264.2789550639618 589.8549857757813) rotate(0 94.27927652994777 24.879930284288207)"><path d="M12.89 -1.08 L180.19 2.21 L183.93 3.44 L186.75 10.9 L188.39 43.89 L183.68 46.16 L176.84 50.04 L8.11 48.88 L1.43 47.78 L1.28 39.39 L-1.27 8.92 L2.61 5.67 L4.98 0.9 L11.43 -1.85" stroke="none" stroke-width="0" fill="#40c057"></path><path d="M12.44 0 M12.44 0 C57.98 -1.16, 103.23 1, 176.12 0 M12.44 0 C52.97 -2.23, 92 -1.54, 176.12 0 M176.12 0 C183.76 -1.04, 187.43 5.84, 188.56 12.44 M176.12 0 C185.2 -1.2, 190.37 5.61, 188.56 12.44 M188.56 12.44 C189.79 23.27, 188.82 33.36, 188.56 37.32 M188.56 12.44 C188.4 21.79, 189.01 30.69, 188.56 37.32 M188.56 37.32 C188.27 44.07, 185.44 48.48, 176.12 49.76 M188.56 37.32 C187.46 45.29, 183.71 49.73, 176.12 49.76 M176.12 49.76 C132 52.31, 83.56 50.73, 12.44 49.76 M176.12 49.76 C115.26 47.63, 55.57 47.71, 12.44 49.76 M12.44 49.76 C5.34 48.49, -0.39 45.55, 0 37.32 M12.44 49.76 C4.6 47.94, 0.94 47.85, 0 37.32 M0 37.32 C-0.94 30.6, -2.08 26.2, 0 12.44 M0 37.32 C1.01 31.57, 1.14 24.72, 0 12.44 M0 12.44 C-1.38 4.18, 4.99 0.04, 12.44 0 M0 12.44 C0.76 6.38, 6.11 0.04, 12.44 0" stroke="#000000" stroke-width="1" fill="none"></path></g><g stroke-linecap="round" transform="translate(259.96083031121 228.5028033928645) rotate(0 60.884658116591254 49.91368518549811)"><path d="M23.88 -1.37 L104.1 -1.13 L112.35 1.9 L116.91 6.85 L121.33 14.02 L119.92 25.68 L121.66 81.83 L120.11 84.11 L116.66 94.68 L106.88 96.8 L96.2 100.68 L19.92 99.56 L13.18 97.25 L4.39 93.05 L2.42 85.46 L1.22 79.29 L1.76 19.83 L2.36 10.81 L8.13 7.83 L12.68 1.76 L24.97 -0.65" stroke="none" stroke-width="0" fill="#4c6ef5"></path><path d="M24.96 0 M24.96 0 C43.46 -1.65, 62.16 0.66, 96.81 0 M24.96 0 C54.12 1.05, 82.06 1.17, 96.81 0 M96.81 0 C114.8 1.46, 119.96 7.63, 121.77 24.96 M96.81 0 C113.91 0.62, 121.68 7.99, 121.77 24.96 M121.77 24.96 C121.07 35.79, 121.42 47.16, 121.77 74.87 M121.77 24.96 C122.7 39.44, 121.27 52.56, 121.77 74.87 M121.77 74.87 C123.11 92.86, 111.99 98.28, 96.81 99.83 M121.77 74.87 C119.62 90.64, 111.48 101.2, 96.81 99.83 M96.81 99.83 C80.21 98.22, 63.65 101.75, 24.96 99.83 M96.81 99.83 C81.16 98.7, 65.36 99.14, 24.96 99.83 M24.96 99.83 C7.12 98.6, -1.62 93.22, 0 74.87 M24.96 99.83 C8.82 102.1, -1.54 89.93, 0 74.87 M0 74.87 C0.45 61.75, 1.49 44.77, 0 24.96 M0 74.87 C0.55 59.14, 0.23 44.54, 0 24.96 M0 24.96 C-0.16 7.29, 6.82 -0.22, 24.96 0 M0 24.96 C0.66 7.25, 8.9 0.33, 24.96 0" stroke="#000000" stroke-width="1" fill="none"></path></g><g stroke-linecap="round" transform="translate(407.12794887987366 229.86904490435393) rotate(0 60.884658116591254 49.91368518549811)"><path d="M23.59 1.43 L101.14 0.72 L110.41 4.88 L116.14 7.36 L120.19 12.18 L122.49 25.24 L122.49 80.62 L118.53 86.92 L116.62 92.74 L106.26 97.66 L97.67 100.64 L19.23 98.58 L13.02 96.42 L5.7 94.45 L1.23 86.61 L-1.04 82.09 L1.11 17.96 L4.57 11.64 L7.83 4.88 L14.24 1.57 L24.31 -1.04" stroke="none" stroke-width="0" fill="#4c6ef5"></path><path d="M24.96 0 M24.96 0 C41.41 1.33, 61.22 1.67, 96.81 0 M24.96 0 C40.43 -0.28, 55.53 0.15, 96.81 0 M96.81 0 C114.91 -1.81, 121.08 8.72, 121.77 24.96 M96.81 0 C114.07 -0.09, 121.44 6.54, 121.77 24.96 M121.77 24.96 C121.17 41.9, 121.42 59.62, 121.77 74.87 M121.77 24.96 C122.77 41.19, 121.99 59.49, 121.77 74.87 M121.77 74.87 C123.12 90.05, 111.9 97.96, 96.81 99.83 M121.77 74.87 C120.9 89.54, 114.83 98.37, 96.81 99.83 M96.81 99.83 C75.08 100.79, 58.47 98.21, 24.96 99.83 M96.81 99.83 C71.51 98.54, 47.38 98.93, 24.96 99.83 M24.96 99.83 C7.09 98.2, 1.71 91.94, 0 74.87 M24.96 99.83 C10.59 98.29, -1.58 91.55, 0 74.87 M0 74.87 C1.93 59.5, 0.02 40.67, 0 24.96 M0 74.87 C-0.99 62.67, -0.73 50.48, 0 24.96 M0 24.96 C-1.03 6.82, 8.1 0.57, 24.96 0 M0 24.96 C-1.07 8.9, 8.65 2.04, 24.96 0" stroke="#000000" stroke-width="1" fill="none"></path></g><g stroke-linecap="round" transform="translate(554.5869962110146 230.01260186206514) rotate(0 60.884658116591254 49.91368518549811)"><path d="M5.99 6.53 C5.99 6.53, 5.99 6.53, 5.99 6.53 M5.99 6.53 C5.99 6.53, 5.99 6.53, 5.99 6.53 M6.38 12.17 C8.42 8.31, 12.97 5.74, 14.91 2.36 M6.38 12.17 C8.43 9.04, 11.92 6.1, 14.91 2.36 M3.5 21.59 C10.41 13.37, 16.79 9.45, 21.21 1.21 M3.5 21.59 C10.37 13.51, 16.57 5.53, 21.21 1.21 M3.23 27.99 C13.55 19.22, 22.72 5.95, 26.2 1.57 M3.23 27.99 C8.38 22.62, 13.91 16.88, 26.2 1.57 M3.63 33.63 C10.18 26.7, 15.26 18.44, 31.84 1.18 M3.63 33.63 C13.61 22.05, 23.66 10.73, 31.84 1.18 M3.37 40.03 C15.56 25.34, 25.34 15.01, 36.83 1.54 M3.37 40.03 C15.02 25.76, 27.4 12.58, 36.83 1.54 M3.11 46.43 C12.9 34.15, 22.63 26.97, 42.47 1.14 M3.11 46.43 C10.84 36.32, 18.62 27.16, 42.47 1.14 M3.5 52.07 C16.07 40.73, 26.87 26.83, 47.46 1.5 M3.5 52.07 C13.67 40.52, 24.79 29.36, 47.46 1.5 M3.24 58.47 C18.79 41.98, 31.6 24.04, 53.1 1.11 M3.24 58.47 C14.48 44.87, 27.47 30.77, 53.1 1.11 M3.63 64.11 C22.47 43.38, 37.73 21.71, 58.09 1.47 M3.63 64.11 C24.21 39.52, 44.7 16.22, 58.09 1.47 M3.37 70.51 C20.65 50.43, 39.64 28.95, 63.07 1.83 M3.37 70.51 C26.41 43.19, 50.56 16.67, 63.07 1.83 M3.11 76.91 C18.94 57.25, 37.48 37.64, 68.72 1.43 M3.11 76.91 C19.72 56.27, 38.41 36.98, 68.72 1.43 M2.85 83.3 C26.93 52.44, 55.74 24.07, 73.7 1.79 M2.85 83.3 C24.3 57.24, 46.56 31.4, 73.7 1.79 M3.9 88.19 C26.81 63.54, 46.51 37.47, 79.35 1.4 M3.9 88.19 C19.85 68.84, 38.45 48.88, 79.35 1.4 M6.26 91.57 C38.63 56.62, 69.09 21.65, 84.33 1.76 M6.26 91.57 C31.53 62.05, 57.59 31.22, 84.33 1.76 M7.97 95.7 C39.69 59.48, 67.9 28.91, 89.98 1.37 M7.97 95.7 C29.06 69.89, 50.72 45.24, 89.98 1.37 M11.64 97.57 C43.41 59.52, 73.31 23.84, 94.96 1.73 M11.64 97.57 C31.68 75.35, 51.17 52.45, 94.96 1.73 M15.32 99.44 C45.47 64.93, 73.52 31.98, 100.61 1.33 M15.32 99.44 C39.35 71.21, 62.08 44.64, 100.61 1.33 M19.65 100.56 C46.22 73.75, 67.51 44.62, 104.94 2.45 M19.65 100.56 C47.15 69.98, 74.47 36.2, 104.94 2.45 M25.29 100.16 C57.31 64.1, 90.43 26.46, 109.27 3.56 M25.29 100.16 C44.82 76.2, 66.48 51.57, 109.27 3.56 M30.28 100.52 C52.46 72.47, 79.17 43.62, 113.6 4.68 M30.28 100.52 C60.73 66.44, 90.28 32.43, 113.6 4.68 M35.92 100.13 C56.49 77.53, 75.93 54.81, 116.62 7.3 M35.92 100.13 C54.77 78.88, 73.54 59.35, 116.62 7.3 M40.91 100.49 C59.78 82.14, 76.37 62.14, 118.98 10.68 M40.91 100.49 C72.43 65.1, 102.11 31.91, 118.98 10.68 M46.55 100.09 C65.91 74.81, 86.91 51.1, 120.69 14.81 M46.55 100.09 C72.35 69.87, 99.07 40.98, 120.69 14.81 M51.54 100.45 C70.65 78.22, 93.44 52.08, 121.74 19.7 M51.54 100.45 C74.1 72.97, 98.61 48.1, 121.74 19.7 M57.18 100.06 C76.78 79.75, 92.96 58.36, 122.13 25.34 M57.18 100.06 C72.82 82.36, 88.55 64.17, 122.13 25.34 M62.17 100.42 C85.44 76.68, 103.31 49.79, 121.87 31.74 M62.17 100.42 C75.18 85.32, 85.76 71.81, 121.87 31.74 M67.16 100.78 C83.39 86.49, 97.81 68, 122.27 37.38 M67.16 100.78 C89.43 76.31, 110.6 50.81, 122.27 37.38 M72.8 100.39 C86.89 83.87, 100.6 69.62, 122.01 43.78 M72.8 100.39 C86.28 83.14, 101.31 66.72, 122.01 43.78 M77.79 100.75 C87 88.66, 100.17 74.96, 121.74 50.18 M77.79 100.75 C95.04 80.15, 111.63 60.34, 121.74 50.18 M83.43 100.35 C98.18 83.33, 109.6 66.7, 122.14 55.82 M83.43 100.35 C99.2 82.52, 114.91 65.97, 122.14 55.82 M88.42 100.71 C97.33 90.26, 107.41 80.3, 121.88 62.22 M88.42 100.71 C99.1 89.65, 109.42 77.56, 121.88 62.22 M94.06 100.32 C100.65 92.42, 108.16 82.85, 121.62 68.62 M94.06 100.32 C102.95 89.01, 113.06 78.75, 121.62 68.62 M98.39 101.43 C102.49 95.25, 106.67 92.62, 122.01 74.26 M98.39 101.43 C105.11 93.55, 112.16 86.1, 122.01 74.26 M104.69 100.28 C110.74 91.15, 117.13 87.04, 121.75 80.66 M104.69 100.28 C109.76 94.46, 113.31 90.93, 121.75 80.66 M6.16 93.52 C6.16 93.52, 6.16 93.52, 6.16 93.52 M6.16 93.52 C6.16 93.52, 6.16 93.52, 6.16 93.52 M15.57 96.4 C11.67 92.77, 6.01 88.6, 1.99 84.59 M15.57 96.4 C10.32 91.96, 5.87 86.93, 1.99 84.59 M21.97 96.66 C15.85 89.85, 6.3 83.13, 1.59 78.95 M21.97 96.66 C14.77 90.59, 6.47 84.15, 1.59 78.95 M27.62 96.27 C18.39 91.72, 11.97 81.55, 1.95 73.96 M27.62 96.27 C21.5 91.3, 18.02 87.57, 1.95 73.96 M34.01 96.53 C20.42 83.62, 8.82 72.89, 1.56 68.32 M34.01 96.53 C20.94 86.14, 9.39 74.7, 1.56 68.32 M40.41 96.79 C30.32 89.69, 22.61 81.59, 1.92 63.33 M40.41 96.79 C29.66 87.24, 17.63 77.8, 1.92 63.33 M46.05 96.4 C30.69 81.68, 12.74 66, 1.53 57.69 M46.05 96.4 C34.85 86.52, 23.02 77.83, 1.53 57.69 M52.45 96.66 C40.17 88.19, 26.76 74.25, 1.89 52.7 M52.45 96.66 C36.41 81.17, 19.44 68.22, 1.89 52.7 M58.85 96.92 C44.26 83.23, 27.29 68.42, 1.49 47.06 M58.85 96.92 C40.95 82.92, 23.99 68.01, 1.49 47.06 M64.49 96.53 C44.44 78.19, 27.4 61.05, 1.85 42.07 M64.49 96.53 C49.65 84.96, 34.9 70.69, 1.85 42.07 M70.89 96.79 C54.81 81.68, 33.47 65.61, 1.46 36.43 M70.89 96.79 C43.49 74.18, 18.09 50.15, 1.46 36.43 M76.53 96.39 C53.02 78.22, 33.89 58.31, 1.82 31.44 M76.53 96.39 C58.25 80.17, 40.42 65.05, 1.82 31.44 M82.93 96.65 C57.31 72.81, 30.98 50.06, 1.42 25.8 M82.93 96.65 C66.22 81.47, 49.95 68.6, 1.42 25.8 M89.33 96.92 C69.05 80.99, 49.59 62.79, 1.78 20.81 M89.33 96.92 C67.72 77.64, 45.79 59.02, 1.78 20.81 M97.99 99.15 C71.18 75.12, 45.03 51.88, 2.9 16.48 M97.99 99.15 C64.85 69.05, 29.2 38.83, 2.9 16.48 M102.88 98.1 C63.69 66.23, 26.33 33.79, 4.01 12.15 M102.88 98.1 C78.58 76.84, 55.15 56.61, 4.01 12.15 M108.52 97.7 C71.06 67.65, 35.36 33.21, 5.13 7.82 M108.52 97.7 C73.76 68.05, 40.57 39.52, 5.13 7.82 M111.9 95.34 C82.47 70.11, 52.7 43.69, 7.75 4.8 M111.9 95.34 C82.8 69.22, 52.65 43.36, 7.75 4.8 M116.03 93.63 C94.05 72.35, 70.37 54.32, 11.13 2.44 M116.03 93.63 C87.6 71.09, 61.22 46.62, 11.13 2.44 M117.9 89.96 C98.17 71.05, 73.63 54.57, 15.26 0.73 M117.9 89.96 C84.41 59.52, 51.65 29.79, 15.26 0.73 M119.77 86.28 C87.2 58.71, 52.15 29.71, 20.15 -0.32 M119.77 86.28 C80.52 53.06, 41.06 19.15, 20.15 -0.32 M122.4 83.26 C93.49 61.01, 63.33 35.36, 25.8 -0.71 M122.4 83.26 C102.23 65.66, 83.26 49.14, 25.8 -0.71 M123.51 78.93 C88.93 50.39, 54.51 21.9, 31.44 -1.11 M123.51 78.93 C98.83 58.97, 75.99 38.82, 31.44 -1.11 M123.12 73.29 C96.65 52.61, 69.81 30.7, 37.84 -0.85 M123.12 73.29 C105.04 56.24, 86.67 39.64, 37.84 -0.85 M123.48 68.3 C101.63 52.15, 82.76 33.26, 44.23 -0.58 M123.48 68.3 C104.84 52.01, 85.55 34.38, 44.23 -0.58 M123.08 62.66 C93.5 36.57, 68.49 14.59, 49.88 -0.98 M123.08 62.66 C96.93 40.22, 69.49 16.5, 49.88 -0.98 M123.44 57.67 C101.97 40.93, 79.56 22.23, 56.27 -0.72 M123.44 57.67 C106.93 44.38, 93.17 30.89, 56.27 -0.72 M123.05 52.03 C104.7 34.44, 81.71 19.81, 62.67 -0.46 M123.05 52.03 C103.75 37.13, 86.06 19.66, 62.67 -0.46 M123.41 47.04 C109.06 34.55, 92.2 19.74, 68.32 -0.85 M123.41 47.04 C101.59 28.24, 81.42 10.91, 68.32 -0.85 M123.77 42.05 C105.44 26.41, 90.65 14.22, 74.71 -0.59 M123.77 42.05 C113.75 32.94, 102.89 24.56, 74.71 -0.59 M123.37 36.41 C109.93 23.56, 97.46 11.03, 81.11 -0.33 M123.37 36.41 C108.15 22.62, 91.97 10.17, 81.11 -0.33 M123.73 31.42 C114.43 24.2, 105.48 15.34, 86.75 -0.72 M123.73 31.42 C111.8 20.86, 100.92 10.91, 86.75 -0.72 M121.83 24.47 C114.99 17.31, 106.77 12.86, 93.15 -0.46 M121.83 24.47 C114.1 17.47, 106.13 11.04, 93.15 -0.46 M121.44 18.83 C114.3 12.35, 109.15 8.89, 99.55 -0.2 M121.44 18.83 C114.23 13.12, 108.79 6.53, 99.55 -0.2 M121.04 13.18 C112.97 7.08, 107.96 0.91, 104.44 -1.25 M121.04 13.18 C115.54 8.26, 110.25 3.26, 104.44 -1.25" stroke="#4c6ef5" stroke-width="0.5" fill="none"></path><path d="M24.96 0 M24.96 0 C46.07 -0.32, 71.05 0.02, 96.81 0 M24.96 0 C40.47 0.09, 55.09 -0.33, 96.81 0 M96.81 0 C112.35 -1.83, 121.16 8.88, 121.77 24.96 M96.81 0 C113.77 -1.05, 123.8 6.41, 121.77 24.96 M121.77 24.96 C122.57 41.53, 120.2 59.8, 121.77 74.87 M121.77 24.96 C121.79 38.53, 121.57 51.58, 121.77 74.87 M121.77 74.87 C121.91 90.79, 111.81 100.98, 96.81 99.83 M121.77 74.87 C123.38 92.46, 111.41 98.96, 96.81 99.83 M96.81 99.83 C80.13 100.11, 62.43 98.81, 24.96 99.83 M96.81 99.83 C70.78 99.4, 44.27 99.43, 24.96 99.83 M24.96 99.83 C6.85 100.94, -0.38 89.67, 0 74.87 M24.96 99.83 C8.96 100.38, 0.35 91.63, 0 74.87 M0 74.87 C1.37 64.49, -0.93 53.83, 0 24.96 M0 74.87 C-1.01 60.06, -0.64 45.46, 0 24.96 M0 24.96 C-0.77 8.91, 9.87 -0.52, 24.96 0 M0 24.96 C-1.07 7.3, 6.02 1.63, 24.96 0" stroke="#000000" stroke-width="1" fill="none"></path></g><g stroke-linecap="round" transform="translate(260.7300307879541 348.9333055468853) rotate(0 60.884658116591254 49.91368518549814)"><path d="M23.43 0.33 L101.05 1.77 L112.63 4.63 L115.51 4.38 L120.93 14.32 L122.88 24.85 L119.7 81.85 L121.3 84.94 L114.06 92.98 L108.59 99.08 L96.93 98.97 L18.09 97.59 L13.5 99.13 L5.91 94.41 L0.13 87.16 L1.11 79.57 L1.45 21 L5.11 8.39 L6.44 6.25 L13.39 0.52 L23.83 1.69" stroke="none" stroke-width="0" fill="#fab005"></path><path d="M24.96 0 M24.96 0 C50.24 1.35, 71.16 -2.13, 96.81 0 M24.96 0 C52.38 0.5, 79.3 -1.08, 96.81 0 M96.81 0 C112.76 0.4, 122.3 8.24, 121.77 24.96 M96.81 0 C113.12 -1.78, 122.96 6.85, 121.77 24.96 M121.77 24.96 C121.67 37.11, 122.48 51.81, 121.77 74.87 M121.77 24.96 C121.86 44.26, 122.74 61.49, 121.77 74.87 M121.77 74.87 C120.22 89.64, 112.7 98.12, 96.81 99.83 M121.77 74.87 C123.14 90.05, 113 99.75, 96.81 99.83 M96.81 99.83 C75.79 98.36, 51.71 99, 24.96 99.83 M96.81 99.83 C77.97 98.52, 59.08 98.31, 24.96 99.83 M24.96 99.83 C10.03 100.26, 1.97 90.17, 0 74.87 M24.96 99.83 C6.74 99.87, 0.97 91.56, 0 74.87 M0 74.87 C-0.45 58.2, -1.61 42.12, 0 24.96 M0 74.87 C-0.17 58.47, -0.08 41.47, 0 24.96 M0 24.96 C-0.22 8.89, 7.39 0.51, 24.96 0 M0 24.96 C0.33 10.36, 9.71 0.15, 24.96 0" stroke="#000000" stroke-width="1" fill="none"></path></g><g stroke-linecap="round" transform="translate(407.8971493566178 350.29954705837486) rotate(0 60.884658116591254 49.91368518549814)"><path d="M25.28 -1.61 L104.04 1 L113.15 3.49 L113.68 6.96 L120.49 15.15 L121.67 23.27 L122.51 81.81 L119.36 84.32 L114.92 94.44 L108.54 98.39 L95.96 98.81 L17.26 98.9 L14.9 97.94 L7.06 92.15 L2.93 86.51 L-0.76 81.78 L2.28 20.7 L2.15 9.95 L6.25 5.59 L13 0.43 L26.65 0.68" stroke="none" stroke-width="0" fill="#4c6ef5"></path><path d="M24.96 0 M24.96 0 C44.69 -2.29, 59.03 1, 96.81 0 M24.96 0 C50.72 0.29, 74.22 -0.78, 96.81 0 M96.81 0 C113.85 0.53, 121.69 8.03, 121.77 24.96 M96.81 0 C111.67 1.19, 120.3 7.22, 121.77 24.96 M121.77 24.96 C121.19 40.01, 123.3 54.96, 121.77 74.87 M121.77 24.96 C122.09 43.53, 120.69 59.98, 121.77 74.87 M121.77 74.87 C119.9 90.76, 111.74 101.02, 96.81 99.83 M121.77 74.87 C120.31 91.06, 113.38 100.28, 96.81 99.83 M96.81 99.83 C79.19 101.37, 63.96 99.69, 24.96 99.83 M96.81 99.83 C79.86 99.01, 63.3 100.48, 24.96 99.83 M24.96 99.83 C8.75 101.8, -1.34 90.13, 0 74.87 M24.96 99.83 C8.36 100.8, 0.05 92.27, 0 74.87 M0 74.87 C-0.47 53.91, 0.07 35.75, 0 24.96 M0 74.87 C-0.06 63.71, -0.72 53.48, 0 24.96 M0 24.96 C0.57 7.39, 8.83 0.28, 24.96 0 M0 24.96 C2.04 9.71, 8.47 -1.44, 24.96 0" stroke="#000000" stroke-width="1" fill="none"></path></g><g stroke-linecap="round" transform="translate(555.3561966877587 350.44310401608595) rotate(0 60.884658116591254 49.91368518549814)"><path d="M23.35 1.38 L103.27 1.51 L112.01 1.66 L116.25 6.52 L121.32 13.93 L120.09 26.09 L122.47 79.87 L118.74 85.18 L116.39 94.4 L107.85 97.41 L95.8 97.98 L18.57 100.3 L13.71 99.09 L4.81 94.96 L2.28 84.64 L1.45 82.61 L1.99 17.75 L3.71 9.76 L5.59 5.2 L12.91 3.25 L25.64 -1.04" stroke="none" stroke-width="0" fill="#4c6ef5"></path><path d="M24.96 0 M24.96 0 C50.33 -2.25, 80.83 0.29, 96.81 0 M24.96 0 C48.99 -1.39, 71.22 -0.28, 96.81 0 M96.81 0 C113.99 -0.08, 121.48 6.77, 121.77 24.96 M96.81 0 C114.64 -1.47, 120.67 7.99, 121.77 24.96 M121.77 24.96 C122.55 40.09, 123.23 53.03, 121.77 74.87 M121.77 24.96 C122.35 35.74, 120.89 47.04, 121.77 74.87 M121.77 74.87 C121.02 89.8, 114.65 98.56, 96.81 99.83 M121.77 74.87 C121.32 91.43, 113.9 98.01, 96.81 99.83 M96.81 99.83 C73.16 98.07, 47 97.75, 24.96 99.83 M96.81 99.83 C81.73 98.58, 68.74 99.61, 24.96 99.83 M24.96 99.83 C10.29 98.49, -1.38 91.55, 0 74.87 M24.96 99.83 C9.29 99.88, 0.76 93.75, 0 74.87 M0 74.87 C-1.14 56.14, 0.53 34.68, 0 24.96 M0 74.87 C-0.21 59.39, 0.19 45.7, 0 24.96 M0 24.96 C-0.93 8.83, 8.6 1.78, 24.96 0 M0 24.96 C1.39 8.47, 6.87 -1.33, 24.96 0" stroke="#000000" stroke-width="1" fill="none"></path></g><g stroke-linecap="round" transform="translate(258.4262411116397 468.7280759309018) rotate(0 60.884658116591254 49.91368518549808)"><path d="M26.33 0.61 L103.79 0.37 L110.17 4.23 L115.81 7.35 L120.11 12.35 L122.9 26.04 L120.53 79.25 L119.6 86.65 L116.34 93.71 L106.88 97.25 L94.97 99.29 L19.97 99.11 L14.86 96.83 L7.61 94.31 L0.41 86.85 L2.28 82.32 L-0.97 19.31 L3.52 9.1 L5.2 5.11 L15.73 2.24 L23.92 1.57" stroke="none" stroke-width="0" fill="#4c6ef5"></path><path d="M24.96 0 M24.96 0 C49.52 2.12, 78.19 1.14, 96.81 0 M24.96 0 C50.01 -0.87, 77.08 -0.26, 96.81 0 M96.81 0 C113.37 -0.29, 120.22 9.35, 121.77 24.96 M96.81 0 C111.98 -1.1, 121.45 7.62, 121.77 24.96 M121.77 24.96 C123.34 41.33, 122.83 53.39, 121.77 74.87 M121.77 24.96 C121.38 38.15, 121.17 52.51, 121.77 74.87 M121.77 74.87 C120.06 92.7, 112.18 99.44, 96.81 99.83 M121.77 74.87 C121.7 91.96, 111.63 100.77, 96.81 99.83 M96.81 99.83 C67.13 99.29, 38.25 98.16, 24.96 99.83 M96.81 99.83 C76.51 100.24, 58.04 100.37, 24.96 99.83 M24.96 99.83 C6.98 98.45, 0.04 92.35, 0 74.87 M24.96 99.83 C8.37 100.59, 2.24 93.47, 0 74.87 M0 74.87 C0.51 60.35, -1.72 44.65, 0 24.96 M0 74.87 C-0.71 62.8, 0.33 50.49, 0 24.96 M0 24.96 C0.51 8.6, 10.1 1.21, 24.96 0 M0 24.96 C0.15 6.87, 6.99 1.88, 24.96 0" stroke="#000000" stroke-width="1" fill="none"></path></g><g stroke-linecap="round" transform="translate(405.59335968030337 470.09431744239134) rotate(0 60.884658116591254 49.91368518549808)"><path d="M25.56 1.12 L102.65 -1.46 L112.74 3.79 L116.64 6.14 L118.53 15.17 L122.86 24.11 L119.91 80.11 L121.07 86.6 L115.65 92.73 L106.72 96.42 L96.28 100.69 L18.78 100.26 L12.6 99.64 L6.96 92.44 L2.62 87.68 L1.99 79.36 L0.59 19.12 L2.86 8.71 L5.11 7.93 L14.72 0.52 L26.53 1.27" stroke="none" stroke-width="0" fill="#4c6ef5"></path><path d="M24.96 0 M24.96 0 C54.85 1.54, 82.31 1.79, 96.81 0 M24.96 0 C51.02 0.85, 78.05 0.61, 96.81 0 M96.81 0 C113.16 -1.55, 122.8 7.04, 121.77 24.96 M96.81 0 C112.35 -0.32, 121.07 8.29, 121.77 24.96 M121.77 24.96 C123.43 40.03, 120.58 52.35, 121.77 74.87 M121.77 24.96 C121.33 42.34, 121.73 60.75, 121.77 74.87 M121.77 74.87 C122.97 90.24, 113.06 99.76, 96.81 99.83 M121.77 74.87 C122.22 89.69, 114.39 102.07, 96.81 99.83 M96.81 99.83 C80.75 97.98, 64.38 98.85, 24.96 99.83 M96.81 99.83 C80.43 99.46, 63.32 98.58, 24.96 99.83 M24.96 99.83 C6.94 99.86, 0.84 91.55, 0 74.87 M24.96 99.83 C9.08 102.06, 1.96 91.55, 0 74.87 M0 74.87 C0.82 58.27, 0.18 43.94, 0 24.96 M0 74.87 C0.15 60.59, -0.21 45.99, 0 24.96 M0 24.96 C0.28 10.1, 9.53 0.13, 24.96 0 M0 24.96 C-1.44 6.99, 10.2 -0.04, 24.96 0" stroke="#000000" stroke-width="1" fill="none"></path></g><g stroke-linecap="round" transform="translate(553.0524070114443 470.23787440010244) rotate(0 60.884658116591254 49.91368518549808)"><path d="M26.08 -0.02 L100.81 1.11 L112.3 4.62 L115.43 4.56 L121.34 15.13 L120.92 23.49 L120.77 81.58 L121.02 85.91 L114.68 92.57 L105.88 97.73 L97.67 99.5 L19.93 98 L15.41 98.99 L5.09 94.65 L3.45 87.38 L-0.97 80.92 L0.4 18.46 L2.47 8.62 L7.93 6.92 L13 3.13 L26.23 1.91" stroke="none" stroke-width="0" fill="#4c6ef5"></path><path d="M24.96 0 M24.96 0 C40.92 -0.04, 56.14 0.83, 96.81 0 M24.96 0 C51.95 0.51, 78.51 0.1, 96.81 0 M96.81 0 C111.9 1.03, 120.49 7.36, 121.77 24.96 M96.81 0 C113.13 -0.7, 121.74 7.82, 121.77 24.96 M121.77 24.96 C123.36 40.5, 121.78 60.16, 121.77 74.87 M121.77 24.96 C120.47 42.93, 120.55 62.26, 121.77 74.87 M121.77 74.87 C120.5 91.12, 113.39 100.22, 96.81 99.83 M121.77 74.87 C119.95 92.45, 115.69 97.8, 96.81 99.83 M96.81 99.83 C70.79 97.55, 47.09 98.33, 24.96 99.83 M96.81 99.83 C79.88 101.43, 61.85 99.75, 24.96 99.83 M24.96 99.83 C8.36 100.67, 0.04 92.17, 0 74.87 M24.96 99.83 C10.56 101.79, 0.04 91.46, 0 74.87 M0 74.87 C-1.86 62.62, -1.33 50.4, 0 24.96 M0 74.87 C0.66 62.01, 0.63 50.21, 0 24.96 M0 24.96 C1.78 9.53, 8.45 -1.26, 24.96 0 M0 24.96 C-1.33 10.2, 8.28 -0.89, 24.96 0" stroke="#000000" stroke-width="1" fill="none"></path></g><g stroke-linecap="round" transform="translate(489.3359740151718 589.0657097151083) rotate(0 94.27927652994777 24.879930284288207)"><path d="M1.43 5.22 C1.43 5.22, 1.43 5.22, 1.43 5.22 M1.43 5.22 C1.43 5.22, 1.43 5.22, 1.43 5.22 M1.83 10.86 C2.83 8.57, 5.86 6.59, 7.73 4.07 M1.83 10.86 C4.06 8.25, 6.15 6.61, 7.73 4.07 M1.57 17.26 C6.67 10.87, 10.6 4.65, 14.69 2.17 M1.57 17.26 C7.35 12.16, 12.57 4.8, 14.69 2.17 M1.96 22.91 C6.37 19.35, 11.31 14.89, 20.33 1.77 M1.96 22.91 C6.15 18.41, 9.58 13.25, 20.33 1.77 M1.7 29.3 C9.9 19.26, 18.46 9.88, 25.32 2.13 M1.7 29.3 C10.07 19.22, 17.29 11.37, 25.32 2.13 M2.1 34.95 C10.83 22.48, 21.37 12.5, 30.31 2.49 M2.1 34.95 C9.03 26.49, 15.91 20.58, 30.31 2.49 M1.83 41.34 C8.07 31.77, 14.16 24.32, 35.95 2.1 M1.83 41.34 C11.12 32.42, 19.43 22.13, 35.95 2.1 M3.54 45.48 C12.22 36.04, 22.77 27.13, 40.94 2.46 M3.54 45.48 C15.08 32.98, 25.25 19.68, 40.94 2.46 M5.9 48.86 C14.19 37.64, 26.01 25.72, 46.58 2.07 M5.9 48.86 C19.68 33.34, 31.68 17.47, 46.58 2.07 M9.58 50.73 C25.17 30.68, 40.61 13.45, 51.57 2.43 M9.58 50.73 C22 36.43, 35.17 21.45, 51.57 2.43 M14.57 51.09 C29.9 31.35, 47.91 13.13, 57.21 2.03 M14.57 51.09 C24.96 38.39, 36.72 25.72, 57.21 2.03 M20.21 50.69 C29.74 36.35, 43.06 25.44, 62.2 2.39 M20.21 50.69 C34.63 32.55, 51.38 15.67, 62.2 2.39 M25.2 51.05 C37.62 35.62, 50.71 20.1, 67.84 2 M25.2 51.05 C38.07 37.08, 49.39 22.35, 67.84 2 M30.18 51.41 C38.2 41.18, 50.84 29.52, 72.83 2.36 M30.18 51.41 C47.83 32.3, 64.5 13.16, 72.83 2.36 M35.83 51.02 C48.86 36.16, 63.43 17.68, 78.47 1.96 M35.83 51.02 C52.28 32.22, 66.98 16.26, 78.47 1.96 M40.81 51.38 C50.81 37.81, 61.8 25.7, 83.46 2.32 M40.81 51.38 C57.07 31.92, 72.39 13.64, 83.46 2.32 M46.46 50.98 C55.65 40.69, 64.9 29.1, 88.44 2.68 M46.46 50.98 C61.31 33.98, 75.11 17.77, 88.44 2.68 M51.44 51.34 C64.55 35.79, 73.9 24.19, 94.09 2.29 M51.44 51.34 C64.73 37.94, 75.37 23.37, 94.09 2.29 M57.09 50.95 C71.3 37.31, 84.12 17.86, 99.07 2.65 M57.09 50.95 C73.09 32.92, 89.65 14.1, 99.07 2.65 M62.07 51.31 C70.59 39.65, 82.58 26.43, 104.72 2.25 M62.07 51.31 C73.45 36.95, 87.09 22.19, 104.72 2.25 M67.72 50.91 C82.8 34.05, 97.37 17.25, 109.7 2.61 M67.72 50.91 C78.39 39.17, 88.5 27.35, 109.7 2.61 M72.7 51.27 C82.86 38.65, 93.49 30.58, 115.35 2.22 M72.7 51.27 C82.92 41.18, 92 30.29, 115.35 2.22 M77.69 51.63 C96.22 31.69, 112.28 15.14, 120.33 2.58 M77.69 51.63 C88.94 37.19, 100.98 23.57, 120.33 2.58 M83.33 51.24 C98.07 32.8, 114.55 17.54, 125.98 2.18 M83.33 51.24 C95.15 37.61, 108.72 22.03, 125.98 2.18 M88.32 51.6 C101 33.54, 118.05 20.59, 130.96 2.54 M88.32 51.6 C101.04 38.17, 111.97 24.21, 130.96 2.54 M93.96 51.21 C104.9 39.53, 115.36 27.32, 135.95 2.9 M93.96 51.21 C110.05 34.26, 123.3 15.85, 135.95 2.9 M98.95 51.57 C109.1 39.91, 114.62 30.87, 141.59 2.51 M98.95 51.57 C111.09 39.97, 122.17 26.27, 141.59 2.51 M104.59 51.17 C122.23 33.08, 137.65 13.06, 146.58 2.87 M104.59 51.17 C116.52 37.2, 128.3 24.41, 146.58 2.87 M109.58 51.53 C120.2 36.68, 133.39 23.25, 152.22 2.47 M109.58 51.53 C119.17 39.93, 130.65 27.45, 152.22 2.47 M115.22 51.14 C131.95 31.08, 146.85 12.5, 157.21 2.83 M115.22 51.14 C130.72 33.38, 144.53 15.75, 157.21 2.83 M120.21 51.5 C138.11 31.6, 155.77 14.32, 162.85 2.44 M120.21 51.5 C131.59 38.56, 143.45 25.73, 162.85 2.44 M125.2 51.86 C139.15 38.28, 152.19 22.83, 167.84 2.8 M125.2 51.86 C136.67 38.27, 148.61 24.06, 167.84 2.8 M130.84 51.46 C144.39 33.7, 160.42 18.01, 173.48 2.41 M130.84 51.46 C139.33 41.38, 147.59 32.97, 173.48 2.41 M135.83 51.82 C147.98 37.55, 160.79 24.14, 178.47 2.77 M135.83 51.82 C152.15 32.4, 168.42 15.29, 178.47 2.77 M141.47 51.43 C153.91 37.22, 163.24 27.61, 184.11 2.37 M141.47 51.43 C155.63 35.48, 170.19 18.06, 184.11 2.37 M146.46 51.79 C160.94 35.58, 173.13 21.99, 187.13 5 M146.46 51.79 C163.61 33.82, 179.71 15.46, 187.13 5 M152.1 51.39 C165.8 35.71, 181.38 18.66, 188.18 9.88 M152.1 51.39 C165.12 36.85, 176.66 21.99, 188.18 9.88 M157.09 51.75 C169.63 39.37, 179.96 26.18, 188.58 15.53 M157.09 51.75 C165.49 42.17, 175.15 29.8, 188.58 15.53 M162.73 51.36 C166.23 44.55, 174.97 40.19, 188.32 21.92 M162.73 51.36 C172.13 38.91, 182.58 27.58, 188.32 21.92 M167.72 51.72 C174.74 43.8, 184.65 33.71, 188.06 28.32 M167.72 51.72 C172.09 46.31, 177.63 40.68, 188.06 28.32 M172.7 52.08 C178.98 47.14, 182.42 43.06, 187.79 34.72 M172.7 52.08 C179.1 45.32, 184.21 38.23, 187.79 34.72 M178.35 51.68 C180.62 47.64, 181.72 46.11, 188.19 40.36 M178.35 51.68 C180.62 49.64, 182.44 45.64, 188.19 40.36" stroke="#40c057" stroke-width="0.5" fill="none"></path><path d="M12.44 0 M12.44 0 C67.29 -1, 120.32 1.98, 176.12 0 M12.44 0 C57.93 1.16, 102.29 0.61, 176.12 0 M176.12 0 C184.42 -1.13, 189.41 2.25, 188.56 12.44 M176.12 0 C186.1 -1.56, 190.4 4.33, 188.56 12.44 M188.56 12.44 C187.06 18.82, 186.69 21.84, 188.56 37.32 M188.56 12.44 C189.41 17.82, 187.89 23.96, 188.56 37.32 M188.56 37.32 C188.68 46.49, 186.27 49.9, 176.12 49.76 M188.56 37.32 C186.73 45.18, 186.29 49.51, 176.12 49.76 M176.12 49.76 C119.4 48.15, 61.77 51.72, 12.44 49.76 M176.12 49.76 C125 49.21, 72.96 49.71, 12.44 49.76 M12.44 49.76 C3.4 48.56, -0.95 44.36, 0 37.32 M12.44 49.76 C3.87 50.24, 0.08 43.65, 0 37.32 M0 37.32 C-0.36 27.22, 0.84 21.19, 0 12.44 M0 37.32 C0.88 28.71, 0.61 22.2, 0 12.44 M0 12.44 C-0.81 4.45, 3.05 -1.23, 12.44 0 M0 12.44 C-1.28 5.1, 3.54 0.21, 12.44 0" stroke="#000000" stroke-width="1" fill="none"></path></g><g transform="translate(560.61525054512 601.4456399993963) rotate(0 23 12.5)"><text x="23" y="18" font-family="Virgil, Segoe UI Emoji" font-size="20px" fill="#000000" text-anchor="middle" style="white-space: pre;" direction="ltr">Vote</text></g><g transform="translate(296.55823159391 602.2349160600696) rotate(0 62 12.5)"><text x="62" y="18" font-family="Virgil, Segoe UI Emoji" font-size="20px" fill="#000000" text-anchor="middle" style="white-space: pre;" direction="ltr">Reset Votes</text></g><g stroke-linecap="round" transform="translate(18.098191302165105 91.81959767910132) rotate(0 73.09800488673909 37.820580622592956)"><path d="M18.91 0 M18.91 0 C51.26 1.19, 88.06 -0.79, 127.29 0 M18.91 0 C43.87 -0.4, 67.6 -0.97, 127.29 0 M127.29 0 C138.05 -0.54, 147.06 5.97, 146.2 18.91 M127.29 0 C140.84 -1.65, 147.77 7.14, 146.2 18.91 M146.2 18.91 C147.99 26.73, 146.6 37.28, 146.2 56.73 M146.2 18.91 C146.85 29.37, 145.48 39.94, 146.2 56.73 M146.2 56.73 C147.47 71.25, 138.06 74.08, 127.29 75.64 M146.2 56.73 C147.88 70.47, 140.45 77.05, 127.29 75.64 M127.29 75.64 C86.77 75.06, 48.15 74.58, 18.91 75.64 M127.29 75.64 C95.7 75.72, 65.26 75.9, 18.91 75.64 M18.91 75.64 C6.28 75.21, 0.78 71.02, 0 56.73 M18.91 75.64 C7.99 76.99, -1.6 68.87, 0 56.73 M0 56.73 C-1.8 40.98, -1.01 27.25, 0 18.91 M0 56.73 C0.21 43.32, -0.55 29.92, 0 18.91 M0 18.91 C1.95 4.54, 7.14 -1.12, 18.91 0 M0 18.91 C-0.96 4.64, 4.03 -0.66, 18.91 0" stroke="#000000" stroke-width="1" fill="none"></path></g><g transform="translate(42.19619618890465 104.64017830169428) rotate(0 49 25)"><text x="49" y="18" font-family="Virgil, Segoe UI Emoji" font-size="20px" fill="#000000" text-anchor="middle" style="white-space: pre;" direction="ltr">Story-XXX</text><text x="49" y="43" font-family="Virgil, Segoe UI Emoji" font-size="20px" fill="#000000" text-anchor="middle" style="white-space: pre;" direction="ltr">Vote: 5</text></g><g stroke-linecap="round" transform="translate(17.04207752862567 183.71824763238487) rotate(0 73.09800488673909 37.820580622592956)"><path d="M18.91 0 M18.91 0 C51.95 -1.46, 81.34 -1.22, 127.29 0 M18.91 0 C55.64 -0.57, 92.29 -0.33, 127.29 0 M127.29 0 C140.75 -0.33, 147.02 4.87, 146.2 18.91 M127.29 0 C141.47 0.83, 144.88 7.52, 146.2 18.91 M146.2 18.91 C146.7 33.85, 145.85 47.73, 146.2 56.73 M146.2 18.91 C146 28.91, 147.15 38.29, 146.2 56.73 M146.2 56.73 C144.36 67.78, 141.35 76.62, 127.29 75.64 M146.2 56.73 C146.76 70.75, 141.45 77.32, 127.29 75.64 M127.29 75.64 C105.13 75.78, 81.61 74.31, 18.91 75.64 M127.29 75.64 C89.04 74.82, 51.07 74.91, 18.91 75.64 M18.91 75.64 C7.09 77.32, 1.47 70.51, 0 56.73 M18.91 75.64 C4.71 75.18, 1.54 70.89, 0 56.73 M0 56.73 C-0.46 46.43, 1.49 38.28, 0 18.91 M0 56.73 C-0.78 46.53, 0.99 34.64, 0 18.91 M0 18.91 C0.84 5.18, 5.47 -1.45, 18.91 0 M0 18.91 C-2.27 5.64, 4.92 -1.41, 18.91 0" stroke="#000000" stroke-width="1" fill="none"></path></g><g transform="translate(41.140082415364304 196.53882825497772) rotate(0 49 25)"><text x="49" y="18" font-family="Virgil, Segoe UI Emoji" font-size="20px" fill="#000000" text-anchor="middle" style="white-space: pre;" direction="ltr">Story-XXX</text><text x="49" y="43" font-family="Virgil, Segoe UI Emoji" font-size="20px" fill="#000000" text-anchor="middle" style="white-space: pre;" direction="ltr">Vote: 1</text></g><g stroke-linecap="round" transform="translate(17.5452003860064 364.5656799034273) rotate(0 73.09800488673909 37.820580622592956)"><path d="M18.91 0 M18.91 0 C56.09 -0.15, 97.06 1.27, 127.29 0 M18.91 0 C51.15 0.28, 85.67 0.38, 127.29 0 M127.29 0 C140.72 -1.43, 147.57 7.03, 146.2 18.91 M127.29 0 C138.58 1.22, 148.37 8.14, 146.2 18.91 M146.2 18.91 C145.59 26.64, 145.1 38.15, 146.2 56.73 M146.2 18.91 C146.64 32.51, 145.08 43.41, 146.2 56.73 M146.2 56.73 C147.66 70.32, 140.38 76.87, 127.29 75.64 M146.2 56.73 C147.75 71.01, 137.81 74.85, 127.29 75.64 M127.29 75.64 C92.3 74.05, 58.93 74.32, 18.91 75.64 M127.29 75.64 C99.95 75.1, 73.02 76.15, 18.91 75.64 M18.91 75.64 C7.77 76.81, -1.39 68.93, 0 56.73 M18.91 75.64 C7.85 77.2, -1.68 67.56, 0 56.73 M0 56.73 C1.34 47.65, -0.25 41.05, 0 18.91 M0 56.73 C1.27 43.76, 0.72 31.99, 0 18.91 M0 18.91 C-0.83 4.85, 4.33 -0.57, 18.91 0 M0 18.91 C-1.38 4.89, 4.44 1.97, 18.91 0" stroke="#000000" stroke-width="1" fill="none"></path></g><g transform="translate(41.643205272745035 377.3862605260201) rotate(0 49 25)"><text x="49" y="18" font-family="Virgil, Segoe UI Emoji" font-size="20px" fill="#000000" text-anchor="middle" style="white-space: pre;" direction="ltr">Story-XXX</text><text x="49" y="43" font-family="Virgil, Segoe UI Emoji" font-size="20px" fill="#000000" text-anchor="middle" style="white-space: pre;" direction="ltr">Vote: 8</text></g><g stroke-linecap="round" transform="translate(18.211311548138838 271.9918766198821) rotate(0 73.09800488673909 37.820580622592956)"><path d="M18.91 0 M18.91 0 C47.68 1.14, 74.86 -0.52, 127.29 0 M18.91 0 C46.35 0.13, 73.35 -0.43, 127.29 0 M127.29 0 C141.27 0.72, 145.05 7.36, 146.2 18.91 M127.29 0 C142.07 1.83, 144.63 6.53, 146.2 18.91 M146.2 18.91 C144.94 31.98, 146.76 40.61, 146.2 56.73 M146.2 18.91 C145.52 32.45, 147.17 48.04, 146.2 56.73 M146.2 56.73 C146.68 70.56, 141.24 77.1, 127.29 75.64 M146.2 56.73 C144.11 68.55, 140.36 76.26, 127.29 75.64 M127.29 75.64 C96.22 73.52, 62.13 74.52, 18.91 75.64 M127.29 75.64 C98.47 76.25, 69.6 75.99, 18.91 75.64 M18.91 75.64 C4.92 75.24, 1.34 70.69, 0 56.73 M18.91 75.64 C4.63 73.86, -2.15 68.47, 0 56.73 M0 56.73 C-0.62 48.56, 0.17 38.93, 0 18.91 M0 56.73 C0.05 43.28, -0.79 30.23, 0 18.91 M0 18.91 C-1.97 5.73, 5.1 -1.23, 18.91 0 M0 18.91 C-1.87 8.27, 6.8 2.27, 18.91 0" stroke="#000000" stroke-width="1" fill="none"></path></g><g transform="translate(42.30931643487838 284.81245724247515) rotate(0 49 25)"><text x="49" y="18" font-family="Virgil, Segoe UI Emoji" font-size="20px" fill="#000000" text-anchor="middle" style="white-space: pre;" direction="ltr">Story-XXX</text><text x="49" y="43" font-family="Virgil, Segoe UI Emoji" font-size="20px" fill="#000000" text-anchor="middle" style="white-space: pre;" direction="ltr">Vote: 3</text></g><g stroke-linecap="round" transform="translate(17.003157514935992 455.9716534978487) rotate(0 73.09800488673909 37.820580622592956)"><path d="M18.91 0 M18.91 0 C48.24 -1.29, 76.32 -2.29, 127.29 0 M18.91 0 C48.93 -0.54, 78.8 0.54, 127.29 0 M127.29 0 C138.75 1.06, 148.09 7.9, 146.2 18.91 M127.29 0 C138.33 0.23, 146.21 5.56, 146.2 18.91 M146.2 18.91 C146.67 27.25, 147.55 38.94, 146.2 56.73 M146.2 18.91 C146.58 34.37, 146.09 49.45, 146.2 56.73 M146.2 56.73 C147.55 70.8, 138.08 74.96, 127.29 75.64 M146.2 56.73 C146.66 69.95, 139.8 75.31, 127.29 75.64 M127.29 75.64 C102.19 74.67, 78.41 74.92, 18.91 75.64 M127.29 75.64 C97.84 77.14, 66.23 76.35, 18.91 75.64 M18.91 75.64 C7.65 76.99, -1.46 67.79, 0 56.73 M18.91 75.64 C4.15 74.78, -1.97 70.71, 0 56.73 M0 56.73 C0.47 46.2, 0.89 40.79, 0 18.91 M0 56.73 C-0.58 47.99, -1.15 40.41, 0 18.91 M0 18.91 C-1.2 5.08, 4.68 1.71, 18.91 0 M0 18.91 C0.5 8.57, 4.77 -1.58, 18.91 0" stroke="#000000" stroke-width="1" fill="none"></path></g><g transform="translate(41.10116240167554 468.79223412044155) rotate(0 49 25)"><text x="49" y="18" font-family="Virgil, Segoe UI Emoji" font-size="20px" fill="#000000" text-anchor="middle" style="white-space: pre;" direction="ltr">Story-XXX</text><text x="49" y="43" font-family="Virgil, Segoe UI Emoji" font-size="20px" fill="#000000" text-anchor="middle" style="white-space: pre;" direction="ltr">Vote: 5</text></g><g stroke-linecap="round" transform="translate(215.91711974668215 113.6181478326676) rotate(0 26.726192216088066 25.499163885399895)"><path d="M14.65 3.08 C19.3 0.52, 26.61 0.28, 32.27 1.4 C37.92 2.51, 44.97 5.34, 48.58 9.78 C52.2 14.21, 54.21 22.59, 53.93 28.02 C53.65 33.46, 50.91 38.58, 46.9 42.39 C42.88 46.19, 35.71 50.2, 29.83 50.84 C23.95 51.48, 16.52 49.11, 11.63 46.23 C6.75 43.35, 2.04 38.81, 0.53 33.57 C-0.98 28.33, -0.25 19.97, 2.57 14.79 C5.39 9.62, 14.59 4.85, 17.44 2.51 C20.3 0.18, 19.77 0.38, 19.67 0.79 M34.23 1.86 C39.31 2.56, 43.76 5.71, 47.01 10.02 C50.25 14.33, 53.88 22.21, 53.69 27.71 C53.5 33.21, 50.1 39.03, 45.87 43.02 C41.65 47, 34.18 51.15, 28.33 51.64 C22.48 52.12, 15.38 49.17, 10.79 45.9 C6.21 42.64, 2.23 37.23, 0.82 32.04 C-0.6 26.85, -0.16 19.48, 2.3 14.78 C4.77 10.08, 10.29 6.02, 15.63 3.83 C20.96 1.64, 31.58 2.12, 34.32 1.64 C37.06 1.16, 32.17 0.52, 32.05 0.96" stroke="#2b8a3e" stroke-width="4" fill="none"></path></g><g transform="translate(275.53215424027076 122.38366555963489) rotate(0 18.5 12.5)"><text x="0" y="18" font-family="Virgil, Segoe UI Emoji" font-size="20px" fill="#000000" text-anchor="start" style="white-space: pre;" direction="ltr">Jan</text></g><g stroke-linecap="round" transform="translate(330.99067538683994 110.81055897515944) rotate(0 25.12710163367592 23.37523783517284)"><path d="M29.78 1.23 C34.93 1.79, 41.88 4.51, 45.38 8.52 C48.88 12.53, 50.91 20.29, 50.76 25.28 C50.62 30.26, 48.2 34.89, 44.5 38.44 C40.8 41.98, 34.1 45.85, 28.58 46.55 C23.06 47.24, 16.02 45.14, 11.36 42.6 C6.7 40.07, 2.14 36.09, 0.62 31.31 C-0.9 26.54, -0.04 18.64, 2.23 13.97 C4.5 9.3, 9.07 5.62, 14.25 3.31 C19.43 0.99, 30.15 0.17, 33.3 0.07 C36.46 -0.03, 33.39 2.16, 33.2 2.73 M31.35 0.58 C36.21 1.61, 43.53 6.96, 46.64 11.24 C49.74 15.52, 50.93 21.21, 49.98 26.24 C49.03 31.26, 45.05 38.1, 40.92 41.4 C36.8 44.7, 30.45 46, 25.23 46.01 C20.01 46.02, 13.71 44.43, 9.6 41.45 C5.49 38.46, 1.6 32.69, 0.57 28.09 C-0.46 23.48, 0.76 18.06, 3.44 13.82 C6.12 9.58, 11.93 4.82, 16.64 2.65 C21.34 0.48, 28.85 0.8, 31.67 0.79 C34.49 0.77, 33.7 2.32, 33.56 2.55" stroke="#2b8a3e" stroke-width="4" fill="none"></path></g><g transform="translate(394.4211088079164 124.8982788884544) rotate(0 27 12.5)"><text x="0" y="18" font-family="Virgil, Segoe UI Emoji" font-size="20px" fill="#000000" text-anchor="start" style="white-space: pre;" direction="ltr">Freek</text></g><g stroke-linecap="round" transform="translate(461.55294714345564 118.55669425406762) rotate(0 22.03090333292812 19.93014452672196)"><path d="M26.91 -0.15 C31.56 0.48, 36.89 5.22, 39.88 8.56 C42.87 11.9, 45.07 15.77, 44.85 19.89 C44.63 24, 41.88 30.02, 38.55 33.23 C35.21 36.44, 29.62 38.39, 24.84 39.14 C20.06 39.88, 13.75 39.96, 9.85 37.71 C5.95 35.46, 2.69 29.72, 1.44 25.63 C0.19 21.53, 0.51 17.19, 2.37 13.16 C4.22 9.13, 8.19 3.32, 12.59 1.45 C16.98 -0.43, 25.41 1.68, 28.75 1.92 C32.1 2.17, 32.55 2.62, 32.66 2.93 M30.19 1.71 C34.69 2.97, 39.17 6.22, 41.22 10.01 C43.27 13.81, 43.55 20.36, 42.51 24.47 C41.46 28.58, 38.47 32.19, 34.97 34.68 C31.46 37.16, 26.04 39.4, 21.48 39.4 C16.92 39.4, 11.03 37.18, 7.59 34.68 C4.16 32.17, 1.43 28.36, 0.87 24.35 C0.3 20.33, 2.07 14.5, 4.22 10.58 C6.37 6.65, 9.33 2.17, 13.78 0.8 C18.22 -0.58, 28.41 2.37, 30.89 2.32 C33.37 2.28, 29.17 0.47, 28.63 0.52" stroke="#2b8a3e" stroke-width="4" fill="none"></path></g><g transform="translate(520.47665678663 126.74255816228538) rotate(0 29 12.5)"><text x="0" y="18" font-family="Virgil, Segoe UI Emoji" font-size="20px" fill="#000000" text-anchor="start" style="white-space: pre;" direction="ltr">Liesje</text></g><g transform="translate(666.0932191575712 130.02451100868757) rotate(0 28 12.5)"><text x="0" y="18" font-family="Virgil, Segoe UI Emoji" font-size="20px" fill="#000000" text-anchor="start" style="white-space: pre;" direction="ltr">Frans</text></g><g stroke-linecap="round" transform="translate(595.8290783531511 116.88529517136271) rotate(0 25.12710163367592 23.37523783517284)"><path d="M30.6 1.18 C35.67 1.67, 40.52 4.9, 43.8 8.57 C47.08 12.24, 50.27 18.3, 50.26 23.2 C50.25 28.1, 47.1 34.02, 43.75 37.95 C40.4 41.88, 35.48 45.7, 30.18 46.76 C24.87 47.83, 16.58 46.76, 11.9 44.33 C7.22 41.9, 3.97 37.16, 2.1 32.18 C0.22 27.21, -1.23 19.23, 0.66 14.46 C2.55 9.69, 7.96 5.65, 13.44 3.55 C18.91 1.45, 29.55 1.83, 33.49 1.87 C37.44 1.9, 37.44 3.55, 37.12 3.76 M27.43 -1.04 C32.62 -1.01, 40.23 2.36, 43.9 6.11 C47.58 9.85, 49.28 16.29, 49.47 21.44 C49.66 26.59, 48.14 32.82, 45.06 37.02 C41.98 41.21, 35.92 45.2, 30.98 46.62 C26.05 48.04, 20.11 47.97, 15.47 45.53 C10.82 43.08, 5.56 36.51, 3.09 31.93 C0.62 27.35, -0.84 22.86, 0.64 18.03 C2.13 13.2, 7.7 6.18, 12.01 2.96 C16.31 -0.26, 23.98 -0.67, 26.49 -1.28 C28.99 -1.89, 26.73 -1.16, 27.03 -0.7" stroke="#2b8a3e" stroke-width="4" fill="none"></path></g><g transform="translate(317.3454884278017 265.91648857836253) rotate(0 3.5 12.5)"><text x="3.5" y="18" font-family="Virgil, Segoe UI Emoji" font-size="20px" fill="#000000" text-anchor="middle" style="white-space: pre;" direction="ltr">1</text></g><g transform="translate(460.01260699646446 267.28273008985195) rotate(0 8 12.5)"><text x="8" y="18" font-family="Virgil, Segoe UI Emoji" font-size="20px" fill="#000000" text-anchor="middle" style="white-space: pre;" direction="ltr">2</text></g><g transform="translate(607.4716543276054 267.42628704756316) rotate(0 8 12.5)"><text x="8" y="18" font-family="Virgil, Segoe UI Emoji" font-size="20px" fill="#000000" text-anchor="middle" style="white-space: pre;" direction="ltr">3</text></g><g transform="translate(314.6146889045449 386.34699073238335) rotate(0 7 12.5)"><text x="7" y="18" font-family="Virgil, Segoe UI Emoji" font-size="20px" fill="#000000" text-anchor="middle" style="white-space: pre;" direction="ltr">5</text></g><g transform="translate(460.2818074732095 387.7132322438729) rotate(0 8.5 12.5)"><text x="8.5" y="18" font-family="Virgil, Segoe UI Emoji" font-size="20px" fill="#000000" text-anchor="middle" style="white-space: pre;" direction="ltr">8</text></g><g transform="translate(605.7408548043486 387.856789201584) rotate(0 10.5 12.5)"><text x="10.5" y="18" font-family="Virgil, Segoe UI Emoji" font-size="20px" fill="#000000" text-anchor="middle" style="white-space: pre;" direction="ltr">13</text></g><g transform="translate(304.3108992282305 506.14176111639983) rotate(0 15 12.5)"><text x="15" y="18" font-family="Virgil, Segoe UI Emoji" font-size="20px" fill="#000000" text-anchor="middle" style="white-space: pre;" direction="ltr">20</text></g><g transform="translate(438.9780177968951 507.50800262788937) rotate(0 27.5 12.5)"><text x="27.5" y="18" font-family="Virgil, Segoe UI Emoji" font-size="20px" fill="#000000" text-anchor="middle" style="white-space: pre;" direction="ltr">Kofiie</text></g><g transform="translate(608.4370651280342 507.65155958560047) rotate(0 5.5 12.5)"><text x="5.5" y="18" font-family="Virgil, Segoe UI Emoji" font-size="20px" fill="#000000" text-anchor="middle" style="white-space: pre;" direction="ltr">?</text></g><g transform="translate(234.64331196277044 126.6173117180675) rotate(0 8 12.5)"><text x="8" y="18" font-family="Virgil, Segoe UI Emoji" font-size="20px" fill="#2b8a3e" text-anchor="middle" style="white-space: pre;" direction="ltr">2</text></g><g transform="translate(348.11777702051586 121.68579681033228) rotate(0 8 12.5)"><text x="8" y="18" font-family="Virgil, Segoe UI Emoji" font-size="20px" fill="#2b8a3e" text-anchor="middle" style="white-space: pre;" direction="ltr">3</text></g><g transform="translate(476.5838504763833 125.98683878078958) rotate(0 7 12.5)"><text x="7" y="18" font-family="Virgil, Segoe UI Emoji" font-size="20px" fill="#2b8a3e" text-anchor="middle" style="white-space: pre;" direction="ltr">5</text></g><g transform="translate(612.956179986827 127.76053300653555) rotate(0 8 12.5)"><text x="8" y="18" font-family="Virgil, Segoe UI Emoji" font-size="20px" fill="#2b8a3e" text-anchor="middle" style="white-space: pre;" direction="ltr">3</text></g><g stroke-linecap="round" transform="translate(263.8306710122997 650.5489114804637) rotate(0 208.5 26.5)"><path d="M11.5 -1.38 L408.58 0.53 L413.85 1.58 L417.44 7.13 L415.87 42.92 L412.42 48.12 L410.79 52.77 L403.95 51.37 L8.69 53.63 L6.52 52.76 L1.32 43.66 L-0.5 11.97 L-0.96 5.59 L4.91 3.88 L7.92 -0.17 L13.47 -1.55" stroke="none" stroke-width="0" fill="#fab005"></path><path d="M13.25 0 M13.25 0 C162.1 -0.77, 311.83 -0.94, 403.75 0 M13.25 0 C155.09 -1.72, 295.84 -0.8, 403.75 0 M403.75 0 C412.69 0.82, 416.86 3.68, 417 13.25 M403.75 0 C411.1 1.24, 417.19 2.14, 417 13.25 M417 13.25 C415.84 18.38, 415.26 27.96, 417 39.75 M417 13.25 C417.85 18.55, 417.63 24.36, 417 39.75 M417 39.75 C417.26 49.92, 414.34 52.25, 403.75 53 M417 39.75 C415.82 49.15, 412.95 53.95, 403.75 53 M403.75 53 C324.28 53.72, 245.53 54.93, 13.25 53 M403.75 53 C250.68 54.78, 97.13 54.23, 13.25 53 M13.25 53 C4.94 53.28, -0.21 48.92, 0 39.75 M13.25 53 C2.94 55.3, 1.51 46.63, 0 39.75 M0 39.75 C-1.29 33.51, -1.4 24.66, 0 13.25 M0 39.75 C-0.82 33.36, 1.04 27.16, 0 13.25 M0 13.25 C-0.05 6.07, 4.87 0.95, 13.25 0 M0 13.25 C-2.2 4.68, 3.54 -1.11, 13.25 0" stroke="#000000" stroke-width="1" fill="none"></path></g><g transform="translate(425.3306710122997 664.5489114804637) rotate(0 47 12.5)"><text x="47" y="18" font-family="Virgil, Segoe UI Emoji" font-size="20px" fill="#000000" text-anchor="middle" style="white-space: pre;" direction="ltr">Save Poll</text></g></svg>